<?xml version="1.0" encoding="UTF-8" standalone="no"?>
<!-- Created with Inkscape (http://www.inkscape.org/) -->

<svg
   width="34.049622mm"
   height="73.507118mm"
   viewBox="0 0 34.049621 73.507117"
   version="1.1"
   id="svg120"
   inkscape:version="1.1.1 (3bf5ae0d25, 2021-09-20)"
   sodipodi:docname="hand.svg"
   xmlns:inkscape="http://www.inkscape.org/namespaces/inkscape"
   xmlns:sodipodi="http://sodipodi.sourceforge.net/DTD/sodipodi-0.dtd"
   xmlns="http://www.w3.org/2000/svg"
   xmlns:svg="http://www.w3.org/2000/svg">
  <sodipodi:namedview
     id="namedview122"
     pagecolor="#f66c6c"
     bordercolor="#999999"
     borderopacity="1"
     inkscape:pageshadow="0"
     inkscape:pageopacity="0"
     inkscape:pagecheckerboard="true"
     inkscape:document-units="mm"
     showgrid="false"
     inkscape:zoom="2.9362514"
     inkscape:cx="84.972287"
     inkscape:cy="131.97099"
     inkscape:window-width="1920"
     inkscape:window-height="1009"
     inkscape:window-x="-8"
     inkscape:window-y="-8"
     inkscape:window-maximized="1"
     inkscape:current-layer="layer1" />
  <defs
     id="defs117" />
  <g
     inkscape:label="Layer 1"
     inkscape:groupmode="layer"
     id="layer1"
     transform="translate(-97.361971,-37.95666)">
    <path
       style="display:inline;fill:#ffffff;stroke:none;stroke-width:0.70801"
       d="m 40.489538,268.73655 c -1.232113,-2.8268 -1.074073,-2.54657 0.967435,-0.69903 1.062854,0.96187 4.900491,5.75515 5.022385,5.31158 C 46.92422,271.73023 40.390681,260.29172 25.862601,242.8339 4.710381,217.4161 1.5979959,205.34161 5.5737663,175.13603 c 1.0179784,-7.73401 1.7940944,-20.99834 1.991356,-34.97905 0.083851,-5.94281 -0.3934292,-11.3935 -0.1137119,-16.01902 0.7612264,-12.58797 2.7653926,-19.33747 3.7602926,-15.33761 0.32945,1.32451 0.945014,7.87446 0.905708,9.47001 l 0.434004,2.99513 6.166536,-0.26246 c 1.797402,-0.0765 6.555676,-0.52302 7.120439,-1.35977 0.478048,-0.70825 -1.03519,-9.84081 -1.333521,-12.48983 -0.04047,-0.35936 -12.170906,-2.31034 -12.508583,-3.25274 -0.612137,-1.70837 10.443349,-1.99658 10.737543,-1.12871 0.279994,0.82599 5.093786,6.051 5.54405,6.7333 1.695367,2.56904 2.477934,12.35708 2.841855,30.68112 0.03354,1.68858 -0.2691,3.61883 -0.224917,5.45104 0.562545,23.32735 1.236886,30.14444 4.019843,35.74574 1.21514,2.44574 3.365526,4.14885 3.365526,4.14885 0,0 -0.465809,-0.99829 -0.918001,-2.74479 -3.026531,-11.68935 -4.548241,-16.03113 -4.780079,-53.41346 -0.03302,-5.32375 0.09933,-11.5322 0.04699,-18.31678 -0.438916,-56.899303 0.638438,-67.643247 4.183251,-75.672376 0.994094,-2.251663 5.362312,-5.967069 5.700719,-5.967069 0.06519,0 3.048559,-0.391141 5.23928,0.175744 2.830021,0.732315 5.020599,2.465479 5.020599,2.465479 0,0 -3.264536,-1.393641 -5.99023,-0.609464 -3.380604,0.972593 -5.81428,4.260832 -5.855595,4.957021 -0.133624,2.251663 -0.0061,5.294829 -0.164623,7.011731 l 0.719226,3.070449 5.685306,-0.322937 c 0,0 5.661565,-0.986883 7.619844,-0.0077 0.851426,0.808855 0.68296,34.955797 0.68296,34.955797 -0.477387,35.817845 0.291684,55.619955 1.074843,54.836805 1.946008,-1.94602 1.274494,-13.05346 1.179679,-60.453494 -0.08283,-41.411801 0.369868,-54.649611 1.469011,-61.784347 0.78748,-5.1116789 1.710973,-10.0008783 2.436664,-10.460901 0.706243,-0.4476931 4.585747,-1.7135173 7.184156,-1.1977856 2.752467,0.5463091 7.679372,1.9318157 7.434006,3.6283776 l 2.804414,12.411914 c 0,0 3.719673,1.522739 2.55234,42.261212 0,0 0.699098,13.443253 -0.294283,15.098887 0.782664,2.167376 1.042891,9.304055 2.990623,35.719207 1.174305,15.9525 3.552437,26.69606 3.552437,26.69606 0,0 -0.299138,-17.03201 -2.354809,-46.839762 -0.734742,-10.653947 -2.221084,-28.120951 -2.41694,-43.478045 -0.09351,-7.331887 -0.245795,-14.276442 -0.04622,-19.755062 0.273054,-7.495715 0.944934,-12.321575 0.944934,-12.321575 0,0 2.029704,-0.387841 5.152795,-0.297191 2.697279,0.07829 3.702457,1.308137 3.272561,1.794886 -0.273462,0.309627 -1.898592,-0.216607 -2.972882,0.08416 2.342322,1.401213 2.289658,1.949547 3.906526,4.340105 4.767588,5.630355 7.082492,23.09559 9.000152,63.920931 0.78987,16.815543 1.94417,33.909273 2.46106,37.986073 1.44821,11.42238 3.15377,19.72235 3.15377,19.72235 0,0 -0.42625,-4.49723 -0.78617,-9.92771 -0.35993,-5.43048 -1.15616,-23.75379 -1.78578,-40.699142 -0.62963,-16.945354 -1.65469,-32.706994 -2.0204,-35.099451 -0.79131,-5.176855 0.1856,-8.379862 1.88651,-9.032563 0.42204,-0.161954 2.96501,-0.626437 3.7567,-0.261329 0.83553,0.385328 4.42751,5.055907 4.42751,5.055907 l 1.49537,8.880746 c 0,0 0.70282,7.751201 3.31403,26.997028 6.24027,47.101954 6.41857,48.256134 6.3918,105.642294 -0.0238,50.89798 -0.52975,53.37783 -2.57322,63.09472 -1.16989,5.56293 -2.03807,11.63102 -2.03967,13.55822 l 0.38869,4.62274 -24.804778,-0.45461 c -13.11463,-0.24036 -30.172298,0.86042 -37.910383,1.1739 l -16.289821,1.24497 c 0,0 0.770494,-4.45151 0.318576,-5.56361 -0.409912,-1.00873 -1.234099,-3.52199 -1.234099,-3.52199 z M 24.680994,143.4641 c 0,0 -1.566066,0.41054 -4.244444,0.18477 v 0 c -3.984863,0.0431 -4.46582,0.30768 -4.4371,0.99608 0.02119,0.5079 0.626132,0.73592 4.033727,0.19151 2.251663,-0.35973 4.647817,-1.37236 4.647817,-1.37236 z"
       id="path1532"
       transform="matrix(0.26458333,0,0,0.26458333,97.361971,37.95666)"
       inkscape:label="handfil big"
       sodipodi:nodetypes="ssssssssscssssssssscsssssscssscccssssssccscccssscssccsscsssssccccsccsscssscccssc" />
    <path
       style="fill:#ffffff;stroke:none;stroke-width:0.70801"
       d="m 13.117312,113.47075 c -1.067469,-6.17309 -1.392897,-7.79979 3.995156,-7.73746 7.540817,0.25322 5.846578,1.92988 7.006678,6.94508 1.717415,7.42451 -0.416644,7.01526 -5.818973,7.03802 l -4.12959,-0.15465 z"
       id="path1571"
       transform="matrix(0.26458333,0,0,0.26458333,97.361971,37.95666)"
       inkscape:label="path1571"
       sodipodi:nodetypes="scsccs" />
    <path
       style="fill:#ffffff;stroke:none;stroke-width:0.70801"
       d="m 67.610261,19.747204 c -45.073507,-13.1648027 -22.536754,-6.582401 0,0 z"
       id="path1610"
       transform="matrix(0.26458333,0,0,0.26458333,97.361971,37.95666)"
       sodipodi:nodetypes="cc" />
    <path
       style="fill:#ffffff;stroke:none;stroke-width:0.70801"
       d="m 41.872789,39.13055 c -0.250869,-3.574707 0.414731,-4.763316 1.963541,-5.592214 4.060785,-2.173266 10.669551,0.514838 9.880443,7.910014 -0.219155,2.053828 -2.443148,4.379023 -6.554242,3.677744 l -4.89158,-0.322021 z"
       id="path1649"
       transform="matrix(0.26458333,0,0,0.26458333,97.361971,37.95666)"
       sodipodi:nodetypes="sssscs" />
    <g
       id="g115"
       transform="matrix(0,0.20437475,-0.20437475,0,183.60049,-46.468717)"
       style="display:inline">
      <g
         transform="matrix(0.04720033,-0.85917949,-0.85917949,-0.04720033,582.62711,551.3488)"
         id="g41">
        <path
           d="m 321.10092,58.658165 c 0.57456,-3.976869 -5.287,-2.470942 -4.49167,-6.636831 2.32892,-2.002867 7.82273,-0.764368 8.63353,1.944808 -0.9903,0.202766 -2.46395,-0.161761 -2.59477,1.048673 0.94463,0.356369 2.45745,0.23046 2.39542,1.446377 -1.80415,0.155797 -2.26853,1.887311 -3.94251,2.196973 z"
           id="path7" />
        <path
           d="m 327.87935,-26.178469 c -1.30528,-1.69334 -1.72107,-10.036959 0.8972,-11.229214 -0.82042,4.254177 5.64457,8.278867 1.59785,11.428563 -0.14282,-1.527224 -1.32318,-0.879183 -2.49505,-0.199349 z"
           id="path9" />
        <path
           d="m 320.10206,39.745526 c -1.12053,-1.996586 1.7975,-7.995236 4.53965,-9.683187 0.038,5.04905 -0.74933,9.127312 -4.53965,9.683187 z"
           id="path11" />
        <path
           d="m 278.68611,86.657944 c 2.82,1.393026 9.6733,5.31633 4.9901,0.398712 2.45798,-1.245177 10.38245,0.621897 9.58248,5.787596 -7.19642,-0.0684 -13.57347,-0.836738 -14.57258,-6.186308 z"
           id="path13" />
        <path
           d="m 335.05081,-86.893164 1.49519,-18.713366 c 0.92941,-0.67111 1.97122,29.958175 -1.49519,18.713366 z"
           id="path15" />
        <path
           d="m 243.71055,162.96369 c 1.96778,-0.16982 1.08387,-2.66715 0.29899,-3.74207 1.83944,3.47052 9.3078,2.14413 12.17725,4.73892 -2.00944,1.3693 -10.94151,1.59161 -12.47624,-0.99685 z"
           id="path17" />
        <path
           d="m 247.0978,89.155995 c 4.62764,1.48229 10.63623,1.789826 13.42411,4.840562 -5.66959,-0.595449 -11.61805,-0.952355 -13.42411,-4.840562 z"
           id="path19" />
        <path
           d="m 259.1145,-14.09492 c 1.40903,-6.987967 -0.70205,-18.10744 4.18959,-21.009054 -1.59675,9.563197 1.81869,16.624668 -4.18959,21.009054 z"
           id="path21" />
        <path
           d="m 207.83091,124.94123 c 1.68106,-1.6664 4.47919,-2.02062 7.68549,-1.8969 1.02064,2.23036 3.93803,2.84368 4.5904,5.38872 -3.69933,-1.49939 -12.86514,1.66063 -12.27589,-3.49182 z"
           id="path23" />
        <path
           d="m 212.66578,80.123942 c 3.74092,0.690133 9.81379,-0.610317 9.78184,3.292541 -3.04898,-1.276894 -10.93463,1.568088 -9.78184,-3.292541 z"
           id="path25" />
        <path
           d="m 218.14214,-19.880579 c -0.48399,-4.627251 -1.01567,-9.210157 -0.0508,-15.07093 3.70189,1.542751 6.03464,10.302363 2.64543,14.024252 0.13385,-7.777048 -0.64564,0.03272 -2.5946,1.046678 z"
           id="path27" />
        <path
           d="m 174.82702,-12.039545 c 5.48437,0.364966 10.27201,1.326334 13.52491,3.5916185 -4.04933,-1.5885665 -13.79204,1.6728232 -13.52491,-3.5916185 z"
           id="path29" />
        <path
           d="m 300.381,-43.442436 c -1.26814,5.714137 4.09936,10.655334 -1.19621,14.971286 1.98845,-5.626504 -2.93651,-11.373021 1.19621,-14.971286 z"
           id="path31" />
        <path
           d="m 335.21138,-153.73973 c -0.92954,8.15587 0.0495,14.68559 0.80042,21.40876 -3.86724,-2.78787 -2.90189,-21.18543 -0.80042,-21.40876 z"
           id="path33" />
        <path
           d="m 210.76557,72.442187 c 2.4025,1.508145 13.40043,1.671604 11.02985,3.39226 -4.25527,0.07227 -12.9926,-2.017212 -11.02985,-3.39226 z"
           id="path35" />
        <path
           d="m 207.97153,75.984914 c 6.2037,1.243048 10.03171,1.169702 13.62454,2.344583 -3.1104,1.801995 -12.49879,1.18127 -13.62454,-2.344583 z"
           id="path37" />
        <path
           d="m 203.88957,158.52502 c -1.46367,-5.1349 -0.66545,-15.12507 1.59492,-19.96139 7.14885,-0.62962 16.26507,3.14643 19.96039,1.59482 2.43594,-46.784597 4.96398,-86.460295 9.51863,-134.8392146 6.29539,21.5277806 -0.0254,48.2803466 -0.98983,75.2542176 -1.54214,43.030867 -8.44458,86.981747 -2.28368,122.861417 5.05094,4.74736 19.27573,4.67708 22.65479,-0.70087 -6.22443,2.39386 -13.22094,-0.95502 -17.26599,-3.89052 0.46611,-8.09359 0.99766,-16.11473 4.1886,-21.00914 7.6693,0.82946 17.72629,-0.37637 18.31466,6.48529 1.19185,-31.90443 8.26925,-55.8468 8.12601,-85.982933 -5.87672,-0.1375 -17.00724,2.651863 -18.51401,-3.990243 5.18336,1.671138 13.46548,3.305971 18.71337,1.495189 5.9589,-28.940327 6.05422,-64.761539 14.76291,-90.4756109 -3.30905,62.1819819 -17.92552,127.8604879 -15.90121,183.2948179 4.37743,-0.32038 11.68423,2.79849 12.6756,-1.4982 -4.94043,0.33557 -7.15814,-1.65237 -9.78184,-3.29256 1.60893,-8.05845 -0.31196,-16.32268 1.69446,-21.2074 3.72956,1.08348 10.87343,-0.73933 12.37653,2.24487 -14.92869,-6.67622 -13.79592,16.43642 -6.58484,19.56069 8.72676,-5.97694 11.22451,-19.83603 13.81997,-31.5405 10.32368,-46.55465 8.41734,-110.936004 22.34168,-153.9024911 -5.16489,36.1033371 -8.11743,85.6746541 -12.16414,120.8159811 -0.82103,7.12424 -8.02661,21.94844 5.79059,21.80647 -4.25473,-3.73874 -2.93675,-12.22374 -2.14716,-20.26036 1.47058,-2.38446 8.67589,3.33558 11.32785,-0.34991 9.37557,-50.520754 23.35177,-112.4172506 24.58572,-166.281076 0.95388,-41.557044 6.69248,-82.229194 4.37993,-117.670974 -0.81836,-12.57111 -5.47617,-25.13902 -2.09934,-36.5784 5.9985,22.79517 6.17902,48.15812 5.24636,75.75149 -1.10962,32.808849 0.68077,69.550176 -3.08317,101.453734 -0.79224,6.701196 -4.14384,13.2671057 -5.33898,19.6622375 -9.68121,51.8476435 -10.2306,106.0580985 -29.32757,147.0683685 -3.80803,3.22596 -12.0413,0.71624 -15.17164,1.29877 -4.86295,21.92836 -3.95075,56.75363 -32.58116,46.36333 0.0485,5.97184 -2.53218,8.85345 -3.59168,13.52591 -6.57981,4.1421 -18.9202,7.13274 -29.09418,2.69633 -9.08148,-7.76396 -2.69179,-28.7116 -5.44463,-41.86865 -11.09848,6.6572 -26.70205,-0.39898 -31.93829,-8.8288 -3.68255,-32.13137 -1.09808,-69.600563 0.987,-106.645177 -6.09003,5.520498 -17.96143,8.667985 -29.19306,3.946433 -14.16285,-28.666078 -2.05633,-69.058161 -4.50169,-100.803772 -1.22116,-15.841584 -4.81794,-21.750831 -4.79474,-34.282794 0.10699,-54.72533 37.631,-62.14326 55.6836,-99.76295 2.36659,-4.93519 3.32416,-11.00621 5.038,-15.92032 1.21309,-3.46839 0.86327,-13.26538 8.58263,-13.12513 5.2401,0.50898 -3.32114,13.74315 -1.19628,14.97229 2.83624,-1.31896 7.91133,-12.69623 9.33238,-6.78929 -15.65722,34.3832 -60.7667,57.22398 -69.60531,101.162609 -4.51023,22.423002 0.94952,44.30236 0.85632,67.8678 -0.10422,25.989261 -6.13449,51.452857 0.25719,75.353866 2.66072,-5.063166 1.9518,-14.082279 4.08988,-19.761032 7.18573,0.465788 14.43067,0.881136 19.86168,2.842936 1.70043,7.080913 -1.58461,13.805635 -2.94258,21.108685 -5.80787,2.780291 -14.52697,1.291083 -19.01235,2.246888 47.70635,21.020386 18.52015,-103.625139 46.04815,-120.619641 -12.3269,31.661804 -13.88591,100.203365 -15.6043,148.164871 -1.2287,34.299098 -11.58865,102.212718 24.71016,83.586588 -4.85119,2.37015 -13.97612,-0.0667 -17.36631,-2.64755 z m 111.82864,-32.49856 c -2.09592,-1.31511 -6.19092,-0.92601 -7.28679,-3.09319 -2.08764,4.05561 -3.79529,10.6626 -2.44339,14.87365 8.3215,2.03323 7.81149,-6.29885 9.73018,-11.78046 z m -59.67787,55.49921 -13.72427,-1.09656 c -2.2639,4.16491 -2.01125,11.28566 -2.64357,17.36662 10.59642,9.18112 20.88913,-3.62579 16.36784,-16.27006 z m -34.63761,-37.92322 c -2.82448,-2.63031 -9.9622,-1.5875 -14.87164,-2.44323 l -1.09658,13.72427 c 6.73799,10.28834 21.9905,1.07186 15.96822,-11.28104 z M 185.36048,28.979707 c -3.61338,-1.960015 -9.4442,-2.031645 -14.87357,-2.44438 -0.17379,7.07163 -3.09841,10.917907 -2.74223,18.613719 3.62971,2.92338 12.21779,2.235194 15.07301,-0.05166 0.19738,-6.136771 2.95264,-9.269285 2.54279,-16.117683 z"
           id="path39" />
      </g>
    </g>
  </g>
</svg>
