<?xml version="1.0" encoding="UTF-8" standalone="no"?>
<!-- Created with Inkscape (http://www.inkscape.org/) -->

<svg
   width="39.700222mm"
   height="73.142982mm"
   viewBox="0 0 39.700221 73.142981"
   version="1.1"
   id="svg120"
   inkscape:version="1.1.1 (3bf5ae0d25, 2021-09-20)"
   sodipodi:docname="paper-hand.svg"
   xmlns:inkscape="http://www.inkscape.org/namespaces/inkscape"
   xmlns:sodipodi="http://sodipodi.sourceforge.net/DTD/sodipodi-0.dtd"
   xmlns="http://www.w3.org/2000/svg"
   xmlns:svg="http://www.w3.org/2000/svg">
  <sodipodi:namedview
     id="namedview122"
     pagecolor="#f66c6c"
     bordercolor="#999999"
     borderopacity="1"
     inkscape:pageshadow="0"
     inkscape:pageopacity="0"
     inkscape:pagecheckerboard="true"
     inkscape:document-units="mm"
     showgrid="false"
     inkscape:zoom="1.4681257"
     inkscape:cx="46.65813"
     inkscape:cy="197.87134"
     inkscape:window-width="1920"
     inkscape:window-height="1009"
     inkscape:window-x="-8"
     inkscape:window-y="-8"
     inkscape:window-maximized="1"
     inkscape:current-layer="layer1" />
  <defs
     id="defs117" />
  <g
     inkscape:label="Layer 1"
     inkscape:groupmode="layer"
     id="layer1"
     transform="translate(-94.873985,-34.314432)">
    <path
       style="display:inline;fill:#ffffff;stroke:none;stroke-width:0.187328"
       d="m 113.54584,105.15283 c -0.49741,-0.64672 -0.43889,-0.58491 0.20356,-0.24143 0.33447,0.17882 1.62674,1.16341 1.62961,1.04173 0.0105,-0.44408 -2.39963,-2.96183 -7.24766,-6.512555 -7.05851,-5.169692 -8.631124,-8.069894 -9.545836,-16.078655 -0.23421,-2.050611 -0.884844,-5.505403 -1.729975,-9.107004 -0.359241,-1.53094 -0.830999,-2.899592 -1.055558,-4.104932 -0.611122,-3.280207 -0.529089,-5.141269 -0.01741,-4.178218 0.169436,0.318909 0.747124,1.96089 0.839264,2.372999 l 0.303315,0.741069 1.566185,-0.462472 c 0.456506,-0.134801 1.649385,-0.5543 1.740755,-0.805288 0.0773,-0.212443 -0.896263,-2.459887 -1.142575,-3.1208 -0.03342,-0.08962 -3.272399,0.186727 -3.419464,-0.03361 -0.266599,-0.399334 2.552969,-1.18166 2.684098,-0.977719 0.124799,0.194097 1.695311,1.226966 1.854621,1.373274 0.59981,0.550868 1.42784,3.013395 2.69532,7.694015 0.1168,0.431323 0.16278,0.946219 0.29152,1.413738 1.63903,5.95228 2.24893,7.65908 3.32222,8.918663 0.46864,0.549994 1.12978,0.849416 1.12978,0.849416 0,0 -0.18354,-0.22643 -0.41152,-0.645797 -1.52589,-2.806839 -2.19471,-3.823909 -4.64938,-13.405403 -0.34958,-1.364542 -0.71339,-2.966781 -1.16153,-4.705085 -3.758314,-14.578399 -4.170132,-17.405486 -3.774591,-19.693753 0.110924,-0.641714 0.994229,-1.875369 1.081101,-1.897051 0.01673,-0.0042 0.75753,-0.295736 1.35623,-0.290576 0.77341,0.0067 1.44679,0.311231 1.44679,0.311231 0,0 -0.92732,-0.148595 -1.576787,0.22735 -0.805513,0.466274 -1.219574,1.466323 -1.185575,1.647687 0.109967,0.586582 0.337684,1.359617 0.406995,1.810517 l 0.381361,0.742127 1.438776,-0.447168 c 0,0 1.39014,-0.616088 1.95558,-0.490194 0.27039,0.153087 2.415,8.929682 2.415,8.929682 2.17237,9.225327 3.63855,14.259415 3.78942,14.008198 0.37487,-0.624242 -0.50919,-3.432596 -3.57053,-15.594498 -2.6746,-10.625445 -3.40656,-14.052705 -3.58153,-15.954675 -0.12536,-1.362666 -0.20156,-2.676934 -0.0447,-2.841522 0.15261,-0.160176 1.06741,-0.733691 1.76749,-0.767783 0.74158,-0.03611 2.09513,0.0039 2.14085,0.455124 l 1.51517,3.006557 c 0,0 1.05243,0.152574 3.36296,10.68527 0,0 1.04079,3.406202 0.89187,3.894864 0.33978,0.506237 0.86384,2.321608 3.05631,8.977803 1.32356,4.019901 2.6224,6.625488 2.6224,6.625488 0,0 -1.16806,-4.353091 -3.60561,-11.873277 -0.87123,-2.687881 -2.37193,-7.076574 -3.40616,-11.006318 -0.49377,-1.876164 -0.97782,-3.649133 -1.27761,-5.068327 -0.41017,-1.941707 -0.54689,-3.223594 -0.54689,-3.223594 0,0 0.49619,-0.229608 1.30372,-0.40644 0.69743,-0.152721 1.03427,0.09859 0.9551,0.251083 -0.0504,0.09701 -0.50127,0.06604 -0.75778,0.212083 0.69108,0.209626 0.71269,0.353763 1.28092,0.863843 1.58463,1.13989 3.29791,5.475041 6.40594,15.832375 1.28017,4.266082 2.67172,8.580221 3.06562,9.593652 1.10362,2.839429 2.07324,4.860823 2.07324,4.860823 0,0 -0.39757,-1.127161 -0.8379,-2.498153 -0.44034,-1.370982 -1.81875,-6.023714 -3.06609,-10.333386 -1.24735,-4.309672 -2.52037,-8.290138 -2.76754,-8.880869 -0.53483,-1.278242 -0.48927,-2.163072 -0.0944,-2.439606 0.098,-0.06862 0.721,-0.350786 0.94763,-0.307784 0.23918,0.04538 1.46052,1.014214 1.46052,1.014214 l 0.95288,2.18395 c 0,0 0.67705,1.944766 2.58049,6.718025 4.61983,11.691636 4.73955,11.976498 8.40952,26.709719 3.25502,13.067451 3.28402,13.736475 3.38203,16.361806 0.0561,1.50301 0.22203,3.116367 0.3451,3.611197 l 0.39596,1.16178 -6.39672,1.47259 c -3.38203,0.77857 -7.69035,2.15407 -9.65669,2.73034 l -4.10197,1.36332 c 0,0 -0.0874,-1.19211 -0.27469,-1.44864 -0.16985,-0.23269 -0.54246,-0.82506 -0.54246,-0.82506 z M 101.46122,74.007238 c 0,0 -0.37572,0.205731 -1.07775,0.319381 v 0 c -1.020183,0.266381 -1.126696,0.365114 -1.075217,0.539994 0.03798,0.129024 0.207886,0.148799 1.047757,-0.209286 0.55498,-0.236618 1.10521,-0.650089 1.10521,-0.650089 z"
       id="path1532"
       inkscape:label="handfil big"
       sodipodi:nodetypes="ssssssssscssssssssscsssssscssscccssssssccscccssscssccsscsssssccccsccsscssscccssc" />
    <path
       style="fill:#ffffff;stroke:none;stroke-width:0.187328"
       d="m 96.570997,67.048601 c -0.66955,-1.51629 -0.857316,-1.91302 0.529836,-2.242241 1.952014,-0.418151 1.624515,0.120848 2.243656,1.333928 0.916581,1.795892 0.342525,1.827565 -1.042839,2.179546 l -1.070009,0.224888 z"
       id="path1571"
       inkscape:label="path1571"
       sodipodi:nodetypes="scsccs" />
    <path
       style="fill:#ffffff;stroke:none;stroke-width:0.187328"
       d="m 104.55475,39.49753 c -12.414237,-0.491573 -6.207119,-0.245785 0,0 z"
       id="path1610"
       sodipodi:nodetypes="cc" />
    <path
       style="fill:#ffffff;stroke:none;stroke-width:0.187328"
       d="m 99.189653,46.122442 c -0.293439,-0.901584 -0.198729,-1.249355 0.145754,-1.561376 0.903193,-0.818077 2.771943,-0.551454 3.043203,1.397508 0.0753,0.541277 -0.34661,1.280669 -1.44689,1.36405 l -1.276343,0.230747 z"
       id="path1649"
       sodipodi:nodetypes="sssscs" />
    <g
       id="g115"
       transform="matrix(0.04949164,0.19829174,-0.19829174,0.04949164,149.16056,-64.035997)"
       style="display:inline">
      <g
         transform="matrix(0.04720033,-0.85917949,-0.85917949,-0.04720033,582.62711,551.3488)"
         id="g41">
        <path
           d="m 321.10092,58.658165 c 0.57456,-3.976869 -5.287,-2.470942 -4.49167,-6.636831 2.32892,-2.002867 7.82273,-0.764368 8.63353,1.944808 -0.9903,0.202766 -2.46395,-0.161761 -2.59477,1.048673 0.94463,0.356369 2.45745,0.23046 2.39542,1.446377 -1.80415,0.155797 -2.26853,1.887311 -3.94251,2.196973 z"
           id="path7" />
        <path
           d="m 327.87935,-26.178469 c -1.30528,-1.69334 -1.72107,-10.036959 0.8972,-11.229214 -0.82042,4.254177 5.64457,8.278867 1.59785,11.428563 -0.14282,-1.527224 -1.32318,-0.879183 -2.49505,-0.199349 z"
           id="path9" />
        <path
           d="m 320.10206,39.745526 c -1.12053,-1.996586 1.7975,-7.995236 4.53965,-9.683187 0.038,5.04905 -0.74933,9.127312 -4.53965,9.683187 z"
           id="path11" />
        <path
           d="m 278.68611,86.657944 c 2.82,1.393026 9.6733,5.31633 4.9901,0.398712 2.45798,-1.245177 10.38245,0.621897 9.58248,5.787596 -7.19642,-0.0684 -13.57347,-0.836738 -14.57258,-6.186308 z"
           id="path13" />
        <path
           d="m 335.05081,-86.893164 1.49519,-18.713366 c 0.92941,-0.67111 1.97122,29.958175 -1.49519,18.713366 z"
           id="path15" />
        <path
           d="m 243.71055,162.96369 c 1.96778,-0.16982 1.08387,-2.66715 0.29899,-3.74207 1.83944,3.47052 9.3078,2.14413 12.17725,4.73892 -2.00944,1.3693 -10.94151,1.59161 -12.47624,-0.99685 z"
           id="path17" />
        <path
           d="m 247.0978,89.155995 c 4.62764,1.48229 10.63623,1.789826 13.42411,4.840562 -5.66959,-0.595449 -11.61805,-0.952355 -13.42411,-4.840562 z"
           id="path19" />
        <path
           d="m 259.1145,-14.09492 c 1.40903,-6.987967 -0.70205,-18.10744 4.18959,-21.009054 -1.59675,9.563197 1.81869,16.624668 -4.18959,21.009054 z"
           id="path21" />
        <path
           d="m 207.83091,124.94123 c 1.68106,-1.6664 4.47919,-2.02062 7.68549,-1.8969 1.02064,2.23036 3.93803,2.84368 4.5904,5.38872 -3.69933,-1.49939 -12.86514,1.66063 -12.27589,-3.49182 z"
           id="path23" />
        <path
           d="m 212.66578,80.123942 c 3.74092,0.690133 9.81379,-0.610317 9.78184,3.292541 -3.04898,-1.276894 -10.93463,1.568088 -9.78184,-3.292541 z"
           id="path25" />
        <path
           d="m 218.14214,-19.880579 c -0.48399,-4.627251 -1.01567,-9.210157 -0.0508,-15.07093 3.70189,1.542751 6.03464,10.302363 2.64543,14.024252 0.13385,-7.777048 -0.64564,0.03272 -2.5946,1.046678 z"
           id="path27" />
        <path
           d="m 174.82702,-12.039545 c 5.48437,0.364966 10.27201,1.326334 13.52491,3.5916185 -4.04933,-1.5885665 -13.79204,1.6728232 -13.52491,-3.5916185 z"
           id="path29" />
        <path
           d="m 300.381,-43.442436 c -1.26814,5.714137 4.09936,10.655334 -1.19621,14.971286 1.98845,-5.626504 -2.93651,-11.373021 1.19621,-14.971286 z"
           id="path31" />
        <path
           d="m 335.21138,-153.73973 c -0.92954,8.15587 0.0495,14.68559 0.80042,21.40876 -3.86724,-2.78787 -2.90189,-21.18543 -0.80042,-21.40876 z"
           id="path33" />
        <path
           d="m 210.76557,72.442187 c 2.4025,1.508145 13.40043,1.671604 11.02985,3.39226 -4.25527,0.07227 -12.9926,-2.017212 -11.02985,-3.39226 z"
           id="path35" />
        <path
           d="m 207.97153,75.984914 c 6.2037,1.243048 10.03171,1.169702 13.62454,2.344583 -3.1104,1.801995 -12.49879,1.18127 -13.62454,-2.344583 z"
           id="path37" />
        <path
           d="m 203.88957,158.52502 c -1.46367,-5.1349 -0.66545,-15.12507 1.59492,-19.96139 7.14885,-0.62962 16.26507,3.14643 19.96039,1.59482 2.43594,-46.784597 4.96398,-86.460295 9.51863,-134.8392146 6.29539,21.5277806 -0.0254,48.2803466 -0.98983,75.2542176 -1.54214,43.030867 -8.44458,86.981747 -2.28368,122.861417 5.05094,4.74736 19.27573,4.67708 22.65479,-0.70087 -6.22443,2.39386 -13.22094,-0.95502 -17.26599,-3.89052 0.46611,-8.09359 0.99766,-16.11473 4.1886,-21.00914 7.6693,0.82946 17.72629,-0.37637 18.31466,6.48529 1.19185,-31.90443 8.26925,-55.8468 8.12601,-85.982933 -5.87672,-0.1375 -17.00724,2.651863 -18.51401,-3.990243 5.18336,1.671138 13.46548,3.305971 18.71337,1.495189 5.9589,-28.940327 6.05422,-64.761539 14.76291,-90.4756109 -3.30905,62.1819819 -17.92552,127.8604879 -15.90121,183.2948179 4.37743,-0.32038 11.68423,2.79849 12.6756,-1.4982 -4.94043,0.33557 -7.15814,-1.65237 -9.78184,-3.29256 1.60893,-8.05845 -0.31196,-16.32268 1.69446,-21.2074 3.72956,1.08348 10.87343,-0.73933 12.37653,2.24487 -14.92869,-6.67622 -13.79592,16.43642 -6.58484,19.56069 8.72676,-5.97694 11.22451,-19.83603 13.81997,-31.5405 10.32368,-46.55465 8.41734,-110.936004 22.34168,-153.9024911 -5.16489,36.1033371 -8.11743,85.6746541 -12.16414,120.8159811 -0.82103,7.12424 -8.02661,21.94844 5.79059,21.80647 -4.25473,-3.73874 -2.93675,-12.22374 -2.14716,-20.26036 1.47058,-2.38446 8.67589,3.33558 11.32785,-0.34991 9.37557,-50.520754 23.35177,-112.4172506 24.58572,-166.281076 0.95388,-41.557044 6.69248,-82.229194 4.37993,-117.670974 -0.81836,-12.57111 -5.47617,-25.13902 -2.09934,-36.5784 5.9985,22.79517 6.17902,48.15812 5.24636,75.75149 -1.10962,32.808849 0.68077,69.550176 -3.08317,101.453734 -0.79224,6.701196 -4.14384,13.2671057 -5.33898,19.6622375 -9.68121,51.8476435 -10.2306,106.0580985 -29.32757,147.0683685 -3.80803,3.22596 -12.0413,0.71624 -15.17164,1.29877 -4.86295,21.92836 -3.95075,56.75363 -32.58116,46.36333 0.0485,5.97184 -2.53218,8.85345 -3.59168,13.52591 -6.57981,4.1421 -18.9202,7.13274 -29.09418,2.69633 -9.08148,-7.76396 -2.69179,-28.7116 -5.44463,-41.86865 -11.09848,6.6572 -26.70205,-0.39898 -31.93829,-8.8288 -3.68255,-32.13137 -1.09808,-69.600563 0.987,-106.645177 -6.09003,5.520498 -17.96143,8.667985 -29.19306,3.946433 -14.16285,-28.666078 -2.05633,-69.058161 -4.50169,-100.803772 -1.22116,-15.841584 -4.81794,-21.750831 -4.79474,-34.282794 0.10699,-54.72533 37.631,-62.14326 55.6836,-99.76295 2.36659,-4.93519 3.32416,-11.00621 5.038,-15.92032 1.21309,-3.46839 0.86327,-13.26538 8.58263,-13.12513 5.2401,0.50898 -3.32114,13.74315 -1.19628,14.97229 2.83624,-1.31896 7.91133,-12.69623 9.33238,-6.78929 -15.65722,34.3832 -60.7667,57.22398 -69.60531,101.162609 -4.51023,22.423002 0.94952,44.30236 0.85632,67.8678 -0.10422,25.989261 -6.13449,51.452857 0.25719,75.353866 2.66072,-5.063166 1.9518,-14.082279 4.08988,-19.761032 7.18573,0.465788 14.43067,0.881136 19.86168,2.842936 1.70043,7.080913 -1.58461,13.805635 -2.94258,21.108685 -5.80787,2.780291 -14.52697,1.291083 -19.01235,2.246888 47.70635,21.020386 18.52015,-103.625139 46.04815,-120.619641 -12.3269,31.661804 -13.88591,100.203365 -15.6043,148.164871 -1.2287,34.299098 -11.58865,102.212718 24.71016,83.586588 -4.85119,2.37015 -13.97612,-0.0667 -17.36631,-2.64755 z m 111.82864,-32.49856 c -2.09592,-1.31511 -6.19092,-0.92601 -7.28679,-3.09319 -2.08764,4.05561 -3.79529,10.6626 -2.44339,14.87365 8.3215,2.03323 7.81149,-6.29885 9.73018,-11.78046 z m -59.67787,55.49921 -13.72427,-1.09656 c -2.2639,4.16491 -2.01125,11.28566 -2.64357,17.36662 10.59642,9.18112 20.88913,-3.62579 16.36784,-16.27006 z m -34.63761,-37.92322 c -2.82448,-2.63031 -9.9622,-1.5875 -14.87164,-2.44323 l -1.09658,13.72427 c 6.73799,10.28834 21.9905,1.07186 15.96822,-11.28104 z M 185.36048,28.979707 c -3.61338,-1.960015 -9.4442,-2.031645 -14.87357,-2.44438 -0.17379,7.07163 -3.09841,10.917907 -2.74223,18.613719 3.62971,2.92338 12.21779,2.235194 15.07301,-0.05166 0.19738,-6.136771 2.95264,-9.269285 2.54279,-16.117683 z"
           id="path39" />
      </g>
    </g>
  </g>
</svg>
