<?xml version="1.0" encoding="UTF-8" standalone="no"?>
<!-- Created with Inkscape (http://www.inkscape.org/) -->

<svg
   width="35.56707mm"
   height="50.356056mm"
   viewBox="0 0 35.56707 50.356057"
   version="1.1"
   id="svg1270"
   inkscape:version="1.1.1 (3bf5ae0d25, 2021-09-20)"
   sodipodi:docname="rock-hand.svg"
   xmlns:inkscape="http://www.inkscape.org/namespaces/inkscape"
   xmlns:sodipodi="http://sodipodi.sourceforge.net/DTD/sodipodi-0.dtd"
   xmlns="http://www.w3.org/2000/svg"
   xmlns:svg="http://www.w3.org/2000/svg">
  <sodipodi:namedview
     id="namedview1272"
     pagecolor="#e85858"
     bordercolor="#999999"
     borderopacity="1"
     inkscape:pageshadow="0"
     inkscape:pageopacity="0"
     inkscape:pagecheckerboard="true"
     inkscape:document-units="mm"
     showgrid="false"
     inkscape:snap-global="false"
     inkscape:zoom="2.8284271"
     inkscape:cx="45.608388"
     inkscape:cy="106.77312"
     inkscape:window-width="1023"
     inkscape:window-height="1000"
     inkscape:window-x="-7"
     inkscape:window-y="0"
     inkscape:window-maximized="0"
     inkscape:current-layer="layer2" />
  <defs
     id="defs1267" />
  <g
     inkscape:groupmode="layer"
     id="layer2"
     inkscape:label="Layer 2"
     transform="translate(-2.5164155,-6.0403846)">
    <path
       style="display:inline;fill:#ffffff;stroke:#ffffff;stroke-width:0.3175;stroke-miterlimit:4;stroke-dasharray:none;stroke-opacity:1"
       d="m 3.3805985,55.499523 c 0.2581602,-1.310451 1.1478885,-4.187406 2.1439156,-6.9324 2.264499,-6.240821 3.0043292,-8.87348 3.3293336,-11.84734 C 9.2171496,33.395499 8.9936385,31.371276 7.5185465,24.626752 6.4284404,19.642485 6.1460415,17.326437 6.3103924,14.718249 6.5126086,11.509137 7.431509,10.051057 9.8573744,9.0900232 14.142022,7.3926112 25.58758,6.402814 27.940053,7.5262558 c 0.616027,0.294189 1.165336,0.9562062 1.24823,1.5043447 l 0.06656,0.44012 -0.452459,0.1392404 -0.452458,0.1392401 0.565062,0.471514 c 1.089616,0.909228 0.943199,2.26015 -0.36495,3.367246 -0.931519,0.788353 -1.690726,1.01451 -2.806892,0.836135 -1.019201,-0.162879 -1.907736,0.01933 -2.519112,0.516577 -0.217194,0.176652 -0.715986,0.714412 -1.108427,1.195022 -1.037409,1.27049 -1.323933,1.422331 -2.165643,1.147665 -1.311744,-0.428047 -2.117606,-1.223404 -2.739201,-2.703492 -0.35745,-0.851127 -0.387805,-0.892821 -0.515413,-0.707927 -0.04916,0.07124 -0.04524,0.573954 0.113605,1.072683 0.414531,1.301563 0.08338,0.954868 -0.711314,-0.491955 -0.586911,-1.0685 -0.879991,-1.331902 -0.785304,-0.705783 0.05655,0.373927 0.03402,0.424388 -0.198788,0.445075 -0.907994,0.08072 -0.293809,0.857691 1.756325,2.221915 1.930455,1.284588 2.685014,1.913869 2.619438,2.184544 -0.133927,0.552804 -1.585507,1.032475 -2.676001,0.884275 -1.310628,-0.178117 -2.170768,-0.578681 -3.685322,-1.716245 l -1.373208,-1.031401 0.132816,0.548728 c 0.321108,1.326589 1.695268,2.228528 4.509223,2.959657 1.049501,0.272685 1.972203,0.539933 2.050446,0.593887 0.127673,0.08803 -0.02306,1.39303 -0.16242,1.406198 -0.03155,0.003 -0.678605,-0.176553 -1.437909,-0.398963 -0.759301,-0.222411 -1.418738,-0.360214 -1.465414,-0.306231 -0.209249,0.242013 0.370458,0.715471 1.416061,1.156525 1.475058,0.622207 1.492346,0.770462 0.171385,1.46968 -0.710256,0.375955 -1.030305,0.730075 -0.800298,0.885495 0.0471,0.03186 0.346955,-0.06864 0.666322,-0.223271 0.319368,-0.154633 1.804939,-0.774358 3.301269,-1.37717 4.241746,-1.70883 5.068943,-2.175269 8.013853,-4.518852 2.833276,-2.254744 3.760709,-2.727669 4.918166,-2.507917 1.125164,0.213623 2.364573,1.57574 2.54298,2.794749 0.06282,0.429249 0.344365,1.445207 0.224435,1.25611 -0.08467,-0.133506 -0.760564,-1.424273 -1.138077,-1.709905 l -0.686386,-0.519329 0.540508,0.667403 c 0.994687,1.22821 1.244804,2.336277 0.819055,3.628571 -0.338911,1.028715 -2.1638,3.626376 -3.693599,5.257707 -0.654294,0.697719 -1.310189,1.440857 -1.457544,1.651418 -0.368356,0.526359 -0.670975,1.454438 -0.935274,2.868313 -0.20875,1.116718 -0.284633,1.29551 -1.160847,2.735106 -0.904445,1.485978 -1.275477,2.351829 -1.068901,2.494402 0.05745,0.03965 0.47663,-0.600007 0.937872,-1.357506 0.544131,-0.893412 0.829085,-1.276304 0.908865,-1.221244 0.06392,0.04411 0.116226,0.580082 0.173189,1.039328 0.180256,1.453356 0.07063,3.041119 -0.295505,4.279923 -0.386084,1.306243 -0.433209,1.380197 -4.436131,6.961258 -1.897583,2.645696 -1.734008,2.26486 -2.646553,6.161746 -0.323204,1.380197 -0.633238,2.574473 -0.688964,2.653944 -0.114944,0.16375 -1.571528,0.201299 -1.641251,0.04224 -0.02497,-0.05696 0.117283,-0.408163 0.316117,-0.780441 0.669962,-1.25438 0.694778,-1.350775 0.35756,-1.388942 -0.366577,-0.04149 -1.03333,0.370603 -1.355954,0.83806 -0.233892,0.338892 -0.231315,0.345917 0.110582,0.300715 0.326582,-0.04318 0.346274,-0.03057 0.293362,0.187809 -0.03119,0.128755 -0.196118,0.317512 -0.366509,0.419452 -0.170388,0.101943 -0.370021,0.266964 -0.44363,0.366715 -0.08577,0.116266 -2.764727,0.183308 -7.462341,0.186777 -4.0306784,0.003 -7.3827427,-0.0079 -7.4490322,-0.0242 -0.066285,-0.0163 -0.059892,-0.337373 0.01421,-0.713526 z M 18.830015,54.025116 c 0.228461,-0.03455 0.457614,-0.124009 0.509233,-0.198802 0.05162,-0.07479 0.328391,-0.200188 0.615052,-0.278656 0.50702,-0.138792 0.524148,-0.15682 0.629651,-0.662763 0.05966,-0.28605 0.278346,-0.945334 0.485992,-1.465077 0.899808,-2.252242 0.379903,-2.13431 -0.678129,0.153825 -0.74474,1.6106 -1.014068,1.952838 -1.783243,2.266011 -0.435039,0.177128 -0.326202,0.268284 0.221445,0.185464 z M 18.358362,33.314403 c 0.350763,-0.415319 0.895261,-1.976302 0.708675,-2.031659 -0.235407,-0.06985 -0.994579,0.593565 -1.211817,1.058956 -0.224044,0.479962 -0.189409,1.192031 0.06158,1.266181 0.08527,0.02518 0.28396,-0.106876 0.441559,-0.293478 z m 4.033469,2.983904 c 0.472278,-0.392982 1.922518,-2.588628 2.12996,-3.224734 0.247834,-0.759963 0.0085,-0.637283 -0.862909,0.442371 -0.366625,0.454224 -0.869877,1.047226 -1.118343,1.317779 -0.427293,0.465281 -0.435145,0.490492 -0.14503,0.465649 0.286778,-0.02452 0.286055,-0.007 -0.01104,0.270059 -0.587359,0.547722 -0.58058,1.218107 0.0074,0.728876 z M 19.625894,29.6552 c 0.132341,-0.191752 0.74509,-0.856857 1.361662,-1.478009 0.616573,-0.621152 1.11192,-1.179131 1.100771,-1.239952 -0.06952,-0.379271 -1.347426,0.285743 -2.122654,1.104621 -0.436084,0.460637 -0.49974,0.572369 -0.347155,0.609336 0.141868,0.03437 0.09697,0.175489 -0.186517,0.586239 -0.281782,0.40828 -0.333303,0.568621 -0.210046,0.65369 0.111169,0.07673 0.240149,0.0014 0.403939,-0.235925 z m 1.640005,-3.307838 c 0.116655,-0.169024 0.737518,-0.603799 1.379696,-0.966167 1.14233,-0.644592 1.97295,-1.242879 1.944089,-1.40031 -0.02731,-0.14897 -2.296403,0.877181 -2.831778,1.280614 -0.332156,0.250295 -0.60696,0.564159 -0.723738,0.826605 -0.226738,0.509575 -0.06552,0.689946 0.231731,0.259258 z m 11.676878,-8.200288 c 0.193913,0.04762 0.405292,0.01018 0.469732,-0.0832 0.09761,-0.141436 0.01342,-0.223462 -0.504605,-0.491593 -0.615104,-0.318381 -0.980766,-0.383921 -1.1086,-0.198701 -0.08897,0.128912 0.704633,0.665734 1.143473,0.773486 z m -4.678933,-7.062979 c 0.143521,-0.20795 -0.146741,-0.964724 -0.462631,-1.2061728 -0.5199,-0.3973837 -0.632996,-0.144865 -0.229186,0.5117248 0.389423,0.633197 0.593031,0.83758 0.691817,0.694448 z"
       id="path2837"
       sodipodi:nodetypes="sssssssscccsssssssssssssssscsssssssscssssssscssssssssssssscssssssscssssssssssssssssssssssssssssssssssssssssssssssss" />
    <path
       style="display:inline;fill:#ffffff;stroke:#ffffff;stroke-width:0.194469;stroke-miterlimit:4;stroke-dasharray:none;stroke-opacity:1"
       d="m 30.593803,13.280869 c 0.04427,-0.06415 0.271712,-2.113261 0.345567,-3.113384 l 0.05467,-0.7402708 0.203316,0.045393 c 0.295979,0.066074 0.799972,0.3855062 1.45246,0.9205628 0.438517,0.359596 0.569322,0.487 0.556087,0.541631 -0.02927,0.120806 -0.169384,0.122559 -0.340784,0.0043 -0.208521,-0.143915 -0.441881,-0.207897 -0.551845,-0.151303 -0.124856,0.06426 -0.124777,0.06458 0.05433,0.220513 0.106148,0.09241 0.191094,0.222795 0.241469,0.370627 0.158303,0.464559 0.262699,0.652191 0.453599,0.815263 0.170495,0.14564 0.190499,0.184862 0.18709,0.366823 -0.0027,0.143027 -0.04708,0.275498 -0.149006,0.444521 -0.129972,0.215541 -0.173793,0.253583 -0.418128,0.362943 -0.352784,0.157906 -0.87589,0.195791 -1.454776,0.105363 -0.567435,-0.08864 -0.681975,-0.123496 -0.634045,-0.192943 z"
       id="path2876" />
  </g>
  <g
     inkscape:label="Layer 1"
     inkscape:groupmode="layer"
     id="layer1"
     transform="translate(-88.34494,-96.36361)">
    <g
       transform="matrix(-2.5413369e-4,-0.12047863,0.12047863,-2.5413369e-4,88.344941,146.6673)"
       fill-rule="evenodd"
       id="g61">
      <path
         d="m 0,129.734 c 5.056,1.287 3.347,9.338 10.379,8.649 2.95,-0.709 -0.364,-2.23 0,-5.189 4.51,2.985 8.768,6.223 8.649,13.838 C 12.094,144.742 7.204,140.403 0,138.383 Z"
         id="path43" />
      <path
         d="m 19.028,131.46 c 3.663,16.518 24.55,15.811 34.596,25.947 -11.769,-1.308 -20.868,-9.217 -29.407,-8.649 0.714,-8.21 -5.903,-9.088 -5.189,-17.298 z"
         id="path45" />
      <path
         d="m 247.36,153.95 c 9.951,-0.126 16.131,18.447 20.758,29.405 -8.991,-7.729 -11.192,-22.252 -20.758,-29.405 z"
         id="path47" />
      <path
         d="m 385.74,205.84 c 4.146,3.703 -5.014,8.726 -10.379,8.649 1.757,-4.586 7.999,-4.686 10.379,-8.649 z"
         id="path49" />
      <path
         d="m 321.74,243.9 c 4.889,3.89 -2.845,9.726 -3.46,13.838 -4.889,-3.89 2.842,-9.726 3.46,-13.838 z"
         id="path51" />
      <path
         d="m 0,153.95 c 10.402,3.682 40.146,8.392 53.624,13.838 40.282,16.275 58.092,66.777 124.55,51.894 -6.811,-5.875 -15.101,-10.27 -22.488,-15.567 13.222,1.081 20.92,12.012 34.596,17.297 7.584,2.931 18.474,2.089 27.677,6.92 11.564,6.071 21.198,19.362 32.866,27.677 24.197,17.243 40.023,31.271 64.002,6.919 -3.854,7.102 -9.293,12.617 -19.027,13.838 18.444,3.007 35.974,-11.953 36.325,-25.946 0.427,-16.97 -25.394,-39.572 -36.325,-57.084 -19.65,-31.474 -23.18,-54.689 -36.326,-79.57 5.988,-3.042 6.72,13.99 13.838,15.568 7.606,-5.078 5.466,-19.906 15.568,-22.487 -1.614,8.764 -4.848,15.91 -6.918,24.217 5.624,3.309 9.881,3.427 13.838,1.73 6.081,-24.971 9.578,-51.964 32.865,-55.354 -13.657,11.844 -36.839,46.024 -15.568,65.732 14.236,-11.135 18.784,-31.958 34.597,-41.515 3.048,6.002 -1.768,7.836 8.648,5.189 -5.946,5.585 -16.236,6.826 -20.757,13.838 2.43,2.873 9.672,-4.067 17.297,-1.73 -15.773,4.983 -27.891,13.624 -31.135,31.137 1.87,12.262 21.477,13.787 25.946,32.865 1.311,5.597 -2.26,12.064 -1.729,17.299 2.02,19.947 29.403,38.392 39.785,15.568 2.611,5.559 -0.23,6.872 5.189,6.919 8.24,-0.327 15.966,-9.178 17.298,-20.758 5.025,-43.669 -5.317,-129.16 -20.758,-152.22 C 381.861,41.777 370.484,34.865 358.072,32.867 299.827,23.487 240.402,53.523 185.092,53.624 116.643,53.749 58.112,15.278 0.002,5.189 V 0 c 28.95,8.619 55.573,15.987 83.03,24.217 25.389,7.61 52.703,19.662 83.03,22.488 34.634,3.226 63.573,-4.378 93.409,-10.379 44.027,-8.854 116.44,-25.423 136.65,13.838 10.15,19.708 10.938,52.111 13.839,74.381 3.635,27.895 10.597,61.064 5.189,83.03 -1.816,7.374 -10.973,14.042 -17.298,25.946 -5.971,11.24 -8.695,21.203 -15.568,25.947 -4.525,3.125 -12.553,0.71 -20.757,5.189 -8.051,4.396 -10.497,15.109 -22.488,19.028 -8.403,2.746 -20.753,1.121 -31.136,3.459 -12.255,2.761 -19.113,9.001 -27.677,8.649 -13.187,-0.541 -39.07,-11.738 -53.624,-22.488 -7.122,-5.26 -9.862,-15.02 -17.298,-20.757 C 181.945,231.443 126.511,234.907 96.863,221.411 74.723,211.331 64.072,185.845 46.699,178.167 33.102,172.16 11.332,173.103 -0.004,169.52 v -15.568 z m 364.99,102.06 c 3.907,-6.804 8.095,-2.571 12.109,-8.649 2.249,4.296 -5.075,7.179 0,8.649 4.095,-6.283 10.517,-10.24 12.108,-19.028 -11.298,-0.811 -22.458,-1.761 -32.867,-3.46 -2.915,8.062 -3.552,24.269 8.65,22.488 z"
         id="path53" />
      <path
         d="m 219.68,140.11 c 1.396,-5.323 10.558,10.831 10.379,1.729 6.086,5.444 12.56,10.504 13.838,20.758 -9.095,-6.473 -15.122,-16.014 -24.217,-22.487 z"
         id="path55" />
      <path
         d="m 164.33,162.6 c 1.46,-2.458 8.919,3.65 10.379,6.919 2.568,-0.755 -0.683,-2.213 0,-5.189 7.596,6.242 14.36,13.316 22.487,19.027 C 187.175,182.4 172.132,171.533 164.33,162.6 Z"
         id="path57" />
      <path
         d="m 207.58,138.38 c -6.535,-3.267 -16.759,-2.845 -19.027,-10.379 7.358,-3.752 17.359,2.874 19.027,10.379 z"
         id="path59" />
    </g>
  </g>
</svg>
