<?xml version="1.0" encoding="UTF-8" standalone="no"?>
<svg
   width="155"
   height="192"
   viewBox="0 0 155 192"
   fill="none"
   version="1.1"
   id="svg57"
   sodipodi:docname="paper-card.svg"
   inkscape:version="1.1.1 (3bf5ae0d25, 2021-09-20)"
   xmlns:inkscape="http://www.inkscape.org/namespaces/inkscape"
   xmlns:sodipodi="http://sodipodi.sourceforge.net/DTD/sodipodi-0.dtd"
   xmlns="http://www.w3.org/2000/svg"
   xmlns:svg="http://www.w3.org/2000/svg">
  <sodipodi:namedview
     id="namedview59"
     pagecolor="#ffffff"
     bordercolor="#999999"
     borderopacity="1"
     inkscape:pageshadow="0"
     inkscape:pageopacity="0"
     inkscape:pagecheckerboard="0"
     showgrid="false"
     inkscape:zoom="4.2916667"
     inkscape:cx="38.097087"
     inkscape:cy="60.466019"
     inkscape:window-width="1920"
     inkscape:window-height="1009"
     inkscape:window-x="-8"
     inkscape:window-y="760"
     inkscape:window-maximized="1"
     inkscape:current-layer="svg57" />
  <rect
     width="155"
     height="192"
     rx="19"
     fill="#232323"
     id="rect2" />
  <path
     d="M65.4316 18.4941L64.4352 18.5792L64.4365 18.5924L65.4316 18.4941ZM65.5195 19.1562L64.5426 19.3699L64.5458 19.3844L64.5494 19.3988L65.5195 19.1562ZM65.6426 19.4902L66.5326 19.0343L66.5298 19.0289L65.6426 19.4902ZM66.1348 20V21H69.2001L66.7245 19.1924L66.1348 20ZM63.6445 20L62.7501 19.5528L62.0265 21H63.6445V20ZM63.9785 18.6172L64.9761 18.686L64.9762 18.6848L63.9785 18.6172ZM63.9785 14.1816L62.9793 14.2216L62.9793 14.2218L63.9785 14.1816ZM63.9141 12.5703L62.9148 12.6087L62.9149 12.6103L63.9141 12.5703ZM63.8086 11.7207L62.8614 12.0413L62.8622 12.0438L63.8086 11.7207ZM63.3867 11.0352V10.0352H61.0379L62.6659 11.7283L63.3867 11.0352ZM68.5781 11.3164L68.1489 12.2196L68.1548 12.2224L68.5781 11.3164ZM68.4609 13.7539L67.8539 12.9592L67.8492 12.9629L68.4609 13.7539ZM67.5703 12.9688L68.4895 13.3627L68.4934 13.3534L67.5703 12.9688ZM67.6055 12.2246L66.6392 12.4823L66.6432 12.4972L66.6476 12.512L67.6055 12.2246ZM67.4121 11.9141L68.0892 11.1781L68.0837 11.1731L68.0781 11.1681L67.4121 11.9141ZM65.6602 11.7383L65.0355 10.9574L65.0293 10.9623L65.0233 10.9673L65.6602 11.7383ZM65.5078 13.5195L64.6758 14.0742L64.6801 14.0808L64.6846 14.0873L65.5078 13.5195ZM65.7773 13.7422L65.4502 14.6872L65.4667 14.6929L65.4833 14.698L65.7773 13.7422ZM66.832 13.666L66.4312 12.7498L66.4241 12.753L66.832 13.666ZM65.8359 13.4336C65.6067 13.4336 65.3585 13.487 65.1261 13.6266C64.8952 13.7653 64.7345 13.9564 64.6275 14.1492C64.4303 14.5046 64.3906 14.9091 64.3906 15.2363H66.3906C66.3906 15.1459 66.3971 15.0922 66.4018 15.067C66.4068 15.0397 66.406 15.0661 66.3764 15.1194C66.3437 15.1784 66.2757 15.2691 66.1562 15.3409C66.0351 15.4137 65.9167 15.4336 65.8359 15.4336V13.4336ZM64.3906 15.2363V15.9746H66.3906V15.2363H64.3906ZM64.3906 15.9746C64.3906 17.3164 64.4034 18.2064 64.4353 18.5792L66.428 18.4091C66.4052 18.1412 66.3906 17.3515 66.3906 15.9746H64.3906ZM64.4365 18.5924C64.4676 18.9074 64.5014 19.1813 64.5426 19.3699L66.4964 18.9426C66.483 18.8812 66.4582 18.7137 66.4268 18.3959L64.4365 18.5924ZM64.5494 19.3988C64.5965 19.5872 64.663 19.7739 64.7554 19.9516L66.5298 19.0289C66.5206 19.0113 66.5051 18.9753 66.4897 18.9137L64.5494 19.3988ZM64.7525 19.9461C64.9391 20.3103 65.2491 20.5915 65.5451 20.8076L66.7245 19.1924C66.6352 19.1272 66.5792 19.077 66.5465 19.0432C66.5128 19.0082 66.5173 19.0045 66.5326 19.0344L64.7525 19.9461ZM66.1348 19H63.6445V21H66.1348V19ZM64.539 20.4472C64.7066 20.112 64.8432 19.7609 64.8966 19.4138L62.9198 19.1097C62.9107 19.1688 62.8716 19.3099 62.7501 19.5528L64.539 20.4472ZM64.8966 19.4138C64.9325 19.1804 64.9588 18.9376 64.9761 18.686L62.9809 18.5484C62.967 18.7499 62.9464 18.9368 62.9198 19.1097L64.8966 19.4138ZM64.9762 18.6848C65.0097 18.1914 65.0254 17.5467 65.0254 16.7598H63.0254C63.0254 17.5275 63.0099 18.1211 62.9808 18.5495L64.9762 18.6848ZM65.0254 16.7598C65.0254 15.8076 65.0096 14.9346 64.9777 14.1415L62.9793 14.2218C63.0099 14.9833 63.0254 15.8291 63.0254 16.7598H65.0254ZM64.9777 14.1417L64.9133 12.5303L62.9149 12.6103L62.9793 14.2216L64.9777 14.1417ZM64.9133 12.5319C64.8977 12.1264 64.8618 11.7105 64.7549 11.3976L62.8622 12.0438C62.8575 12.0299 62.8696 12.0634 62.8836 12.1764C62.8966 12.2809 62.9077 12.4231 62.9148 12.6087L64.9133 12.5319ZM64.7558 11.4001C64.6203 10.9998 64.3995 10.6456 64.1076 10.342L62.6659 11.7283C62.7646 11.8309 62.825 11.9338 62.8614 12.0413L64.7558 11.4001ZM63.3867 12.0352H66.6621V10.0352H63.3867V12.0352ZM66.6621 12.0352C67.5178 12.0352 67.9665 12.1329 68.1489 12.2196L69.0074 10.4132C68.4007 10.1249 67.572 10.0352 66.6621 10.0352V12.0352ZM68.1548 12.2224C68.1892 12.2385 68.2041 12.2502 68.2073 12.253C68.2097 12.255 68.2056 12.2518 68.2006 12.2438C68.1957 12.2359 68.1959 12.2329 68.1979 12.2407C68.2001 12.2495 68.2051 12.2737 68.2051 12.3184H70.2051C70.2051 11.9322 70.1184 11.5382 69.8961 11.1829C69.6728 10.8261 69.3547 10.5755 69.0015 10.4104L68.1548 12.2224ZM68.2051 12.3184C68.2051 12.5571 68.1252 12.752 67.854 12.9592L69.0679 14.5486C69.7889 13.998 70.2051 13.2358 70.2051 12.3184H68.2051ZM67.8492 12.9629C67.5134 13.2225 66.8971 13.4336 65.8359 13.4336V15.4336C67.1029 15.4336 68.2366 15.1915 69.0727 14.545L67.8492 12.9629ZM68.002 14.0684C68.2004 13.8701 68.3723 13.6361 68.4895 13.3627L66.6512 12.5748C66.651 12.5752 66.6481 12.582 66.6389 12.5952C66.6295 12.6085 66.6136 12.6284 66.5878 12.6542L68.002 14.0684ZM68.4934 13.3534C68.5882 13.1257 68.6582 12.8644 68.6582 12.582H66.6582C66.6582 12.5573 66.6613 12.5441 66.6611 12.545C66.6609 12.5461 66.6578 12.5588 66.6472 12.5841L68.4934 13.3534ZM68.6582 12.582C68.6582 12.3626 68.6261 12.1467 68.5633 11.9373L66.6476 12.512C66.6551 12.5369 66.6582 12.5593 66.6582 12.582H68.6582ZM68.5717 11.9669C68.4869 11.6489 68.313 11.3841 68.0892 11.1781L66.7351 12.65C66.7233 12.6392 66.7042 12.6189 66.6848 12.5876C66.665 12.5559 66.6492 12.5198 66.6392 12.4823L68.5717 11.9669ZM68.0781 11.1681C67.5764 10.7201 66.8854 10.6211 66.2871 10.6211V12.6211C66.4967 12.6211 66.6336 12.6409 66.7148 12.6621C66.7961 12.6832 66.787 12.6965 66.7461 12.66L68.0781 11.1681ZM66.2871 10.6211C66.0929 10.6211 65.8936 10.6324 65.7064 10.6674C65.5393 10.6987 65.2729 10.7675 65.0355 10.9574L66.2849 12.5192C66.2078 12.5808 66.1412 12.6097 66.1113 12.6211C66.0798 12.6331 66.0644 12.6351 66.0739 12.6334C66.0821 12.6318 66.1035 12.6285 66.1413 12.6257C66.1786 12.623 66.2268 12.6211 66.2871 12.6211V10.6211ZM65.0233 10.9673C64.4781 11.4177 64.3906 12.1171 64.3906 12.6113H66.3906C66.3906 12.5367 66.3945 12.4789 66.3999 12.4359C66.4052 12.3925 66.4114 12.3698 66.4135 12.3629C66.4183 12.3474 66.3973 12.4264 66.297 12.5092L65.0233 10.9673ZM64.3906 12.6113C64.3906 12.8762 64.4009 13.1214 64.4281 13.3326C64.4495 13.4984 64.4981 13.8077 64.6758 14.0742L66.3399 12.9648C66.3734 13.0151 66.3929 13.057 66.403 13.0813C66.4135 13.1064 66.4184 13.1232 66.4197 13.1281C66.4219 13.1359 66.4176 13.122 66.4117 13.0766C66.3999 12.9851 66.3906 12.8348 66.3906 12.6113H64.3906ZM64.6846 14.0873C64.8496 14.3265 65.0972 14.565 65.4502 14.6872L66.1045 12.7972C66.2544 12.8491 66.3223 12.9391 66.331 12.9518L64.6846 14.0873ZM65.4833 14.698C65.7323 14.7746 66.0091 14.7891 66.2402 14.7891V12.7891C66.16 12.7891 66.1047 12.7859 66.07 12.7824C66.0314 12.7785 66.0377 12.776 66.0714 12.7864L65.4833 14.698ZM66.2402 14.7891C66.5847 14.7891 66.9218 14.7212 67.24 14.579L66.4241 12.753C66.3751 12.7749 66.3176 12.7891 66.2402 12.7891V14.7891ZM67.2329 14.5822C67.5128 14.4597 67.7774 14.2931 68.002 14.0684L66.5878 12.6542C66.5703 12.6718 66.5262 12.7083 66.4312 12.7499L67.2329 14.5822ZM74.2383 16.8711L75.2382 16.8867L75.2383 16.8789V16.8711H74.2383ZM74.2207 17.9961L73.2208 17.9805L73.2207 17.9883V17.9961H74.2207ZM74.4141 19.4258L73.5224 19.8785L73.5242 19.8821L74.4141 19.4258ZM74.6895 19.7773L75.3182 18.9997L75.3108 18.9938L75.3034 18.988L74.6895 19.7773ZM74.9648 20V21H77.7922L75.5936 19.2224L74.9648 20ZM73.2656 20L72.2995 20.2582L72.4978 21H73.2656V20ZM73.084 19.3203L74.0501 19.0621L73.5508 17.1937L72.3148 18.6812L73.084 19.3203ZM70.0723 19.6484L69.3248 20.3129L69.3336 20.3225L70.0723 19.6484ZM69.9668 17.6504L69.126 17.109L69.1208 17.1173L69.9668 17.6504ZM70.6875 16.9414L70.1605 16.0915L70.1535 16.0959L70.6875 16.9414ZM72.8965 16.373L72.9141 17.3729L73.8965 17.3556V16.373H72.8965ZM72.457 14.6387L72.9456 13.7662L72.9427 13.7645L72.457 14.6387ZM71.1094 15.1367L70.3181 14.5253L70.3148 14.5296L71.1094 15.1367ZM70.541 16.3672L70.0294 17.2264L71.1968 17.9216L71.5135 16.6003L70.541 16.3672ZM70.1133 14.375V13.375H69.3019L69.1347 14.169L70.1133 14.375ZM70.5352 14.3105L70.2376 13.3558L70.2273 13.3591L70.5352 14.3105ZM70.9863 14.1699L70.6905 13.2147L70.6888 13.2152L70.9863 14.1699ZM73.2891 14.1523L72.8418 15.0468L72.8474 15.0495L73.2891 14.1523ZM73.8809 14.709L74.7496 14.2137L74.7491 14.2128L73.8809 14.709ZM71.127 19.332L70.355 19.9677L70.3605 19.9744L70.3661 19.981L71.127 19.332ZM72.0352 19.4023L72.5171 20.2786L72.5254 20.274L72.5336 20.2693L72.0352 19.4023ZM72.457 19.0391L71.6923 18.3946L71.684 18.4047L72.457 19.0391ZM72.8965 16.9473H73.8965V15.8501L72.804 15.9515L72.8965 16.9473ZM71.543 17.4922L72.1988 18.2471L72.2032 18.2432L71.543 17.4922ZM73.2384 16.8555L73.2208 17.9805L75.2206 18.0117L75.2382 16.8867L73.2384 16.8555ZM73.2207 17.9961C73.2207 18.3724 73.2378 18.7143 73.2781 19.012C73.3165 19.2958 73.3841 19.6061 73.5224 19.8785L75.3057 18.9731C75.3151 18.9916 75.2861 18.9366 75.26 18.7439C75.2358 18.565 75.2207 18.3191 75.2207 17.9961H73.2207ZM73.5242 19.8821C73.6509 20.129 73.8273 20.3736 74.0755 20.5667L75.3034 18.988C75.3221 19.0026 75.3298 19.0126 75.3287 19.0113C75.3274 19.0095 75.3181 18.9973 75.3039 18.9695L73.5242 19.8821ZM74.0607 20.555L74.3361 20.7776L75.5936 19.2224L75.3182 18.9997L74.0607 20.555ZM74.9648 19H73.2656V21H74.9648V19ZM74.2317 19.7418L74.0501 19.0621L72.1179 19.5785L72.2995 20.2582L74.2317 19.7418ZM72.3148 18.6812C72.0987 18.9414 71.7764 19.1172 71.1973 19.1172V21.1172C72.251 21.1172 73.1865 20.7617 73.8531 19.9594L72.3148 18.6812ZM71.1973 19.1172C70.9825 19.1172 70.8867 19.0574 70.811 18.9744L69.3336 20.3225C69.8281 20.8645 70.4823 21.1172 71.1973 21.1172V19.1172ZM70.8197 18.9841C70.7355 18.8893 70.6973 18.7949 70.6973 18.6523H68.6973C68.6973 19.2754 68.9091 19.845 69.3249 20.3128L70.8197 18.9841ZM70.6973 18.6523C70.6973 18.4319 70.7469 18.2882 70.8128 18.1835L69.1208 17.1173C68.8273 17.5829 68.6973 18.1071 68.6973 18.6523H70.6973ZM70.8076 18.1917C70.9095 18.0335 71.0434 17.8994 71.2215 17.7869L70.1535 16.0959C69.7379 16.3584 69.3913 16.697 69.126 17.1091L70.8076 18.1917ZM71.2144 17.7913C71.6092 17.5465 72.1569 17.3862 72.9141 17.3729L72.8789 15.3732C71.8626 15.3911 70.9376 15.6097 70.1606 16.0915L71.2144 17.7913ZM73.8965 16.373V16.3086H71.8965V16.373H73.8965ZM73.8965 16.3086C73.8965 15.7959 73.8583 15.3222 73.7537 14.9247C73.6577 14.5599 73.4508 14.049 72.9456 13.7662L71.9684 15.5112C71.8579 15.4493 71.8074 15.3755 71.7955 15.3559C71.7854 15.3394 71.7993 15.3567 71.8195 15.4337C71.8614 15.5928 71.8965 15.8721 71.8965 16.3086H73.8965ZM72.9427 13.7645C72.6417 13.5973 72.3215 13.5508 72.0469 13.5508V15.5508C72.074 15.5508 72.0785 15.5533 72.0659 15.5506C72.0526 15.5477 72.0175 15.5385 71.9714 15.5128L72.9427 13.7645ZM72.0469 13.5508C71.6485 13.5508 71.2947 13.6863 71 13.8828L72.1094 15.5469C72.1276 15.5348 72.1301 15.5361 72.117 15.5405C72.1026 15.5453 72.078 15.5508 72.0469 15.5508V13.5508ZM71 13.8828C70.7369 14.0582 70.5106 14.2762 70.3181 14.5253L71.9007 15.7482C71.9738 15.6535 72.0443 15.5903 72.1094 15.5469L71 13.8828ZM70.3148 14.5296C69.9554 14.9999 69.7107 15.5409 69.5686 16.1341L71.5135 16.6003C71.5979 16.2482 71.7321 15.9689 71.904 15.7438L70.3148 14.5296ZM71.0527 15.508C71.0565 15.5103 71.0636 15.5157 71.0695 15.5226C71.0751 15.529 71.0725 15.5284 71.0657 15.513C71.0503 15.4777 71.0195 15.3786 71.0195 15.1777H69.0195C69.0195 15.9429 69.255 16.7652 70.0294 17.2264L71.0527 15.508ZM71.0195 15.1777C71.0195 15.0244 71.0399 14.8275 71.0918 14.581L69.1347 14.169C69.0616 14.5162 69.0195 14.8545 69.0195 15.1777H71.0195ZM70.1133 15.375C70.3596 15.375 70.6046 15.3391 70.843 15.262L70.2273 13.3591C70.2001 13.3679 70.1638 13.375 70.1133 13.375V15.375ZM70.8327 15.2652L71.2839 15.1246L70.6888 13.2152L70.2376 13.3558L70.8327 15.2652ZM71.2822 15.1252C71.6369 15.0153 71.9688 14.9648 72.2812 14.9648V12.9648C71.75 12.9648 71.2186 13.0511 70.6905 13.2147L71.2822 15.1252ZM72.2812 14.9648C72.6201 14.9648 72.7834 15.0175 72.8418 15.0468L73.7363 13.2579C73.2947 13.0371 72.7861 12.9648 72.2812 12.9648V14.9648ZM72.8474 15.0495C72.922 15.0862 72.9708 15.132 73.0126 15.2051L74.7491 14.2128C74.5096 13.7938 74.164 13.4684 73.7307 13.2552L72.8474 15.0495ZM73.0121 15.2042C73.1111 15.3779 73.2383 15.8666 73.2383 16.8711H75.2383C75.2383 15.8287 75.1272 14.876 74.7496 14.2137L73.0121 15.2042ZM69.9629 18.7695C69.9629 19.1505 70.0482 19.5952 70.355 19.9677L71.8989 18.6963C71.9412 18.7477 71.9584 18.793 71.9639 18.8118C71.9686 18.8277 71.9629 18.8176 71.9629 18.7695H69.9629ZM70.3661 19.981C70.6609 20.3265 71.0752 20.5312 71.5488 20.5312V18.5312C71.6005 18.5312 71.6707 18.5424 71.7444 18.5772C71.817 18.6115 71.8638 18.6549 71.8878 18.6831L70.3661 19.981ZM71.5488 20.5312C71.8957 20.5312 72.2226 20.4405 72.5171 20.2786L71.5532 18.5261C71.5419 18.5324 71.5378 18.533 71.5402 18.5324C71.5411 18.5322 71.5427 18.5318 71.5446 18.5316C71.5466 18.5313 71.5481 18.5312 71.5488 18.5312V20.5312ZM72.5336 20.2693C72.8041 20.1137 73.0356 19.9105 73.2301 19.6734L71.684 18.4047C71.6285 18.4723 71.5787 18.5113 71.5367 18.5354L72.5336 20.2693ZM73.2217 19.6835C73.6717 19.1495 73.8965 18.511 73.8965 17.8145H71.8965C71.8965 18.0554 71.8283 18.2334 71.6923 18.3947L73.2217 19.6835ZM73.8965 17.8145V16.9473H71.8965V17.8145H73.8965ZM72.804 15.9515C72.0817 16.0186 71.4213 16.2677 70.8827 16.7411L72.2032 18.2432C72.3756 18.0917 72.6175 17.9775 72.9889 17.943L72.804 15.9515ZM70.8872 16.7373C70.2802 17.2646 69.9629 17.9665 69.9629 18.7695H71.9629C71.9629 18.5413 72.0323 18.3917 72.1988 18.2471L70.8872 16.7373ZM77.127 14.457L76.1394 14.6141L76.4 16.2523L77.727 15.257L77.127 14.457ZM80.5898 15.1191L81.5279 14.7728L81.5275 14.7717L80.5898 15.1191ZM80.5957 17.2051L79.6243 16.9674L79.6226 16.9749L80.5957 17.2051ZM79.6758 18.9629L78.9561 18.2685L78.9498 18.2751L79.6758 18.9629ZM78.9844 19.5195L78.4738 18.6597L78.4689 18.6626L78.9844 19.5195ZM77.3906 19.9941L77.3629 18.9945L76.354 19.0226L76.3913 20.0312L77.3906 19.9941ZM77.4258 20.6152L76.4287 20.6919L76.4294 20.7006L76.4302 20.7092L77.4258 20.6152ZM77.4844 21.2363L78.481 21.1533L78.48 21.1424L77.4844 21.2363ZM77.8477 22.3086L77.031 22.8857L77.0371 22.8944L77.0435 22.903L77.8477 22.3086ZM78.0469 22.5781V23.5781H80.0295L78.8511 21.9837L78.0469 22.5781ZM75.9082 22.5781L74.9482 22.2981L74.5749 23.5781H75.9082V22.5781ZM76.0957 21.4531L75.097 21.4011L75.0966 21.4115L76.0957 21.4531ZM76.1367 20.4863L75.1377 20.4423L75.1374 20.4498L75.1371 20.4574L76.1367 20.4863ZM76.1602 19.6602L75.1604 19.6366L75.1603 19.6465L76.1602 19.6602ZM76.0312 14.9609L75.0685 15.2312L75.0689 15.2329L76.0312 14.9609ZM75.791 14.4277L74.9764 15.0077L74.9808 15.0139L74.9854 15.0201L75.791 14.4277ZM75.5449 14.082V13.082H73.6056L74.7303 14.662L75.5449 14.082ZM77.1211 14.082L78.0789 14.3694L78.4651 13.082H77.1211V14.082ZM77.7129 14.9258L78.5115 15.5276L78.5129 15.5258L77.7129 14.9258ZM77.4082 16.0332L78.4081 16.048L78.4082 16.0406V16.0332H77.4082ZM77.3672 18.8105L76.3673 18.7958L76.3672 18.8032V18.8105H77.3672ZM77.373 19.4551L76.3737 19.4908L76.4137 20.6121L77.5231 20.4438L77.373 19.4551ZM78.75 18.4355L79.6105 18.945L79.6125 18.9416L78.75 18.4355ZM77.727 15.257C77.9588 15.0831 78.2832 14.9648 78.7676 14.9648V12.9648C77.9395 12.9648 77.1701 13.1747 76.527 13.657L77.727 15.257ZM78.7676 14.9648C79.0976 14.9648 79.2823 15.033 79.3853 15.0982C79.4784 15.1571 79.5744 15.2569 79.6522 15.4666L81.5275 14.7717C81.3201 14.2119 80.9699 13.7345 80.4555 13.4086C79.9511 13.0891 79.3672 12.9648 78.7676 12.9648V14.9648ZM79.6517 15.4655C79.6911 15.572 79.7305 15.7651 79.7305 16.0801H81.7305C81.7305 15.6216 81.6761 15.1741 81.5279 14.7728L79.6517 15.4655ZM79.7305 16.0801C79.7305 16.3838 79.6949 16.679 79.6244 16.9674L81.567 17.4427C81.6762 16.9968 81.7305 16.542 81.7305 16.0801H79.7305ZM79.6226 16.9749C79.554 17.2647 79.4612 17.5105 79.3501 17.7189L81.1148 18.66C81.3162 18.2825 81.4655 17.8721 81.5688 17.4353L79.6226 16.9749ZM79.3501 17.7189C79.2343 17.936 79.1021 18.1172 78.9562 18.2685L80.3954 19.6573C80.6791 19.3632 80.9181 19.0288 81.1148 18.66L79.3501 17.7189ZM78.9498 18.2751C78.7989 18.4344 78.6402 18.5609 78.4738 18.6597L79.4949 20.3794C79.8286 20.1813 80.1308 19.9367 80.4017 19.6506L78.9498 18.2751ZM78.4689 18.6626C78.1108 18.8781 77.7467 18.9839 77.3629 18.9945L77.4184 20.9938C78.1595 20.9732 78.858 20.7626 79.4999 20.3764L78.4689 18.6626ZM76.3913 20.0312C76.3996 20.2549 76.412 20.4751 76.4287 20.6919L78.4228 20.5385C78.4083 20.3491 78.3973 20.1553 78.3899 19.9571L76.3913 20.0312ZM76.4302 20.7092L76.4888 21.3303L78.48 21.1424L78.4214 20.5213L76.4302 20.7092ZM76.4878 21.3194C76.5351 21.8868 76.7038 22.4227 77.031 22.8857L78.6643 21.7315C78.5775 21.6086 78.504 21.4296 78.4809 21.1533L76.4878 21.3194ZM77.0435 22.903L77.2427 23.1725L78.8511 21.9837L78.6518 21.7142L77.0435 22.903ZM78.0469 21.5781H75.9082V23.5781H78.0469V21.5781ZM76.8682 22.8581C76.9993 22.4087 77.0757 21.9537 77.0948 21.4948L75.0966 21.4115C75.0844 21.7025 75.0359 21.9975 74.9482 22.2981L76.8682 22.8581ZM77.0943 21.5051C77.1141 21.1252 77.1282 20.7948 77.1363 20.5153L75.1371 20.4574C75.1296 20.7169 75.1163 21.0311 75.0971 21.4011L77.0943 21.5051ZM77.1357 20.5304C77.1479 20.254 77.156 19.9684 77.1601 19.6739L75.1603 19.6465C75.1565 19.9222 75.1489 20.1874 75.1377 20.4423L77.1357 20.5304ZM77.1599 19.6837C77.1756 19.0141 77.1836 18.424 77.1836 17.9141H75.1836C75.1836 18.4042 75.1759 18.978 75.1604 19.6366L77.1599 19.6837ZM77.1836 17.9141C77.1836 17.1014 77.1708 16.4338 77.1442 15.9172C77.1192 15.4335 77.079 14.9912 76.9936 14.689L75.0689 15.2329C75.0688 15.2324 75.0701 15.2371 75.0726 15.2483C75.075 15.2593 75.078 15.2746 75.0815 15.2948C75.0885 15.3358 75.0963 15.3903 75.1043 15.4603C75.1202 15.6011 75.1348 15.7863 75.1468 16.0203C75.171 16.488 75.1836 17.1173 75.1836 17.9141H77.1836ZM76.994 14.6907C76.9111 14.3952 76.7881 14.0957 76.5967 13.8353L74.9854 15.0201C74.9854 15.0201 74.9855 15.0204 74.9859 15.0209C74.9862 15.0214 74.9867 15.0221 74.9874 15.0231C74.9887 15.0252 74.9906 15.0283 74.9931 15.0325C74.9979 15.041 75.0046 15.0538 75.0126 15.0714C75.0288 15.1073 75.0483 15.1593 75.0685 15.2312L76.994 14.6907ZM76.6057 13.8478L76.3596 13.5021L74.7303 14.662L74.9764 15.0077L76.6057 13.8478ZM75.5449 15.082H77.1211V13.082H75.5449V15.082ZM76.1633 13.7947C76.0701 14.1053 76.1093 14.4251 76.1394 14.6141L78.1145 14.2999C78.1103 14.2734 78.1078 14.2532 78.1064 14.2387C78.1049 14.224 78.1048 14.2178 78.1049 14.2188C78.1049 14.2193 78.1051 14.2322 78.1027 14.2546C78.1004 14.2762 78.0947 14.3168 78.0789 14.3694L76.1633 13.7947ZM80.2656 16.2324C80.2656 15.62 80.1936 15.0108 79.9458 14.5202C79.8146 14.2607 79.6204 14.0073 79.3384 13.8212C79.0507 13.6313 78.7305 13.5508 78.416 13.5508V15.5508C78.3848 15.5508 78.3124 15.5403 78.237 15.4906C78.1674 15.4447 78.1502 15.4014 78.1607 15.4221C78.1732 15.447 78.2022 15.5188 78.2264 15.6628C78.2502 15.8041 78.2656 15.9915 78.2656 16.2324H80.2656ZM78.416 13.5508C77.7818 13.5508 77.2651 13.8562 76.9129 14.3258L78.5129 15.5258C78.5342 15.4974 78.5327 15.5094 78.4999 15.5269C78.4843 15.5352 78.4669 15.5418 78.4495 15.5461C78.4323 15.5502 78.4203 15.5508 78.416 15.5508V13.5508ZM76.9143 14.3239C76.5382 14.823 76.4082 15.43 76.4082 16.0332H78.4082C78.4082 15.6989 78.4814 15.5676 78.5115 15.5276L76.9143 14.3239ZM76.4083 16.0184L76.3673 18.7958L78.3671 18.8253L78.4081 16.048L76.4083 16.0184ZM76.3672 18.8105V19.1328H78.3672V18.8105H76.3672ZM76.3672 19.1328C76.3672 19.2506 76.3694 19.3699 76.3737 19.4908L78.3724 19.4194C78.3689 19.3215 78.3672 19.2259 78.3672 19.1328H76.3672ZM77.5231 20.4438C78.4473 20.3035 79.1406 19.7387 79.6105 18.945L77.8895 17.9261C77.6563 18.3199 77.4316 18.4348 77.223 18.4664L77.5231 20.4438ZM79.6125 18.9416C80.0694 18.1628 80.2656 17.2411 80.2656 16.2324H78.2656C78.2656 16.9894 78.1181 17.5364 77.8875 17.9295L79.6125 18.9416ZM86.1211 18.0078L86.6758 17.1758L85.7026 16.5269L85.2129 17.5892L86.1211 18.0078ZM85.9102 19.6016L85.2121 18.8856L85.211 18.8866L85.9102 19.6016ZM82.3945 19.1914L81.5761 19.766L81.5787 19.7697L82.3945 19.1914ZM82.5996 14.7324L83.317 15.4291L83.3176 15.4285L82.5996 14.7324ZM85.998 14.4805L86.7205 13.789L86.7173 13.7857L85.998 14.4805ZM86.1797 16.3965L85.2804 15.959L85.278 15.9642L86.1797 16.3965ZM85.5703 17.1348L84.9612 16.3417L84.9579 16.3442L85.5703 17.1348ZM83.2441 17.8145L83.2206 16.8147L82.1369 16.8402L82.2496 17.9184L83.2441 17.8145ZM83.9824 19.3906L83.4388 20.23L83.4484 20.2361L83.9824 19.3906ZM83.209 17.2578H82.209V18.3265L83.2753 18.2556L83.209 17.2578ZM84.6855 14.6211L85.186 13.7554L85.1753 13.7491L85.1644 13.7432L84.6855 14.6211ZM83.918 14.6797L83.4069 13.8201L83.3965 13.8264L83.918 14.6797ZM83.5488 15.1016L82.6689 14.6264L82.666 14.6318L83.5488 15.1016ZM85.5664 18.8399C85.466 18.773 85.3969 18.6808 85.3602 18.5951C85.3281 18.5203 85.332 18.4779 85.332 18.5H87.332C87.332 18.0725 87.1945 17.5216 86.6758 17.1758L85.5664 18.8399ZM85.332 18.5C85.332 18.6422 85.3125 18.7281 85.2961 18.7744L87.1805 19.4444C87.289 19.1391 87.332 18.8188 87.332 18.5H85.332ZM85.2961 18.7744C85.2928 18.7837 85.2774 18.8219 85.2121 18.8856L86.6083 20.3176C86.8554 20.0766 87.0588 19.7867 87.1805 19.4444L85.2961 18.7744ZM85.211 18.8866C85.1175 18.978 84.8822 19.1172 84.3047 19.1172V21.1172C85.1647 21.1172 85.9997 20.9126 86.6093 20.3166L85.211 18.8866ZM84.3047 19.1172C83.7533 19.1172 83.4385 18.935 83.2104 18.6131L81.5787 19.7697C82.2255 20.6822 83.1842 21.1172 84.3047 21.1172V19.1172ZM83.2129 18.6168C82.9826 18.2888 82.8145 17.7693 82.8145 16.959H80.8145C80.8145 18.0237 81.033 18.9925 81.5761 19.766L83.2129 18.6168ZM82.8145 16.959C82.8145 16.2034 83.0186 15.7364 83.317 15.4291L81.8822 14.0358C81.1338 14.8065 80.8145 15.824 80.8145 16.959H82.8145ZM83.3176 15.4285C83.5901 15.1474 83.9829 14.9648 84.6152 14.9648V12.9648C83.5522 12.9648 82.6013 13.294 81.8816 14.0364L83.3176 15.4285ZM84.6152 14.9648C85.0016 14.9648 85.1776 15.0704 85.2788 15.1752L86.7173 13.7857C86.1545 13.203 85.4086 12.9648 84.6152 12.9648V14.9648ZM85.2756 15.1719C85.3697 15.2702 85.3906 15.3427 85.3906 15.4297H87.3906C87.3906 14.7979 87.1499 14.2376 86.7205 13.789L85.2756 15.1719ZM85.3906 15.4297C85.3906 15.6498 85.348 15.8201 85.2805 15.959L87.0789 16.834C87.2926 16.3947 87.3906 15.9205 87.3906 15.4297H85.3906ZM85.278 15.9642C85.2141 16.0973 85.1157 16.223 84.9612 16.3417L86.1795 17.9278C86.564 17.6325 86.8718 17.2659 87.0814 16.8288L85.278 15.9642ZM84.9579 16.3442C84.6299 16.5983 84.09 16.7943 83.2206 16.8147L83.2677 18.8142C84.3904 18.7878 85.4014 18.5306 86.1827 17.9253L84.9579 16.3442ZM82.2496 17.9184C82.3438 18.8206 82.6525 19.7207 83.4388 20.23L84.526 18.5513C84.4921 18.5293 84.3085 18.3786 84.2387 17.7105L82.2496 17.9184ZM83.4484 20.2361C83.8087 20.4636 84.2118 20.5312 84.5742 20.5312V18.5312C84.5131 18.5312 84.4817 18.5253 84.4729 18.5232C84.4652 18.5214 84.4842 18.5248 84.5164 18.5451L83.4484 20.2361ZM84.5742 20.5312C85.1794 20.5312 85.6743 20.2171 86.0402 19.877L84.6785 18.4121C84.5911 18.4934 84.5353 18.5266 84.5132 18.5375C84.4945 18.5467 84.5181 18.5312 84.5742 18.5312V20.5312ZM86.0402 19.877C86.4461 19.4997 86.7669 18.9956 87.0293 18.4264L85.2129 17.5892C85.0144 18.02 84.8274 18.2737 84.6785 18.4121L86.0402 19.877ZM83.2753 18.2556C84.0268 18.2057 84.7534 17.9893 85.2933 17.4664C85.8495 16.9279 86.0605 16.2083 86.0605 15.4648H84.0605C84.0605 15.8347 83.963 15.9706 83.902 16.0297C83.8247 16.1045 83.6255 16.2279 83.1427 16.26L83.2753 18.2556ZM86.0605 15.4648C86.0605 14.866 85.8722 14.152 85.186 13.7554L84.185 15.4868C84.1554 15.4697 84.1252 15.4457 84.0992 15.4161C84.0735 15.387 84.0595 15.3611 84.053 15.3466C84.047 15.333 84.0491 15.333 84.0527 15.353C84.0563 15.3732 84.0605 15.4093 84.0605 15.4648H86.0605ZM85.1644 13.7432C84.8814 13.5888 84.5852 13.5508 84.3457 13.5508V15.5508C84.362 15.5508 84.356 15.5523 84.3335 15.5476C84.3106 15.5429 84.2644 15.5304 84.2067 15.499L85.1644 13.7432ZM84.3457 13.5508C83.9928 13.5508 83.6756 13.6604 83.4069 13.8202L84.429 15.5392C84.4402 15.5326 84.4377 15.5357 84.4219 15.5405C84.4051 15.5455 84.3787 15.5508 84.3457 15.5508V13.5508ZM83.3965 13.8264C83.0616 14.0311 82.8303 14.3276 82.6689 14.6264L84.4287 15.5767C84.4524 15.5329 84.4686 15.5129 84.4728 15.5081C84.4764 15.504 84.4663 15.5166 84.4394 15.533L83.3965 13.8264ZM82.666 14.6318C82.3218 15.2787 82.209 16.1385 82.209 17.0762H84.209C84.209 16.2326 84.3227 15.776 84.4316 15.5713L82.666 14.6318ZM82.209 17.0762V17.2578H84.209V17.0762H82.209ZM87.7617 20L86.8016 19.7205L86.4291 21H87.7617V20ZM87.7734 14.627L86.8578 15.0289L86.8581 15.0297L87.7734 14.627ZM87.3984 14.082V13.082H85.1787L86.6494 14.7446L87.3984 14.082ZM89.4785 14.082L90.44 14.3568L90.8042 13.082H89.4785V14.082ZM89.3086 15.0957L88.3136 14.9962L87.9758 18.3737L90.0908 15.7188L89.3086 15.0957ZM91.459 13.7305L92.3817 13.345L91.6994 11.7116L90.6526 13.1391L91.459 13.7305ZM91.6172 15.1484L92.6095 15.2725L92.6098 15.27L91.6172 15.1484ZM91.5117 15.6992L92.4789 15.9532L92.4793 15.9516L91.5117 15.6992ZM91.1074 16.6016L90.125 16.788L90.5363 18.9557L91.8952 17.2175L91.1074 16.6016ZM90.4336 15.2656L90.036 16.1832L90.044 16.1866L90.4336 15.2656ZM89.4023 15.8867L90.2598 16.4012L90.2624 16.3968L89.4023 15.8867ZM89.2266 16.2617L88.2836 15.9289L88.234 16.0694L88.2275 16.2183L89.2266 16.2617ZM89.4902 20V21H90.8229L90.4504 19.7205L89.4902 20ZM88.7219 20.2795C88.9452 19.5125 89.0312 18.3245 89.0312 16.8184H87.0312C87.0312 18.32 86.9376 19.2532 86.8016 19.7205L88.7219 20.2795ZM89.0312 16.8184C89.0312 15.7583 88.9553 14.8299 88.6888 14.2242L86.8581 15.0297C86.9353 15.2052 87.0312 15.7377 87.0312 16.8184H89.0312ZM88.6891 14.225C88.5607 13.9326 88.3624 13.6625 88.1474 13.4195L86.6494 14.7446C86.7939 14.9079 86.8455 15.001 86.8578 15.0289L88.6891 14.225ZM87.3984 15.082H89.4785V13.082H87.3984V15.082ZM88.517 13.8073C88.423 14.1364 88.359 14.5416 88.3136 14.9962L90.3036 15.1952C90.3441 14.7904 90.3934 14.5199 90.44 14.3568L88.517 13.8073ZM90.0908 15.7188C90.3096 15.444 90.6329 15.2203 91.1238 15.0772L90.5637 13.1572C89.7421 13.3968 89.0419 13.8255 88.5264 14.4726L90.0908 15.7188ZM91.1238 15.0772C91.5441 14.9546 91.968 14.7274 92.2654 14.3218L90.6526 13.1391C90.6705 13.1147 90.684 13.1075 90.6763 13.1123C90.6666 13.1185 90.6334 13.1369 90.5637 13.1572L91.1238 15.0772ZM90.5363 14.1159C90.6373 14.3579 90.6523 14.4862 90.6523 14.5273H92.6523C92.6523 14.1232 92.5384 13.7202 92.3817 13.345L90.5363 14.1159ZM90.6523 14.5273C90.6523 14.7154 90.6424 14.8814 90.6246 15.0269L92.6098 15.27C92.6388 15.0327 92.6523 14.7846 92.6523 14.5273H90.6523ZM90.6249 15.0244C90.6068 15.1694 90.5798 15.3101 90.5441 15.4468L92.4793 15.9516C92.5374 15.729 92.5807 15.5025 92.6095 15.2725L90.6249 15.0244ZM90.5445 15.4452C90.4628 15.7565 90.3742 15.9158 90.3196 15.9856L91.8952 17.2175C92.1766 16.8576 92.3575 16.4154 92.4789 15.9532L90.5445 15.4452ZM92.0899 16.4151C92.0087 15.9873 91.8943 15.5847 91.7234 15.2459C91.5566 14.9152 91.2809 14.5383 90.8232 14.3447L90.044 16.1866C89.891 16.1219 89.8799 16.0321 89.9377 16.1466C89.9915 16.2532 90.0616 16.4541 90.125 16.788L92.0899 16.4151ZM90.8312 14.3481C90.3428 14.1364 89.8294 14.1891 89.3962 14.45C89.0196 14.6768 88.7466 15.0321 88.5422 15.3766L90.2624 16.3968C90.3231 16.2946 90.3723 16.2288 90.4069 16.1894C90.4422 16.1493 90.451 16.1495 90.428 16.1633C90.4011 16.1795 90.3394 16.2086 90.2498 16.2157C90.1583 16.2229 90.0828 16.2035 90.036 16.1832L90.8312 14.3481ZM88.5449 15.3722C88.439 15.5487 88.3521 15.7347 88.2836 15.9289L90.1696 16.5945C90.1948 16.5231 90.2251 16.4591 90.2598 16.4012L88.5449 15.3722ZM88.2275 16.2183C88.2229 16.3232 88.2207 16.4295 88.2207 16.5371H90.2207C90.2207 16.4572 90.2224 16.3799 90.2256 16.3052L88.2275 16.2183ZM88.2207 16.5371C88.2207 16.5373 88.2207 16.5375 88.2207 16.5377C88.2207 16.5378 88.2207 16.538 88.2207 16.5382C88.2207 16.5384 88.2207 16.5386 88.2207 16.5388C88.2207 16.5389 88.2207 16.5391 88.2207 16.5393C88.2207 16.5395 88.2207 16.5397 88.2207 16.5399C88.2207 16.54 88.2207 16.5402 88.2207 16.5404C88.2207 16.5406 88.2207 16.5408 88.2207 16.541C88.2207 16.5411 88.2207 16.5413 88.2207 16.5415C88.2207 16.5417 88.2207 16.5419 88.2207 16.5421C88.2207 16.5422 88.2207 16.5424 88.2207 16.5426C88.2207 16.5428 88.2207 16.543 88.2207 16.5432C88.2207 16.5433 88.2207 16.5435 88.2207 16.5437C88.2207 16.5439 88.2207 16.5441 88.2207 16.5443C88.2207 16.5444 88.2207 16.5446 88.2207 16.5448C88.2207 16.545 88.2207 16.5452 88.2207 16.5453C88.2207 16.5455 88.2207 16.5457 88.2207 16.5459C88.2207 16.5461 88.2207 16.5463 88.2207 16.5464C88.2207 16.5466 88.2207 16.5468 88.2207 16.547C88.2207 16.5472 88.2207 16.5474 88.2207 16.5475C88.2207 16.5477 88.2207 16.5479 88.2207 16.5481C88.2207 16.5483 88.2207 16.5485 88.2207 16.5486C88.2207 16.5488 88.2207 16.549 88.2207 16.5492C88.2207 16.5494 88.2207 16.5496 88.2207 16.5497C88.2207 16.5499 88.2207 16.5501 88.2207 16.5503C88.2207 16.5505 88.2207 16.5507 88.2207 16.5508C88.2207 16.551 88.2207 16.5512 88.2207 16.5514C88.2207 16.5516 88.2207 16.5518 88.2207 16.5519C88.2207 16.5521 88.2207 16.5523 88.2207 16.5525C88.2207 16.5527 88.2207 16.5529 88.2207 16.553C88.2207 16.5532 88.2207 16.5534 88.2207 16.5536C88.2207 16.5538 88.2207 16.554 88.2207 16.5541C88.2207 16.5543 88.2207 16.5545 88.2207 16.5547C88.2207 16.5549 88.2207 16.5551 88.2207 16.5552C88.2207 16.5554 88.2207 16.5556 88.2207 16.5558C88.2207 16.556 88.2207 16.5562 88.2207 16.5563C88.2207 16.5565 88.2207 16.5567 88.2207 16.5569C88.2207 16.5571 88.2207 16.5573 88.2207 16.5574C88.2207 16.5576 88.2207 16.5578 88.2207 16.558C88.2207 16.5582 88.2207 16.5583 88.2207 16.5585C88.2207 16.5587 88.2207 16.5589 88.2207 16.5591C88.2207 16.5593 88.2207 16.5594 88.2207 16.5596C88.2207 16.5598 88.2207 16.56 88.2207 16.5602C88.2207 16.5604 88.2207 16.5605 88.2207 16.5607C88.2207 16.5609 88.2207 16.5611 88.2207 16.5613C88.2207 16.5615 88.2207 16.5616 88.2207 16.5618C88.2207 16.562 88.2207 16.5622 88.2207 16.5624C88.2207 16.5626 88.2207 16.5627 88.2207 16.5629C88.2207 16.5631 88.2207 16.5633 88.2207 16.5635C88.2207 16.5637 88.2207 16.5638 88.2207 16.564C88.2207 16.5642 88.2207 16.5644 88.2207 16.5646C88.2207 16.5648 88.2207 16.5649 88.2207 16.5651C88.2207 16.5653 88.2207 16.5655 88.2207 16.5657C88.2207 16.5659 88.2207 16.566 88.2207 16.5662C88.2207 16.5664 88.2207 16.5666 88.2207 16.5668C88.2207 16.567 88.2207 16.5671 88.2207 16.5673C88.2207 16.5675 88.2207 16.5677 88.2207 16.5679C88.2207 16.5681 88.2207 16.5682 88.2207 16.5684C88.2207 16.5686 88.2207 16.5688 88.2207 16.569C88.2207 16.5692 88.2207 16.5693 88.2207 16.5695C88.2207 16.5697 88.2207 16.5699 88.2207 16.5701C88.2207 16.5703 88.2207 16.5704 88.2207 16.5706C88.2207 16.5708 88.2207 16.571 88.2207 16.5712C88.2207 16.5714 88.2207 16.5715 88.2207 16.5717C88.2207 16.5719 88.2207 16.5721 88.2207 16.5723C88.2207 16.5724 88.2207 16.5726 88.2207 16.5728C88.2207 16.573 88.2207 16.5732 88.2207 16.5734C88.2207 16.5735 88.2207 16.5737 88.2207 16.5739C88.2207 16.5741 88.2207 16.5743 88.2207 16.5745C88.2207 16.5746 88.2207 16.5748 88.2207 16.575C88.2207 16.5752 88.2207 16.5754 88.2207 16.5756C88.2207 16.5757 88.2207 16.5759 88.2207 16.5761C88.2207 16.5763 88.2207 16.5765 88.2207 16.5767C88.2207 16.5768 88.2207 16.577 88.2207 16.5772C88.2207 16.5774 88.2207 16.5776 88.2207 16.5778C88.2207 16.5779 88.2207 16.5781 88.2207 16.5783C88.2207 16.5785 88.2207 16.5787 88.2207 16.5789C88.2207 16.579 88.2207 16.5792 88.2207 16.5794C88.2207 16.5796 88.2207 16.5798 88.2207 16.58C88.2207 16.5801 88.2207 16.5803 88.2207 16.5805C88.2207 16.5807 88.2207 16.5809 88.2207 16.5811C88.2207 16.5812 88.2207 16.5814 88.2207 16.5816C88.2207 16.5818 88.2207 16.582 88.2207 16.5822C88.2207 16.5823 88.2207 16.5825 88.2207 16.5827C88.2207 16.5829 88.2207 16.5831 88.2207 16.5833C88.2207 16.5834 88.2207 16.5836 88.2207 16.5838C88.2207 16.584 88.2207 16.5842 88.2207 16.5844C88.2207 16.5845 88.2207 16.5847 88.2207 16.5849C88.2207 16.5851 88.2207 16.5853 88.2207 16.5854C88.2207 16.5856 88.2207 16.5858 88.2207 16.586C88.2207 16.5862 88.2207 16.5864 88.2207 16.5865C88.2207 16.5867 88.2207 16.5869 88.2207 16.5871C88.2207 16.5873 88.2207 16.5875 88.2207 16.5876C88.2207 16.5878 88.2207 16.588 88.2207 16.5882C88.2207 16.5884 88.2207 16.5886 88.2207 16.5887C88.2207 16.5889 88.2207 16.5891 88.2207 16.5893C88.2207 16.5895 88.2207 16.5897 88.2207 16.5898C88.2207 16.59 88.2207 16.5902 88.2207 16.5904C88.2207 16.5906 88.2207 16.5908 88.2207 16.5909C88.2207 16.5911 88.2207 16.5913 88.2207 16.5915C88.2207 16.5917 88.2207 16.5919 88.2207 16.592C88.2207 16.5922 88.2207 16.5924 88.2207 16.5926C88.2207 16.5928 88.2207 16.593 88.2207 16.5931C88.2207 16.5933 88.2207 16.5935 88.2207 16.5937C88.2207 16.5939 88.2207 16.5941 88.2207 16.5942C88.2207 16.5944 88.2207 16.5946 88.2207 16.5948C88.2207 16.595 88.2207 16.5952 88.2207 16.5953C88.2207 16.5955 88.2207 16.5957 88.2207 16.5959C88.2207 16.5961 88.2207 16.5963 88.2207 16.5964C88.2207 16.5966 88.2207 16.5968 88.2207 16.597C88.2207 16.5972 88.2207 16.5974 88.2207 16.5975C88.2207 16.5977 88.2207 16.5979 88.2207 16.5981C88.2207 16.5983 88.2207 16.5984 88.2207 16.5986C88.2207 16.5988 88.2207 16.599 88.2207 16.5992C88.2207 16.5994 88.2207 16.5995 88.2207 16.5997C88.2207 16.5999 88.2207 16.6001 88.2207 16.6003C88.2207 16.6005 88.2207 16.6006 88.2207 16.6008C88.2207 16.601 88.2207 16.6012 88.2207 16.6014C88.2207 16.6016 88.2207 16.6017 88.2207 16.6019C88.2207 16.6021 88.2207 16.6023 88.2207 16.6025C88.2207 16.6027 88.2207 16.6028 88.2207 16.603C88.2207 16.6032 88.2207 16.6034 88.2207 16.6036C88.2207 16.6038 88.2207 16.6039 88.2207 16.6041C88.2207 16.6043 88.2207 16.6045 88.2207 16.6047C88.2207 16.6049 88.2207 16.605 88.2207 16.6052C88.2207 16.6054 88.2207 16.6056 88.2207 16.6058C88.2207 16.606 88.2207 16.6061 88.2207 16.6063C88.2207 16.6065 88.2207 16.6067 88.2207 16.6069C88.2207 16.6071 88.2207 16.6072 88.2207 16.6074C88.2207 16.6076 88.2207 16.6078 88.2207 16.608C88.2207 16.6082 88.2207 16.6083 88.2207 16.6085C88.2207 16.6087 88.2207 16.6089 88.2207 16.6091C88.2207 16.6093 88.2207 16.6094 88.2207 16.6096C88.2207 16.6098 88.2207 16.61 88.2207 16.6102C88.2207 16.6104 88.2207 16.6105 88.2207 16.6107C88.2207 16.6109 88.2207 16.6111 88.2207 16.6113C88.2207 16.6115 88.2207 16.6116 88.2207 16.6118C88.2207 16.612 88.2207 16.6122 88.2207 16.6124C88.2207 16.6125 88.2207 16.6127 88.2207 16.6129C88.2207 16.6131 88.2207 16.6133 88.2207 16.6135C88.2207 16.6136 88.2207 16.6138 88.2207 16.614C88.2207 16.6142 88.2207 16.6144 88.2207 16.6146C88.2207 16.6147 88.2207 16.6149 88.2207 16.6151C88.2207 16.6153 88.2207 16.6155 88.2207 16.6157C88.2207 16.6158 88.2207 16.616 88.2207 16.6162C88.2207 16.6164 88.2207 16.6166 88.2207 16.6168C88.2207 16.6169 88.2207 16.6171 88.2207 16.6173C88.2207 16.6175 88.2207 16.6177 88.2207 16.6179C88.2207 16.618 88.2207 16.6182 88.2207 16.6184C88.2207 16.6186 88.2207 16.6188 88.2207 16.619C88.2207 16.6191 88.2207 16.6193 88.2207 16.6195C88.2207 16.6197 88.2207 16.6199 88.2207 16.6201C88.2207 16.6202 88.2207 16.6204 88.2207 16.6206C88.2207 16.6208 88.2207 16.621 88.2207 16.6212C88.2207 16.6213 88.2207 16.6215 88.2207 16.6217C88.2207 16.6219 88.2207 16.6221 88.2207 16.6223C88.2207 16.6224 88.2207 16.6226 88.2207 16.6228C88.2207 16.623 88.2207 16.6232 88.2207 16.6234C88.2207 16.6235 88.2207 16.6237 88.2207 16.6239C88.2207 16.6241 88.2207 16.6243 88.2207 16.6245C88.2207 16.6246 88.2207 16.6248 88.2207 16.625C88.2207 16.6252 88.2207 16.6254 88.2207 16.6255C88.2207 16.6257 88.2207 16.6259 88.2207 16.6261C88.2207 16.6263 88.2207 16.6265 88.2207 16.6266C88.2207 16.6268 88.2207 16.627 88.2207 16.6272C88.2207 16.6274 88.2207 16.6276 88.2207 16.6277C88.2207 16.6279 88.2207 16.6281 88.2207 16.6283C88.2207 16.6285 88.2207 16.6287 88.2207 16.6288C88.2207 16.629 88.2207 16.6292 88.2207 16.6294C88.2207 16.6296 88.2207 16.6298 88.2207 16.6299C88.2207 16.6301 88.2207 16.6303 88.2207 16.6305C88.2207 16.6307 88.2207 16.6309 88.2207 16.631C88.2207 16.6312 88.2207 16.6314 88.2207 16.6316C88.2207 16.6318 88.2207 16.632 88.2207 16.6321C88.2207 16.6323 88.2207 16.6325 88.2207 16.6327C88.2207 16.6329 88.2207 16.6331 88.2207 16.6332C88.2207 16.6334 88.2207 16.6336 88.2207 16.6338C88.2207 16.634 88.2207 16.6342 88.2207 16.6343C88.2207 16.6345 88.2207 16.6347 88.2207 16.6349C88.2207 16.6351 88.2207 16.6353 88.2207 16.6354C88.2207 16.6356 88.2207 16.6358 88.2207 16.636C88.2207 16.6362 88.2207 16.6364 88.2207 16.6365C88.2207 16.6367 88.2207 16.6369 88.2207 16.6371C88.2207 16.6373 88.2207 16.6375 88.2207 16.6376C88.2207 16.6378 88.2207 16.638 88.2207 16.6382C88.2207 16.6384 88.2207 16.6385 88.2207 16.6387C88.2207 16.6389 88.2207 16.6391 88.2207 16.6393C88.2207 16.6395 88.2207 16.6396 88.2207 16.6398C88.2207 16.64 88.2207 16.6402 88.2207 16.6404C88.2207 16.6406 88.2207 16.6407 88.2207 16.6409C88.2207 16.6411 88.2207 16.6413 88.2207 16.6415C88.2207 16.6417 88.2207 16.6418 88.2207 16.642C88.2207 16.6422 88.2207 16.6424 88.2207 16.6426C88.2207 16.6428 88.2207 16.6429 88.2207 16.6431C88.2207 16.6433 88.2207 16.6435 88.2207 16.6437C88.2207 16.6439 88.2207 16.644 88.2207 16.6442C88.2207 16.6444 88.2207 16.6446 88.2207 16.6448C88.2207 16.645 88.2207 16.6451 88.2207 16.6453C88.2207 16.6455 88.2207 16.6457 88.2207 16.6459C88.2207 16.6461 88.2207 16.6462 88.2207 16.6464C88.2207 16.6466 88.2207 16.6468 88.2207 16.647C88.2207 16.6472 88.2207 16.6473 88.2207 16.6475C88.2207 16.6477 88.2207 16.6479 88.2207 16.6481C88.2207 16.6483 88.2207 16.6484 88.2207 16.6486C88.2207 16.6488 88.2207 16.649 88.2207 16.6492C88.2207 16.6494 88.2207 16.6495 88.2207 16.6497C88.2207 16.6499 88.2207 16.6501 88.2207 16.6503C88.2207 16.6505 88.2207 16.6506 88.2207 16.6508C88.2207 16.651 88.2207 16.6512 88.2207 16.6514C88.2207 16.6516 88.2207 16.6517 88.2207 16.6519C88.2207 16.6521 88.2207 16.6523 88.2207 16.6525C88.2207 16.6526 88.2207 16.6528 88.2207 16.653C88.2207 16.6532 88.2207 16.6534 88.2207 16.6536C88.2207 16.6537 88.2207 16.6539 88.2207 16.6541C88.2207 16.6543 88.2207 16.6545 88.2207 16.6547C88.2207 16.6548 88.2207 16.655 88.2207 16.6552C88.2207 16.6554 88.2207 16.6556 88.2207 16.6558C88.2207 16.6559 88.2207 16.6561 88.2207 16.6563C88.2207 16.6565 88.2207 16.6567 88.2207 16.6569C88.2207 16.657 88.2207 16.6572 88.2207 16.6574C88.2207 16.6576 88.2207 16.6578 88.2207 16.658C88.2207 16.6581 88.2207 16.6583 88.2207 16.6585C88.2207 16.6587 88.2207 16.6589 88.2207 16.6591C88.2207 16.6592 88.2207 16.6594 88.2207 16.6596C88.2207 16.6598 88.2207 16.66 88.2207 16.6602C88.2207 16.6603 88.2207 16.6605 88.2207 16.6607C88.2207 16.6609 88.2207 16.6611 88.2207 16.6613C88.2207 16.6614 88.2207 16.6616 88.2207 16.6618C88.2207 16.662 88.2207 16.6622 88.2207 16.6624C88.2207 16.6625 88.2207 16.6627 88.2207 16.6629C88.2207 16.6631 88.2207 16.6633 88.2207 16.6635C88.2207 16.6636 88.2207 16.6638 88.2207 16.664C88.2207 16.6642 88.2207 16.6644 88.2207 16.6646C88.2207 16.6647 88.2207 16.6649 88.2207 16.6651C88.2207 16.6653 88.2207 16.6655 88.2207 16.6656C88.2207 16.6658 88.2207 16.666 88.2207 16.6662C88.2207 16.6664 88.2207 16.6666 88.2207 16.6667C88.2207 16.6669 88.2207 16.6671 88.2207 16.6673C88.2207 16.6675 88.2207 16.6677 88.2207 16.6678C88.2207 16.668 88.2207 16.6682 88.2207 16.6684C88.2207 16.6686 88.2207 16.6688 88.2207 16.6689C88.2207 16.6691 88.2207 16.6693 88.2207 16.6695C88.2207 16.6697 88.2207 16.6699 88.2207 16.67C88.2207 16.6702 88.2207 16.6704 88.2207 16.6706C88.2207 16.6708 88.2207 16.671 88.2207 16.6711C88.2207 16.6713 88.2207 16.6715 88.2207 16.6717C88.2207 16.6719 88.2207 16.6721 88.2207 16.6722C88.2207 16.6724 88.2207 16.6726 88.2207 16.6728C88.2207 16.673 88.2207 16.6732 88.2207 16.6733C88.2207 16.6735 88.2207 16.6737 88.2207 16.6739C88.2207 16.6741 88.2207 16.6743 88.2207 16.6744C88.2207 16.6746 88.2207 16.6748 88.2207 16.675C88.2207 16.6752 88.2207 16.6754 88.2207 16.6755C88.2207 16.6757 88.2207 16.6759 88.2207 16.6761C88.2207 16.6763 88.2207 16.6765 88.2207 16.6766C88.2207 16.6768 88.2207 16.677 88.2207 16.6772C88.2207 16.6774 88.2207 16.6776 88.2207 16.6777C88.2207 16.6779 88.2207 16.6781 88.2207 16.6783C88.2207 16.6785 88.2207 16.6786 88.2207 16.6788C88.2207 16.679 88.2207 16.6792 88.2207 16.6794C88.2207 16.6796 88.2207 16.6797 88.2207 16.6799C88.2207 16.6801 88.2207 16.6803 88.2207 16.6805C88.2207 16.6807 88.2207 16.6808 88.2207 16.681C88.2207 16.6812 88.2207 16.6814 88.2207 16.6816C88.2207 16.6818 88.2207 16.6819 88.2207 16.6821C88.2207 16.6823 88.2207 16.6825 88.2207 16.6827C88.2207 16.6829 88.2207 16.683 88.2207 16.6832C88.2207 16.6834 88.2207 16.6836 88.2207 16.6838C88.2207 16.684 88.2207 16.6841 88.2207 16.6843C88.2207 16.6845 88.2207 16.6847 88.2207 16.6849C88.2207 16.6851 88.2207 16.6852 88.2207 16.6854C88.2207 16.6856 88.2207 16.6858 88.2207 16.686C88.2207 16.6862 88.2207 16.6863 88.2207 16.6865C88.2207 16.6867 88.2207 16.6869 88.2207 16.6871C88.2207 16.6873 88.2207 16.6874 88.2207 16.6876C88.2207 16.6878 88.2207 16.688 88.2207 16.6882C88.2207 16.6884 88.2207 16.6885 88.2207 16.6887C88.2207 16.6889 88.2207 16.6891 88.2207 16.6893C88.2207 16.6895 88.2207 16.6896 88.2207 16.6898C88.2207 16.69 88.2207 16.6902 88.2207 16.6904C88.2207 16.6906 88.2207 16.6907 88.2207 16.6909C88.2207 16.6911 88.2207 16.6913 88.2207 16.6915C88.2207 16.6917 88.2207 16.6918 88.2207 16.692C88.2207 16.6922 88.2207 16.6924 88.2207 16.6926C88.2207 16.6927 88.2207 16.6929 88.2207 16.6931C88.2207 16.6933 88.2207 16.6935 88.2207 16.6937C88.2207 16.6938 88.2207 16.694 88.2207 16.6942C88.2207 16.6944 88.2207 16.6946 88.2207 16.6948C88.2207 16.6949 88.2207 16.6951 88.2207 16.6953C88.2207 16.6955 88.2207 16.6957 88.2207 16.6959C88.2207 16.696 88.2207 16.6962 88.2207 16.6964C88.2207 16.6966 88.2207 16.6968 88.2207 16.697C88.2207 16.6971 88.2207 16.6973 88.2207 16.6975C88.2207 16.6977 88.2207 16.6979 88.2207 16.6981C88.2207 16.6982 88.2207 16.6984 88.2207 16.6986C88.2207 16.6988 88.2207 16.699 88.2207 16.6992C88.2207 16.6993 88.2207 16.6995 88.2207 16.6997C88.2207 16.6999 88.2207 16.7001 88.2207 16.7003C88.2207 16.7004 88.2207 16.7006 88.2207 16.7008C88.2207 16.701 88.2207 16.7012 88.2207 16.7014C88.2207 16.7015 88.2207 16.7017 88.2207 16.7019C88.2207 16.7021 88.2207 16.7023 88.2207 16.7025C88.2207 16.7026 88.2207 16.7028 88.2207 16.703C88.2207 16.7032 88.2207 16.7034 88.2207 16.7036C88.2207 16.7037 88.2207 16.7039 88.2207 16.7041C88.2207 16.7043 88.2207 16.7045 88.2207 16.7047C88.2207 16.7048 88.2207 16.705 88.2207 16.7052C88.2207 16.7054 88.2207 16.7056 88.2207 16.7057C88.2207 16.7059 88.2207 16.7061 88.2207 16.7063C88.2207 16.7065 88.2207 16.7067 88.2207 16.7068C88.2207 16.707 88.2207 16.7072 88.2207 16.7074C88.2207 16.7076 88.2207 16.7078 88.2207 16.7079C88.2207 16.7081 88.2207 16.7083 88.2207 16.7085C88.2207 16.7087 88.2207 16.7089 88.2207 16.709C88.2207 16.7092 88.2207 16.7094 88.2207 16.7096C88.2207 16.7098 88.2207 16.71 88.2207 16.7101C88.2207 16.7103 88.2207 16.7105 88.2207 16.7107C88.2207 16.7109 88.2207 16.7111 88.2207 16.7112C88.2207 16.7114 88.2207 16.7116 88.2207 16.7118C88.2207 16.712 88.2207 16.7122 88.2207 16.7123C88.2207 16.7125 88.2207 16.7127 88.2207 16.7129C88.2207 16.7131 88.2207 16.7133 88.2207 16.7134C88.2207 16.7136 88.2207 16.7138 88.2207 16.714C88.2207 16.7142 88.2207 16.7144 88.2207 16.7145C88.2207 16.7147 88.2207 16.7149 88.2207 16.7151C88.2207 16.7153 88.2207 16.7155 88.2207 16.7156C88.2207 16.7158 88.2207 16.716 88.2207 16.7162C88.2207 16.7164 88.2207 16.7166 88.2207 16.7167C88.2207 16.7169 88.2207 16.7171 88.2207 16.7173C88.2207 16.7175 88.2207 16.7177 88.2207 16.7178C88.2207 16.718 88.2207 16.7182 88.2207 16.7184C88.2207 16.7186 88.2207 16.7188 88.2207 16.7189C88.2207 16.7191 88.2207 16.7193 88.2207 16.7195C88.2207 16.7197 88.2207 16.7198 88.2207 16.72C88.2207 16.7202 88.2207 16.7204 88.2207 16.7206C88.2207 16.7208 88.2207 16.7209 88.2207 16.7211C88.2207 16.7213 88.2207 16.7215 88.2207 16.7217C88.2207 16.7219 88.2207 16.722 88.2207 16.7222C88.2207 16.7224 88.2207 16.7226 88.2207 16.7228C88.2207 16.723 88.2207 16.7231 88.2207 16.7233C88.2207 16.7235 88.2207 16.7237 88.2207 16.7239C88.2207 16.7241 88.2207 16.7242 88.2207 16.7244C88.2207 16.7246 88.2207 16.7248 88.2207 16.725C88.2207 16.7252 88.2207 16.7253 88.2207 16.7255C88.2207 16.7257 88.2207 16.7259 88.2207 16.7261C88.2207 16.7263 88.2207 16.7264 88.2207 16.7266C88.2207 16.7268 88.2207 16.727 88.2207 16.7272C88.2207 16.7274 88.2207 16.7275 88.2207 16.7277C88.2207 16.7279 88.2207 16.7281 88.2207 16.7283C88.2207 16.7285 88.2207 16.7286 88.2207 16.7288C88.2207 16.729 88.2207 16.7292 88.2207 16.7294C88.2207 16.7296 88.2207 16.7297 88.2207 16.7299C88.2207 16.7301 88.2207 16.7303 88.2207 16.7305C88.2207 16.7307 88.2207 16.7308 88.2207 16.731C88.2207 16.7312 88.2207 16.7314 88.2207 16.7316C88.2207 16.7318 88.2207 16.7319 88.2207 16.7321C88.2207 16.7323 88.2207 16.7325 88.2207 16.7327C88.2207 16.7328 88.2207 16.733 88.2207 16.7332C88.2207 16.7334 88.2207 16.7336 88.2207 16.7338C88.2207 16.7339 88.2207 16.7341 88.2207 16.7343C88.2207 16.7345 88.2207 16.7347 88.2207 16.7349C88.2207 16.735 88.2207 16.7352 88.2207 16.7354C88.2207 16.7356 88.2207 16.7358 88.2207 16.736C88.2207 16.7361 88.2207 16.7363 88.2207 16.7365C88.2207 16.7367 88.2207 16.7369 88.2207 16.7371C88.2207 16.7372 88.2207 16.7374 88.2207 16.7376C88.2207 16.7378 88.2207 16.738 88.2207 16.7382C88.2207 16.7383 88.2207 16.7385 88.2207 16.7387C88.2207 16.7389 88.2207 16.7391 88.2207 16.7393C88.2207 16.7394 88.2207 16.7396 88.2207 16.7398C88.2207 16.74 88.2207 16.7402 88.2207 16.7404C88.2207 16.7405 88.2207 16.7407 88.2207 16.7409C88.2207 16.7411 88.2207 16.7413 88.2207 16.7415C88.2207 16.7416 88.2207 16.7418 88.2207 16.742C88.2207 16.7422 88.2207 16.7424 88.2207 16.7426C88.2207 16.7427 88.2207 16.7429 88.2207 16.7431C88.2207 16.7433 88.2207 16.7435 88.2207 16.7437C88.2207 16.7438 88.2207 16.744 88.2207 16.7442C88.2207 16.7444 88.2207 16.7446 88.2207 16.7448C88.2207 16.7449 88.2207 16.7451 88.2207 16.7453C88.2207 16.7455 88.2207 16.7457 88.2207 16.7458C88.2207 16.746 88.2207 16.7462 88.2207 16.7464C88.2207 16.7466 88.2207 16.7468 88.2207 16.7469C88.2207 16.7471 88.2207 16.7473 88.2207 16.7475C88.2207 16.7477 88.2207 16.7479 88.2207 16.748C88.2207 16.7482 88.2207 16.7484 88.2207 16.7486C88.2207 16.7488 88.2207 16.749 88.2207 16.7491C88.2207 16.7493 88.2207 16.7495 88.2207 16.7497C88.2207 16.7499 88.2207 16.7501 88.2207 16.7502C88.2207 16.7504 88.2207 16.7506 88.2207 16.7508C88.2207 16.751 88.2207 16.7512 88.2207 16.7513C88.2207 16.7515 88.2207 16.7517 88.2207 16.7519C88.2207 16.7521 88.2207 16.7523 88.2207 16.7524C88.2207 16.7526 88.2207 16.7528 88.2207 16.753C88.2207 16.7532 88.2207 16.7534 88.2207 16.7535C88.2207 16.7537 88.2207 16.7539 88.2207 16.7541C88.2207 16.7543 88.2207 16.7545 88.2207 16.7546C88.2207 16.7548 88.2207 16.755 88.2207 16.7552C88.2207 16.7554 88.2207 16.7556 88.2207 16.7557C88.2207 16.7559 88.2207 16.7561 88.2207 16.7563C88.2207 16.7565 88.2207 16.7567 88.2207 16.7568C88.2207 16.757 88.2207 16.7572 88.2207 16.7574C88.2207 16.7576 88.2207 16.7578 88.2207 16.7579C88.2207 16.7581 88.2207 16.7583 88.2207 16.7585C88.2207 16.7587 88.2207 16.7589 88.2207 16.759C88.2207 16.7592 88.2207 16.7594 88.2207 16.7596C88.2207 16.7598 88.2207 16.7599 88.2207 16.7601C88.2207 16.7603 88.2207 16.7605 88.2207 16.7607C88.2207 16.7609 88.2207 16.761 88.2207 16.7612C88.2207 16.7614 88.2207 16.7616 88.2207 16.7618C88.2207 16.762 88.2207 16.7621 88.2207 16.7623C88.2207 16.7625 88.2207 16.7627 88.2207 16.7629C88.2207 16.7631 88.2207 16.7632 88.2207 16.7634C88.2207 16.7636 88.2207 16.7638 88.2207 16.764C88.2207 16.7642 88.2207 16.7643 88.2207 16.7645C88.2207 16.7647 88.2207 16.7649 88.2207 16.7651C88.2207 16.7653 88.2207 16.7654 88.2207 16.7656C88.2207 16.7658 88.2207 16.766 88.2207 16.7662C88.2207 16.7664 88.2207 16.7665 88.2207 16.7667C88.2207 16.7669 88.2207 16.7671 88.2207 16.7673C88.2207 16.7675 88.2207 16.7676 88.2207 16.7678C88.2207 16.768 88.2207 16.7682 88.2207 16.7684C88.2207 16.7686 88.2207 16.7687 88.2207 16.7689C88.2207 16.7691 88.2207 16.7693 88.2207 16.7695C88.2207 16.7697 88.2207 16.7698 88.2207 16.77C88.2207 16.7702 88.2207 16.7704 88.2207 16.7706C88.2207 16.7708 88.2207 16.7709 88.2207 16.7711C88.2207 16.7713 88.2207 16.7715 88.2207 16.7717C88.2207 16.7719 88.2207 16.772 88.2207 16.7722C88.2207 16.7724 88.2207 16.7726 88.2207 16.7728C88.2207 16.7729 88.2207 16.7731 88.2207 16.7733C88.2207 16.7735 88.2207 16.7737 88.2207 16.7739C88.2207 16.774 88.2207 16.7742 88.2207 16.7744C88.2207 16.7746 88.2207 16.7748 88.2207 16.775C88.2207 16.7751 88.2207 16.7753 88.2207 16.7755C88.2207 16.7757 88.2207 16.7759 88.2207 16.7761C88.2207 16.7762 88.2207 16.7764 88.2207 16.7766C88.2207 16.7768 88.2207 16.777 88.2207 16.7772C88.2207 16.7773 88.2207 16.7775 88.2207 16.7777C88.2207 16.7779 88.2207 16.7781 88.2207 16.7783C88.2207 16.7784 88.2207 16.7786 88.2207 16.7788C88.2207 16.779 88.2207 16.7792 88.2207 16.7794C88.2207 16.7795 88.2207 16.7797 88.2207 16.7799C88.2207 16.7801 88.2207 16.7803 88.2207 16.7805C88.2207 16.7806 88.2207 16.7808 88.2207 16.781C88.2207 16.7812 88.2207 16.7814 88.2207 16.7816C88.2207 16.7817 88.2207 16.7819 88.2207 16.7821C88.2207 16.7823 88.2207 16.7825 88.2207 16.7827C88.2207 16.7828 88.2207 16.783 88.2207 16.7832C88.2207 16.7834 88.2207 16.7836 88.2207 16.7838C88.2207 16.7839 88.2207 16.7841 88.2207 16.7843C88.2207 16.7845 88.2207 16.7847 88.2207 16.7849C88.2207 16.785 88.2207 16.7852 88.2207 16.7854C88.2207 16.7856 88.2207 16.7858 88.2207 16.7859C88.2207 16.7861 88.2207 16.7863 88.2207 16.7865C88.2207 16.7867 88.2207 16.7869 88.2207 16.787C88.2207 16.7872 88.2207 16.7874 88.2207 16.7876C88.2207 16.7878 88.2207 16.788 88.2207 16.7881C88.2207 16.7883 88.2207 16.7885 88.2207 16.7887C88.2207 16.7889 88.2207 16.7891 88.2207 16.7892C88.2207 16.7894 88.2207 16.7896 88.2207 16.7898C88.2207 16.79 88.2207 16.7902 88.2207 16.7903C88.2207 16.7905 88.2207 16.7907 88.2207 16.7909C88.2207 16.7911 88.2207 16.7913 88.2207 16.7914C88.2207 16.7916 88.2207 16.7918 88.2207 16.792C88.2207 16.7922 88.2207 16.7924 88.2207 16.7925C88.2207 16.7927 88.2207 16.7929 88.2207 16.7931C88.2207 16.7933 88.2207 16.7935 88.2207 16.7936C88.2207 16.7938 88.2207 16.794 88.2207 16.7942C88.2207 16.7944 88.2207 16.7946 88.2207 16.7947C88.2207 16.7949 88.2207 16.7951 88.2207 16.7953C88.2207 16.7955 88.2207 16.7957 88.2207 16.7958C88.2207 16.796 88.2207 16.7962 88.2207 16.7964C88.2207 16.7966 88.2207 16.7968 88.2207 16.7969C88.2207 16.7971 88.2207 16.7973 88.2207 16.7975C88.2207 16.7977 88.2207 16.7979 88.2207 16.798C88.2207 16.7982 88.2207 16.7984 88.2207 16.7986C88.2207 16.7988 88.2207 16.799 88.2207 16.7991C88.2207 16.7993 88.2207 16.7995 88.2207 16.7997C88.2207 16.7999 88.2207 16.8 88.2207 16.8002C88.2207 16.8004 88.2207 16.8006 88.2207 16.8008C88.2207 16.801 88.2207 16.8011 88.2207 16.8013C88.2207 16.8015 88.2207 16.8017 88.2207 16.8019C88.2207 16.8021 88.2207 16.8022 88.2207 16.8024C88.2207 16.8026 88.2207 16.8028 88.2207 16.803C88.2207 16.8032 88.2207 16.8033 88.2207 16.8035C88.2207 16.8037 88.2207 16.8039 88.2207 16.8041C88.2207 16.8043 88.2207 16.8044 88.2207 16.8046C88.2207 16.8048 88.2207 16.805 88.2207 16.8052C88.2207 16.8054 88.2207 16.8055 88.2207 16.8057C88.2207 16.8059 88.2207 16.8061 88.2207 16.8063C88.2207 16.8065 88.2207 16.8066 88.2207 16.8068C88.2207 16.807 88.2207 16.8072 88.2207 16.8074C88.2207 16.8076 88.2207 16.8077 88.2207 16.8079C88.2207 16.8081 88.2207 16.8083 88.2207 16.8085C88.2207 16.8087 88.2207 16.8088 88.2207 16.809C88.2207 16.8092 88.2207 16.8094 88.2207 16.8096C88.2207 16.8098 88.2207 16.8099 88.2207 16.8101C88.2207 16.8103 88.2207 16.8105 88.2207 16.8107C88.2207 16.8109 88.2207 16.811 88.2207 16.8112C88.2207 16.8114 88.2207 16.8116 88.2207 16.8118C88.2207 16.812 88.2207 16.8121 88.2207 16.8123C88.2207 16.8125 88.2207 16.8127 88.2207 16.8129C88.2207 16.813 88.2207 16.8132 88.2207 16.8134C88.2207 16.8136 88.2207 16.8138 88.2207 16.814C88.2207 16.8141 88.2207 16.8143 88.2207 16.8145C88.2207 16.8147 88.2207 16.8149 88.2207 16.8151C88.2207 16.8152 88.2207 16.8154 88.2207 16.8156C88.2207 16.8158 88.2207 16.816 88.2207 16.8162C88.2207 16.8163 88.2207 16.8165 88.2207 16.8167C88.2207 16.8169 88.2207 16.8171 88.2207 16.8173C88.2207 16.8174 88.2207 16.8176 88.2207 16.8178C88.2207 16.818 88.2207 16.8182 88.2207 16.8184H90.2207C90.2207 16.8182 90.2207 16.818 90.2207 16.8178C90.2207 16.8176 90.2207 16.8174 90.2207 16.8173C90.2207 16.8171 90.2207 16.8169 90.2207 16.8167C90.2207 16.8165 90.2207 16.8163 90.2207 16.8162C90.2207 16.816 90.2207 16.8158 90.2207 16.8156C90.2207 16.8154 90.2207 16.8152 90.2207 16.8151C90.2207 16.8149 90.2207 16.8147 90.2207 16.8145C90.2207 16.8143 90.2207 16.8141 90.2207 16.814C90.2207 16.8138 90.2207 16.8136 90.2207 16.8134C90.2207 16.8132 90.2207 16.813 90.2207 16.8129C90.2207 16.8127 90.2207 16.8125 90.2207 16.8123C90.2207 16.8121 90.2207 16.812 90.2207 16.8118C90.2207 16.8116 90.2207 16.8114 90.2207 16.8112C90.2207 16.811 90.2207 16.8109 90.2207 16.8107C90.2207 16.8105 90.2207 16.8103 90.2207 16.8101C90.2207 16.8099 90.2207 16.8098 90.2207 16.8096C90.2207 16.8094 90.2207 16.8092 90.2207 16.809C90.2207 16.8088 90.2207 16.8087 90.2207 16.8085C90.2207 16.8083 90.2207 16.8081 90.2207 16.8079C90.2207 16.8077 90.2207 16.8076 90.2207 16.8074C90.2207 16.8072 90.2207 16.807 90.2207 16.8068C90.2207 16.8066 90.2207 16.8065 90.2207 16.8063C90.2207 16.8061 90.2207 16.8059 90.2207 16.8057C90.2207 16.8055 90.2207 16.8054 90.2207 16.8052C90.2207 16.805 90.2207 16.8048 90.2207 16.8046C90.2207 16.8044 90.2207 16.8043 90.2207 16.8041C90.2207 16.8039 90.2207 16.8037 90.2207 16.8035C90.2207 16.8033 90.2207 16.8032 90.2207 16.803C90.2207 16.8028 90.2207 16.8026 90.2207 16.8024C90.2207 16.8022 90.2207 16.8021 90.2207 16.8019C90.2207 16.8017 90.2207 16.8015 90.2207 16.8013C90.2207 16.8011 90.2207 16.801 90.2207 16.8008C90.2207 16.8006 90.2207 16.8004 90.2207 16.8002C90.2207 16.8 90.2207 16.7999 90.2207 16.7997C90.2207 16.7995 90.2207 16.7993 90.2207 16.7991C90.2207 16.799 90.2207 16.7988 90.2207 16.7986C90.2207 16.7984 90.2207 16.7982 90.2207 16.798C90.2207 16.7979 90.2207 16.7977 90.2207 16.7975C90.2207 16.7973 90.2207 16.7971 90.2207 16.7969C90.2207 16.7968 90.2207 16.7966 90.2207 16.7964C90.2207 16.7962 90.2207 16.796 90.2207 16.7958C90.2207 16.7957 90.2207 16.7955 90.2207 16.7953C90.2207 16.7951 90.2207 16.7949 90.2207 16.7947C90.2207 16.7946 90.2207 16.7944 90.2207 16.7942C90.2207 16.794 90.2207 16.7938 90.2207 16.7936C90.2207 16.7935 90.2207 16.7933 90.2207 16.7931C90.2207 16.7929 90.2207 16.7927 90.2207 16.7925C90.2207 16.7924 90.2207 16.7922 90.2207 16.792C90.2207 16.7918 90.2207 16.7916 90.2207 16.7914C90.2207 16.7913 90.2207 16.7911 90.2207 16.7909C90.2207 16.7907 90.2207 16.7905 90.2207 16.7903C90.2207 16.7902 90.2207 16.79 90.2207 16.7898C90.2207 16.7896 90.2207 16.7894 90.2207 16.7892C90.2207 16.7891 90.2207 16.7889 90.2207 16.7887C90.2207 16.7885 90.2207 16.7883 90.2207 16.7881C90.2207 16.788 90.2207 16.7878 90.2207 16.7876C90.2207 16.7874 90.2207 16.7872 90.2207 16.787C90.2207 16.7869 90.2207 16.7867 90.2207 16.7865C90.2207 16.7863 90.2207 16.7861 90.2207 16.7859C90.2207 16.7858 90.2207 16.7856 90.2207 16.7854C90.2207 16.7852 90.2207 16.785 90.2207 16.7849C90.2207 16.7847 90.2207 16.7845 90.2207 16.7843C90.2207 16.7841 90.2207 16.7839 90.2207 16.7838C90.2207 16.7836 90.2207 16.7834 90.2207 16.7832C90.2207 16.783 90.2207 16.7828 90.2207 16.7827C90.2207 16.7825 90.2207 16.7823 90.2207 16.7821C90.2207 16.7819 90.2207 16.7817 90.2207 16.7816C90.2207 16.7814 90.2207 16.7812 90.2207 16.781C90.2207 16.7808 90.2207 16.7806 90.2207 16.7805C90.2207 16.7803 90.2207 16.7801 90.2207 16.7799C90.2207 16.7797 90.2207 16.7795 90.2207 16.7794C90.2207 16.7792 90.2207 16.779 90.2207 16.7788C90.2207 16.7786 90.2207 16.7784 90.2207 16.7783C90.2207 16.7781 90.2207 16.7779 90.2207 16.7777C90.2207 16.7775 90.2207 16.7773 90.2207 16.7772C90.2207 16.777 90.2207 16.7768 90.2207 16.7766C90.2207 16.7764 90.2207 16.7762 90.2207 16.7761C90.2207 16.7759 90.2207 16.7757 90.2207 16.7755C90.2207 16.7753 90.2207 16.7751 90.2207 16.775C90.2207 16.7748 90.2207 16.7746 90.2207 16.7744C90.2207 16.7742 90.2207 16.774 90.2207 16.7739C90.2207 16.7737 90.2207 16.7735 90.2207 16.7733C90.2207 16.7731 90.2207 16.7729 90.2207 16.7728C90.2207 16.7726 90.2207 16.7724 90.2207 16.7722C90.2207 16.772 90.2207 16.7719 90.2207 16.7717C90.2207 16.7715 90.2207 16.7713 90.2207 16.7711C90.2207 16.7709 90.2207 16.7708 90.2207 16.7706C90.2207 16.7704 90.2207 16.7702 90.2207 16.77C90.2207 16.7698 90.2207 16.7697 90.2207 16.7695C90.2207 16.7693 90.2207 16.7691 90.2207 16.7689C90.2207 16.7687 90.2207 16.7686 90.2207 16.7684C90.2207 16.7682 90.2207 16.768 90.2207 16.7678C90.2207 16.7676 90.2207 16.7675 90.2207 16.7673C90.2207 16.7671 90.2207 16.7669 90.2207 16.7667C90.2207 16.7665 90.2207 16.7664 90.2207 16.7662C90.2207 16.766 90.2207 16.7658 90.2207 16.7656C90.2207 16.7654 90.2207 16.7653 90.2207 16.7651C90.2207 16.7649 90.2207 16.7647 90.2207 16.7645C90.2207 16.7643 90.2207 16.7642 90.2207 16.764C90.2207 16.7638 90.2207 16.7636 90.2207 16.7634C90.2207 16.7632 90.2207 16.7631 90.2207 16.7629C90.2207 16.7627 90.2207 16.7625 90.2207 16.7623C90.2207 16.7621 90.2207 16.762 90.2207 16.7618C90.2207 16.7616 90.2207 16.7614 90.2207 16.7612C90.2207 16.761 90.2207 16.7609 90.2207 16.7607C90.2207 16.7605 90.2207 16.7603 90.2207 16.7601C90.2207 16.7599 90.2207 16.7598 90.2207 16.7596C90.2207 16.7594 90.2207 16.7592 90.2207 16.759C90.2207 16.7589 90.2207 16.7587 90.2207 16.7585C90.2207 16.7583 90.2207 16.7581 90.2207 16.7579C90.2207 16.7578 90.2207 16.7576 90.2207 16.7574C90.2207 16.7572 90.2207 16.757 90.2207 16.7568C90.2207 16.7567 90.2207 16.7565 90.2207 16.7563C90.2207 16.7561 90.2207 16.7559 90.2207 16.7557C90.2207 16.7556 90.2207 16.7554 90.2207 16.7552C90.2207 16.755 90.2207 16.7548 90.2207 16.7546C90.2207 16.7545 90.2207 16.7543 90.2207 16.7541C90.2207 16.7539 90.2207 16.7537 90.2207 16.7535C90.2207 16.7534 90.2207 16.7532 90.2207 16.753C90.2207 16.7528 90.2207 16.7526 90.2207 16.7524C90.2207 16.7523 90.2207 16.7521 90.2207 16.7519C90.2207 16.7517 90.2207 16.7515 90.2207 16.7513C90.2207 16.7512 90.2207 16.751 90.2207 16.7508C90.2207 16.7506 90.2207 16.7504 90.2207 16.7502C90.2207 16.7501 90.2207 16.7499 90.2207 16.7497C90.2207 16.7495 90.2207 16.7493 90.2207 16.7491C90.2207 16.749 90.2207 16.7488 90.2207 16.7486C90.2207 16.7484 90.2207 16.7482 90.2207 16.748C90.2207 16.7479 90.2207 16.7477 90.2207 16.7475C90.2207 16.7473 90.2207 16.7471 90.2207 16.7469C90.2207 16.7468 90.2207 16.7466 90.2207 16.7464C90.2207 16.7462 90.2207 16.746 90.2207 16.7458C90.2207 16.7457 90.2207 16.7455 90.2207 16.7453C90.2207 16.7451 90.2207 16.7449 90.2207 16.7448C90.2207 16.7446 90.2207 16.7444 90.2207 16.7442C90.2207 16.744 90.2207 16.7438 90.2207 16.7437C90.2207 16.7435 90.2207 16.7433 90.2207 16.7431C90.2207 16.7429 90.2207 16.7427 90.2207 16.7426C90.2207 16.7424 90.2207 16.7422 90.2207 16.742C90.2207 16.7418 90.2207 16.7416 90.2207 16.7415C90.2207 16.7413 90.2207 16.7411 90.2207 16.7409C90.2207 16.7407 90.2207 16.7405 90.2207 16.7404C90.2207 16.7402 90.2207 16.74 90.2207 16.7398C90.2207 16.7396 90.2207 16.7394 90.2207 16.7393C90.2207 16.7391 90.2207 16.7389 90.2207 16.7387C90.2207 16.7385 90.2207 16.7383 90.2207 16.7382C90.2207 16.738 90.2207 16.7378 90.2207 16.7376C90.2207 16.7374 90.2207 16.7372 90.2207 16.7371C90.2207 16.7369 90.2207 16.7367 90.2207 16.7365C90.2207 16.7363 90.2207 16.7361 90.2207 16.736C90.2207 16.7358 90.2207 16.7356 90.2207 16.7354C90.2207 16.7352 90.2207 16.735 90.2207 16.7349C90.2207 16.7347 90.2207 16.7345 90.2207 16.7343C90.2207 16.7341 90.2207 16.7339 90.2207 16.7338C90.2207 16.7336 90.2207 16.7334 90.2207 16.7332C90.2207 16.733 90.2207 16.7328 90.2207 16.7327C90.2207 16.7325 90.2207 16.7323 90.2207 16.7321C90.2207 16.7319 90.2207 16.7318 90.2207 16.7316C90.2207 16.7314 90.2207 16.7312 90.2207 16.731C90.2207 16.7308 90.2207 16.7307 90.2207 16.7305C90.2207 16.7303 90.2207 16.7301 90.2207 16.7299C90.2207 16.7297 90.2207 16.7296 90.2207 16.7294C90.2207 16.7292 90.2207 16.729 90.2207 16.7288C90.2207 16.7286 90.2207 16.7285 90.2207 16.7283C90.2207 16.7281 90.2207 16.7279 90.2207 16.7277C90.2207 16.7275 90.2207 16.7274 90.2207 16.7272C90.2207 16.727 90.2207 16.7268 90.2207 16.7266C90.2207 16.7264 90.2207 16.7263 90.2207 16.7261C90.2207 16.7259 90.2207 16.7257 90.2207 16.7255C90.2207 16.7253 90.2207 16.7252 90.2207 16.725C90.2207 16.7248 90.2207 16.7246 90.2207 16.7244C90.2207 16.7242 90.2207 16.7241 90.2207 16.7239C90.2207 16.7237 90.2207 16.7235 90.2207 16.7233C90.2207 16.7231 90.2207 16.723 90.2207 16.7228C90.2207 16.7226 90.2207 16.7224 90.2207 16.7222C90.2207 16.722 90.2207 16.7219 90.2207 16.7217C90.2207 16.7215 90.2207 16.7213 90.2207 16.7211C90.2207 16.7209 90.2207 16.7208 90.2207 16.7206C90.2207 16.7204 90.2207 16.7202 90.2207 16.72C90.2207 16.7198 90.2207 16.7197 90.2207 16.7195C90.2207 16.7193 90.2207 16.7191 90.2207 16.7189C90.2207 16.7188 90.2207 16.7186 90.2207 16.7184C90.2207 16.7182 90.2207 16.718 90.2207 16.7178C90.2207 16.7177 90.2207 16.7175 90.2207 16.7173C90.2207 16.7171 90.2207 16.7169 90.2207 16.7167C90.2207 16.7166 90.2207 16.7164 90.2207 16.7162C90.2207 16.716 90.2207 16.7158 90.2207 16.7156C90.2207 16.7155 90.2207 16.7153 90.2207 16.7151C90.2207 16.7149 90.2207 16.7147 90.2207 16.7145C90.2207 16.7144 90.2207 16.7142 90.2207 16.714C90.2207 16.7138 90.2207 16.7136 90.2207 16.7134C90.2207 16.7133 90.2207 16.7131 90.2207 16.7129C90.2207 16.7127 90.2207 16.7125 90.2207 16.7123C90.2207 16.7122 90.2207 16.712 90.2207 16.7118C90.2207 16.7116 90.2207 16.7114 90.2207 16.7112C90.2207 16.7111 90.2207 16.7109 90.2207 16.7107C90.2207 16.7105 90.2207 16.7103 90.2207 16.7101C90.2207 16.71 90.2207 16.7098 90.2207 16.7096C90.2207 16.7094 90.2207 16.7092 90.2207 16.709C90.2207 16.7089 90.2207 16.7087 90.2207 16.7085C90.2207 16.7083 90.2207 16.7081 90.2207 16.7079C90.2207 16.7078 90.2207 16.7076 90.2207 16.7074C90.2207 16.7072 90.2207 16.707 90.2207 16.7068C90.2207 16.7067 90.2207 16.7065 90.2207 16.7063C90.2207 16.7061 90.2207 16.7059 90.2207 16.7057C90.2207 16.7056 90.2207 16.7054 90.2207 16.7052C90.2207 16.705 90.2207 16.7048 90.2207 16.7047C90.2207 16.7045 90.2207 16.7043 90.2207 16.7041C90.2207 16.7039 90.2207 16.7037 90.2207 16.7036C90.2207 16.7034 90.2207 16.7032 90.2207 16.703C90.2207 16.7028 90.2207 16.7026 90.2207 16.7025C90.2207 16.7023 90.2207 16.7021 90.2207 16.7019C90.2207 16.7017 90.2207 16.7015 90.2207 16.7014C90.2207 16.7012 90.2207 16.701 90.2207 16.7008C90.2207 16.7006 90.2207 16.7004 90.2207 16.7003C90.2207 16.7001 90.2207 16.6999 90.2207 16.6997C90.2207 16.6995 90.2207 16.6993 90.2207 16.6992C90.2207 16.699 90.2207 16.6988 90.2207 16.6986C90.2207 16.6984 90.2207 16.6982 90.2207 16.6981C90.2207 16.6979 90.2207 16.6977 90.2207 16.6975C90.2207 16.6973 90.2207 16.6971 90.2207 16.697C90.2207 16.6968 90.2207 16.6966 90.2207 16.6964C90.2207 16.6962 90.2207 16.696 90.2207 16.6959C90.2207 16.6957 90.2207 16.6955 90.2207 16.6953C90.2207 16.6951 90.2207 16.6949 90.2207 16.6948C90.2207 16.6946 90.2207 16.6944 90.2207 16.6942C90.2207 16.694 90.2207 16.6938 90.2207 16.6937C90.2207 16.6935 90.2207 16.6933 90.2207 16.6931C90.2207 16.6929 90.2207 16.6927 90.2207 16.6926C90.2207 16.6924 90.2207 16.6922 90.2207 16.692C90.2207 16.6918 90.2207 16.6917 90.2207 16.6915C90.2207 16.6913 90.2207 16.6911 90.2207 16.6909C90.2207 16.6907 90.2207 16.6906 90.2207 16.6904C90.2207 16.6902 90.2207 16.69 90.2207 16.6898C90.2207 16.6896 90.2207 16.6895 90.2207 16.6893C90.2207 16.6891 90.2207 16.6889 90.2207 16.6887C90.2207 16.6885 90.2207 16.6884 90.2207 16.6882C90.2207 16.688 90.2207 16.6878 90.2207 16.6876C90.2207 16.6874 90.2207 16.6873 90.2207 16.6871C90.2207 16.6869 90.2207 16.6867 90.2207 16.6865C90.2207 16.6863 90.2207 16.6862 90.2207 16.686C90.2207 16.6858 90.2207 16.6856 90.2207 16.6854C90.2207 16.6852 90.2207 16.6851 90.2207 16.6849C90.2207 16.6847 90.2207 16.6845 90.2207 16.6843C90.2207 16.6841 90.2207 16.684 90.2207 16.6838C90.2207 16.6836 90.2207 16.6834 90.2207 16.6832C90.2207 16.683 90.2207 16.6829 90.2207 16.6827C90.2207 16.6825 90.2207 16.6823 90.2207 16.6821C90.2207 16.6819 90.2207 16.6818 90.2207 16.6816C90.2207 16.6814 90.2207 16.6812 90.2207 16.681C90.2207 16.6808 90.2207 16.6807 90.2207 16.6805C90.2207 16.6803 90.2207 16.6801 90.2207 16.6799C90.2207 16.6797 90.2207 16.6796 90.2207 16.6794C90.2207 16.6792 90.2207 16.679 90.2207 16.6788C90.2207 16.6786 90.2207 16.6785 90.2207 16.6783C90.2207 16.6781 90.2207 16.6779 90.2207 16.6777C90.2207 16.6776 90.2207 16.6774 90.2207 16.6772C90.2207 16.677 90.2207 16.6768 90.2207 16.6766C90.2207 16.6765 90.2207 16.6763 90.2207 16.6761C90.2207 16.6759 90.2207 16.6757 90.2207 16.6755C90.2207 16.6754 90.2207 16.6752 90.2207 16.675C90.2207 16.6748 90.2207 16.6746 90.2207 16.6744C90.2207 16.6743 90.2207 16.6741 90.2207 16.6739C90.2207 16.6737 90.2207 16.6735 90.2207 16.6733C90.2207 16.6732 90.2207 16.673 90.2207 16.6728C90.2207 16.6726 90.2207 16.6724 90.2207 16.6722C90.2207 16.6721 90.2207 16.6719 90.2207 16.6717C90.2207 16.6715 90.2207 16.6713 90.2207 16.6711C90.2207 16.671 90.2207 16.6708 90.2207 16.6706C90.2207 16.6704 90.2207 16.6702 90.2207 16.67C90.2207 16.6699 90.2207 16.6697 90.2207 16.6695C90.2207 16.6693 90.2207 16.6691 90.2207 16.6689C90.2207 16.6688 90.2207 16.6686 90.2207 16.6684C90.2207 16.6682 90.2207 16.668 90.2207 16.6678C90.2207 16.6677 90.2207 16.6675 90.2207 16.6673C90.2207 16.6671 90.2207 16.6669 90.2207 16.6667C90.2207 16.6666 90.2207 16.6664 90.2207 16.6662C90.2207 16.666 90.2207 16.6658 90.2207 16.6656C90.2207 16.6655 90.2207 16.6653 90.2207 16.6651C90.2207 16.6649 90.2207 16.6647 90.2207 16.6646C90.2207 16.6644 90.2207 16.6642 90.2207 16.664C90.2207 16.6638 90.2207 16.6636 90.2207 16.6635C90.2207 16.6633 90.2207 16.6631 90.2207 16.6629C90.2207 16.6627 90.2207 16.6625 90.2207 16.6624C90.2207 16.6622 90.2207 16.662 90.2207 16.6618C90.2207 16.6616 90.2207 16.6614 90.2207 16.6613C90.2207 16.6611 90.2207 16.6609 90.2207 16.6607C90.2207 16.6605 90.2207 16.6603 90.2207 16.6602C90.2207 16.66 90.2207 16.6598 90.2207 16.6596C90.2207 16.6594 90.2207 16.6592 90.2207 16.6591C90.2207 16.6589 90.2207 16.6587 90.2207 16.6585C90.2207 16.6583 90.2207 16.6581 90.2207 16.658C90.2207 16.6578 90.2207 16.6576 90.2207 16.6574C90.2207 16.6572 90.2207 16.657 90.2207 16.6569C90.2207 16.6567 90.2207 16.6565 90.2207 16.6563C90.2207 16.6561 90.2207 16.6559 90.2207 16.6558C90.2207 16.6556 90.2207 16.6554 90.2207 16.6552C90.2207 16.655 90.2207 16.6548 90.2207 16.6547C90.2207 16.6545 90.2207 16.6543 90.2207 16.6541C90.2207 16.6539 90.2207 16.6537 90.2207 16.6536C90.2207 16.6534 90.2207 16.6532 90.2207 16.653C90.2207 16.6528 90.2207 16.6526 90.2207 16.6525C90.2207 16.6523 90.2207 16.6521 90.2207 16.6519C90.2207 16.6517 90.2207 16.6516 90.2207 16.6514C90.2207 16.6512 90.2207 16.651 90.2207 16.6508C90.2207 16.6506 90.2207 16.6505 90.2207 16.6503C90.2207 16.6501 90.2207 16.6499 90.2207 16.6497C90.2207 16.6495 90.2207 16.6494 90.2207 16.6492C90.2207 16.649 90.2207 16.6488 90.2207 16.6486C90.2207 16.6484 90.2207 16.6483 90.2207 16.6481C90.2207 16.6479 90.2207 16.6477 90.2207 16.6475C90.2207 16.6473 90.2207 16.6472 90.2207 16.647C90.2207 16.6468 90.2207 16.6466 90.2207 16.6464C90.2207 16.6462 90.2207 16.6461 90.2207 16.6459C90.2207 16.6457 90.2207 16.6455 90.2207 16.6453C90.2207 16.6451 90.2207 16.645 90.2207 16.6448C90.2207 16.6446 90.2207 16.6444 90.2207 16.6442C90.2207 16.644 90.2207 16.6439 90.2207 16.6437C90.2207 16.6435 90.2207 16.6433 90.2207 16.6431C90.2207 16.6429 90.2207 16.6428 90.2207 16.6426C90.2207 16.6424 90.2207 16.6422 90.2207 16.642C90.2207 16.6418 90.2207 16.6417 90.2207 16.6415C90.2207 16.6413 90.2207 16.6411 90.2207 16.6409C90.2207 16.6407 90.2207 16.6406 90.2207 16.6404C90.2207 16.6402 90.2207 16.64 90.2207 16.6398C90.2207 16.6396 90.2207 16.6395 90.2207 16.6393C90.2207 16.6391 90.2207 16.6389 90.2207 16.6387C90.2207 16.6385 90.2207 16.6384 90.2207 16.6382C90.2207 16.638 90.2207 16.6378 90.2207 16.6376C90.2207 16.6375 90.2207 16.6373 90.2207 16.6371C90.2207 16.6369 90.2207 16.6367 90.2207 16.6365C90.2207 16.6364 90.2207 16.6362 90.2207 16.636C90.2207 16.6358 90.2207 16.6356 90.2207 16.6354C90.2207 16.6353 90.2207 16.6351 90.2207 16.6349C90.2207 16.6347 90.2207 16.6345 90.2207 16.6343C90.2207 16.6342 90.2207 16.634 90.2207 16.6338C90.2207 16.6336 90.2207 16.6334 90.2207 16.6332C90.2207 16.6331 90.2207 16.6329 90.2207 16.6327C90.2207 16.6325 90.2207 16.6323 90.2207 16.6321C90.2207 16.632 90.2207 16.6318 90.2207 16.6316C90.2207 16.6314 90.2207 16.6312 90.2207 16.631C90.2207 16.6309 90.2207 16.6307 90.2207 16.6305C90.2207 16.6303 90.2207 16.6301 90.2207 16.6299C90.2207 16.6298 90.2207 16.6296 90.2207 16.6294C90.2207 16.6292 90.2207 16.629 90.2207 16.6288C90.2207 16.6287 90.2207 16.6285 90.2207 16.6283C90.2207 16.6281 90.2207 16.6279 90.2207 16.6277C90.2207 16.6276 90.2207 16.6274 90.2207 16.6272C90.2207 16.627 90.2207 16.6268 90.2207 16.6266C90.2207 16.6265 90.2207 16.6263 90.2207 16.6261C90.2207 16.6259 90.2207 16.6257 90.2207 16.6255C90.2207 16.6254 90.2207 16.6252 90.2207 16.625C90.2207 16.6248 90.2207 16.6246 90.2207 16.6245C90.2207 16.6243 90.2207 16.6241 90.2207 16.6239C90.2207 16.6237 90.2207 16.6235 90.2207 16.6234C90.2207 16.6232 90.2207 16.623 90.2207 16.6228C90.2207 16.6226 90.2207 16.6224 90.2207 16.6223C90.2207 16.6221 90.2207 16.6219 90.2207 16.6217C90.2207 16.6215 90.2207 16.6213 90.2207 16.6212C90.2207 16.621 90.2207 16.6208 90.2207 16.6206C90.2207 16.6204 90.2207 16.6202 90.2207 16.6201C90.2207 16.6199 90.2207 16.6197 90.2207 16.6195C90.2207 16.6193 90.2207 16.6191 90.2207 16.619C90.2207 16.6188 90.2207 16.6186 90.2207 16.6184C90.2207 16.6182 90.2207 16.618 90.2207 16.6179C90.2207 16.6177 90.2207 16.6175 90.2207 16.6173C90.2207 16.6171 90.2207 16.6169 90.2207 16.6168C90.2207 16.6166 90.2207 16.6164 90.2207 16.6162C90.2207 16.616 90.2207 16.6158 90.2207 16.6157C90.2207 16.6155 90.2207 16.6153 90.2207 16.6151C90.2207 16.6149 90.2207 16.6147 90.2207 16.6146C90.2207 16.6144 90.2207 16.6142 90.2207 16.614C90.2207 16.6138 90.2207 16.6136 90.2207 16.6135C90.2207 16.6133 90.2207 16.6131 90.2207 16.6129C90.2207 16.6127 90.2207 16.6125 90.2207 16.6124C90.2207 16.6122 90.2207 16.612 90.2207 16.6118C90.2207 16.6116 90.2207 16.6115 90.2207 16.6113C90.2207 16.6111 90.2207 16.6109 90.2207 16.6107C90.2207 16.6105 90.2207 16.6104 90.2207 16.6102C90.2207 16.61 90.2207 16.6098 90.2207 16.6096C90.2207 16.6094 90.2207 16.6093 90.2207 16.6091C90.2207 16.6089 90.2207 16.6087 90.2207 16.6085C90.2207 16.6083 90.2207 16.6082 90.2207 16.608C90.2207 16.6078 90.2207 16.6076 90.2207 16.6074C90.2207 16.6072 90.2207 16.6071 90.2207 16.6069C90.2207 16.6067 90.2207 16.6065 90.2207 16.6063C90.2207 16.6061 90.2207 16.606 90.2207 16.6058C90.2207 16.6056 90.2207 16.6054 90.2207 16.6052C90.2207 16.605 90.2207 16.6049 90.2207 16.6047C90.2207 16.6045 90.2207 16.6043 90.2207 16.6041C90.2207 16.6039 90.2207 16.6038 90.2207 16.6036C90.2207 16.6034 90.2207 16.6032 90.2207 16.603C90.2207 16.6028 90.2207 16.6027 90.2207 16.6025C90.2207 16.6023 90.2207 16.6021 90.2207 16.6019C90.2207 16.6017 90.2207 16.6016 90.2207 16.6014C90.2207 16.6012 90.2207 16.601 90.2207 16.6008C90.2207 16.6006 90.2207 16.6005 90.2207 16.6003C90.2207 16.6001 90.2207 16.5999 90.2207 16.5997C90.2207 16.5995 90.2207 16.5994 90.2207 16.5992C90.2207 16.599 90.2207 16.5988 90.2207 16.5986C90.2207 16.5984 90.2207 16.5983 90.2207 16.5981C90.2207 16.5979 90.2207 16.5977 90.2207 16.5975C90.2207 16.5974 90.2207 16.5972 90.2207 16.597C90.2207 16.5968 90.2207 16.5966 90.2207 16.5964C90.2207 16.5963 90.2207 16.5961 90.2207 16.5959C90.2207 16.5957 90.2207 16.5955 90.2207 16.5953C90.2207 16.5952 90.2207 16.595 90.2207 16.5948C90.2207 16.5946 90.2207 16.5944 90.2207 16.5942C90.2207 16.5941 90.2207 16.5939 90.2207 16.5937C90.2207 16.5935 90.2207 16.5933 90.2207 16.5931C90.2207 16.593 90.2207 16.5928 90.2207 16.5926C90.2207 16.5924 90.2207 16.5922 90.2207 16.592C90.2207 16.5919 90.2207 16.5917 90.2207 16.5915C90.2207 16.5913 90.2207 16.5911 90.2207 16.5909C90.2207 16.5908 90.2207 16.5906 90.2207 16.5904C90.2207 16.5902 90.2207 16.59 90.2207 16.5898C90.2207 16.5897 90.2207 16.5895 90.2207 16.5893C90.2207 16.5891 90.2207 16.5889 90.2207 16.5887C90.2207 16.5886 90.2207 16.5884 90.2207 16.5882C90.2207 16.588 90.2207 16.5878 90.2207 16.5876C90.2207 16.5875 90.2207 16.5873 90.2207 16.5871C90.2207 16.5869 90.2207 16.5867 90.2207 16.5865C90.2207 16.5864 90.2207 16.5862 90.2207 16.586C90.2207 16.5858 90.2207 16.5856 90.2207 16.5854C90.2207 16.5853 90.2207 16.5851 90.2207 16.5849C90.2207 16.5847 90.2207 16.5845 90.2207 16.5844C90.2207 16.5842 90.2207 16.584 90.2207 16.5838C90.2207 16.5836 90.2207 16.5834 90.2207 16.5833C90.2207 16.5831 90.2207 16.5829 90.2207 16.5827C90.2207 16.5825 90.2207 16.5823 90.2207 16.5822C90.2207 16.582 90.2207 16.5818 90.2207 16.5816C90.2207 16.5814 90.2207 16.5812 90.2207 16.5811C90.2207 16.5809 90.2207 16.5807 90.2207 16.5805C90.2207 16.5803 90.2207 16.5801 90.2207 16.58C90.2207 16.5798 90.2207 16.5796 90.2207 16.5794C90.2207 16.5792 90.2207 16.579 90.2207 16.5789C90.2207 16.5787 90.2207 16.5785 90.2207 16.5783C90.2207 16.5781 90.2207 16.5779 90.2207 16.5778C90.2207 16.5776 90.2207 16.5774 90.2207 16.5772C90.2207 16.577 90.2207 16.5768 90.2207 16.5767C90.2207 16.5765 90.2207 16.5763 90.2207 16.5761C90.2207 16.5759 90.2207 16.5757 90.2207 16.5756C90.2207 16.5754 90.2207 16.5752 90.2207 16.575C90.2207 16.5748 90.2207 16.5746 90.2207 16.5745C90.2207 16.5743 90.2207 16.5741 90.2207 16.5739C90.2207 16.5737 90.2207 16.5735 90.2207 16.5734C90.2207 16.5732 90.2207 16.573 90.2207 16.5728C90.2207 16.5726 90.2207 16.5724 90.2207 16.5723C90.2207 16.5721 90.2207 16.5719 90.2207 16.5717C90.2207 16.5715 90.2207 16.5714 90.2207 16.5712C90.2207 16.571 90.2207 16.5708 90.2207 16.5706C90.2207 16.5704 90.2207 16.5703 90.2207 16.5701C90.2207 16.5699 90.2207 16.5697 90.2207 16.5695C90.2207 16.5693 90.2207 16.5692 90.2207 16.569C90.2207 16.5688 90.2207 16.5686 90.2207 16.5684C90.2207 16.5682 90.2207 16.5681 90.2207 16.5679C90.2207 16.5677 90.2207 16.5675 90.2207 16.5673C90.2207 16.5671 90.2207 16.567 90.2207 16.5668C90.2207 16.5666 90.2207 16.5664 90.2207 16.5662C90.2207 16.566 90.2207 16.5659 90.2207 16.5657C90.2207 16.5655 90.2207 16.5653 90.2207 16.5651C90.2207 16.5649 90.2207 16.5648 90.2207 16.5646C90.2207 16.5644 90.2207 16.5642 90.2207 16.564C90.2207 16.5638 90.2207 16.5637 90.2207 16.5635C90.2207 16.5633 90.2207 16.5631 90.2207 16.5629C90.2207 16.5627 90.2207 16.5626 90.2207 16.5624C90.2207 16.5622 90.2207 16.562 90.2207 16.5618C90.2207 16.5616 90.2207 16.5615 90.2207 16.5613C90.2207 16.5611 90.2207 16.5609 90.2207 16.5607C90.2207 16.5605 90.2207 16.5604 90.2207 16.5602C90.2207 16.56 90.2207 16.5598 90.2207 16.5596C90.2207 16.5594 90.2207 16.5593 90.2207 16.5591C90.2207 16.5589 90.2207 16.5587 90.2207 16.5585C90.2207 16.5583 90.2207 16.5582 90.2207 16.558C90.2207 16.5578 90.2207 16.5576 90.2207 16.5574C90.2207 16.5573 90.2207 16.5571 90.2207 16.5569C90.2207 16.5567 90.2207 16.5565 90.2207 16.5563C90.2207 16.5562 90.2207 16.556 90.2207 16.5558C90.2207 16.5556 90.2207 16.5554 90.2207 16.5552C90.2207 16.5551 90.2207 16.5549 90.2207 16.5547C90.2207 16.5545 90.2207 16.5543 90.2207 16.5541C90.2207 16.554 90.2207 16.5538 90.2207 16.5536C90.2207 16.5534 90.2207 16.5532 90.2207 16.553C90.2207 16.5529 90.2207 16.5527 90.2207 16.5525C90.2207 16.5523 90.2207 16.5521 90.2207 16.5519C90.2207 16.5518 90.2207 16.5516 90.2207 16.5514C90.2207 16.5512 90.2207 16.551 90.2207 16.5508C90.2207 16.5507 90.2207 16.5505 90.2207 16.5503C90.2207 16.5501 90.2207 16.5499 90.2207 16.5497C90.2207 16.5496 90.2207 16.5494 90.2207 16.5492C90.2207 16.549 90.2207 16.5488 90.2207 16.5486C90.2207 16.5485 90.2207 16.5483 90.2207 16.5481C90.2207 16.5479 90.2207 16.5477 90.2207 16.5475C90.2207 16.5474 90.2207 16.5472 90.2207 16.547C90.2207 16.5468 90.2207 16.5466 90.2207 16.5464C90.2207 16.5463 90.2207 16.5461 90.2207 16.5459C90.2207 16.5457 90.2207 16.5455 90.2207 16.5453C90.2207 16.5452 90.2207 16.545 90.2207 16.5448C90.2207 16.5446 90.2207 16.5444 90.2207 16.5443C90.2207 16.5441 90.2207 16.5439 90.2207 16.5437C90.2207 16.5435 90.2207 16.5433 90.2207 16.5432C90.2207 16.543 90.2207 16.5428 90.2207 16.5426C90.2207 16.5424 90.2207 16.5422 90.2207 16.5421C90.2207 16.5419 90.2207 16.5417 90.2207 16.5415C90.2207 16.5413 90.2207 16.5411 90.2207 16.541C90.2207 16.5408 90.2207 16.5406 90.2207 16.5404C90.2207 16.5402 90.2207 16.54 90.2207 16.5399C90.2207 16.5397 90.2207 16.5395 90.2207 16.5393C90.2207 16.5391 90.2207 16.5389 90.2207 16.5388C90.2207 16.5386 90.2207 16.5384 90.2207 16.5382C90.2207 16.538 90.2207 16.5378 90.2207 16.5377C90.2207 16.5375 90.2207 16.5373 90.2207 16.5371H88.2207ZM88.2207 16.8184C88.2207 18.3245 88.3068 19.5125 88.5301 20.2795L90.4504 19.7205C90.3143 19.2532 90.2207 18.32 90.2207 16.8184H88.2207ZM89.4902 19H87.7617V21H89.4902V19Z"
     fill="white"
     id="path6" />
  <path
     d="m 65.8359,14.4336 c -0.2968,0 -0.4453,0.2676 -0.4453,0.8027 v 0.7383 c 0,1.3594 0.0137,2.1992 0.041,2.5195 0.0313,0.3164 0.0606,0.5371 0.0879,0.6621 0.0313,0.125 0.0723,0.2364 0.1231,0.334 0.082,0.1602 0.2461,0.3301 0.4922,0.5098 h -2.4903 c 0.1446,-0.2891 0.2325,-0.5352 0.2637,-0.7383 0.0313,-0.2031 0.0547,-0.4179 0.0703,-0.6445 0.0313,-0.461 0.0469,-1.0801 0.0469,-1.8574 0,-0.9414 -0.0156,-1.8008 -0.0469,-2.5782 L 63.9141,12.5703 C 63.8984,12.1641 63.8633,11.8809 63.8086,11.7207 63.7227,11.4668 63.582,11.2383 63.3867,11.0352 h 3.2754 c 0.8828,0 1.5215,0.0937 1.916,0.2812 0.418,0.1953 0.627,0.5293 0.627,1.002 0,0.5781 -0.2481,1.0566 -0.7442,1.4355 C 67.875,14.207 67,14.4336 65.8359,14.4336 Z m 1.459,-1.0723 c 0.125,-0.125 0.2168,-0.2558 0.2754,-0.3925 0.0586,-0.1407 0.0879,-0.2696 0.0879,-0.3868 0,-0.1211 -0.0176,-0.2402 -0.0527,-0.3574 -0.0313,-0.1172 -0.0957,-0.2207 -0.1934,-0.3105 -0.2187,-0.1953 -0.5937,-0.293 -1.125,-0.293 -0.3203,0 -0.5293,0.0391 -0.6269,0.1172 -0.1797,0.1484 -0.2696,0.4394 -0.2696,0.873 0,0.4883 0.0391,0.791 0.1172,0.9082 0.0781,0.1133 0.168,0.1875 0.2695,0.2227 0.1016,0.0312 0.2559,0.0469 0.4629,0.0469 0.211,0 0.4082,-0.0411 0.5918,-0.1231 0.1875,-0.082 0.3418,-0.1836 0.4629,-0.3047 z m 6.9434,3.5098 -0.0176,1.125 c 0,0.6992 0.0645,1.1758 0.1934,1.4297 0.0781,0.1523 0.1699,0.2695 0.2754,0.3515 L 74.9648,20 H 73.2656 L 73.084,19.3203 c -0.4414,0.5313 -1.0703,0.7969 -1.8867,0.7969 -0.4649,0 -0.8399,-0.1563 -1.125,-0.4688 -0.25,-0.2812 -0.375,-0.6132 -0.375,-0.9961 0,-0.3828 0.0898,-0.7168 0.2695,-1.0019 0.1836,-0.2852 0.4238,-0.5215 0.7207,-0.709 0.5859,-0.3633 1.3223,-0.5527 2.209,-0.5684 v -0.0644 c 0,-0.9492 -0.1465,-1.5059 -0.4395,-1.6699 -0.1054,-0.0586 -0.2422,-0.0879 -0.4101,-0.0879 -0.1641,0 -0.3281,0.0547 -0.4922,0.164 -0.1641,0.1094 -0.3125,0.25 -0.4453,0.4219 -0.2656,0.3477 -0.4551,0.7578 -0.5684,1.2305 -0.3476,-0.207 -0.5215,-0.6035 -0.5215,-1.1895 0,-0.2382 0.0313,-0.5058 0.0938,-0.8027 0.1484,0 0.289,-0.0215 0.4219,-0.0645 l 0.4511,-0.1406 c 0.4414,-0.1367 0.8731,-0.2051 1.2949,-0.2051 0.4219,0 0.7579,0.0625 1.0079,0.1875 0.2539,0.125 0.4511,0.3106 0.5918,0.5567 0.2382,0.418 0.3574,1.1387 0.3574,2.1621 z m -3.2754,1.8984 c 0,0.2422 0.0547,0.4297 0.1641,0.5625 0.1132,0.1328 0.2539,0.1992 0.4218,0.1992 0.168,0 0.3301,-0.0429 0.4864,-0.1289 0.1562,-0.0898 0.2968,-0.2109 0.4218,-0.3632 0.293,-0.3477 0.4395,-0.7559 0.4395,-1.2246 v -0.8672 c -0.5469,0.0507 -0.9981,0.2324 -1.3535,0.5449 -0.3868,0.3359 -0.5801,0.7617 -0.5801,1.2773 z M 77.127,14.457 c 0.4375,-0.3281 0.9843,-0.4922 1.6406,-0.4922 0.9297,0 1.5371,0.3848 1.8222,1.1543 0.0938,0.2539 0.1407,0.5743 0.1407,0.961 0,0.3828 -0.045,0.7578 -0.1348,1.125 -0.0859,0.3633 -0.207,0.6914 -0.3633,0.9844 -0.1562,0.2929 -0.3418,0.5507 -0.5566,0.7734 -0.211,0.2226 -0.4414,0.4082 -0.6914,0.5566 -0.5,0.3008 -1.0313,0.459 -1.5938,0.4746 0.0078,0.211 0.0196,0.418 0.0352,0.6211 l 0.0586,0.6211 c 0.0351,0.4219 0.1562,0.7793 0.3633,1.0723 l 0.1992,0.2695 h -2.1387 c 0.1094,-0.375 0.1719,-0.75 0.1875,-1.125 0.0195,-0.375 0.0332,-0.6972 0.041,-0.9668 0.0117,-0.2656 0.0195,-0.541 0.0235,-0.8261 0.0156,-0.6641 0.0234,-1.2461 0.0234,-1.7461 0,-1.6094 -0.0508,-2.5938 -0.1524,-2.9532 -0.0624,-0.2226 -0.1425,-0.4004 -0.2402,-0.5332 L 75.5449,14.082 h 1.5762 c -0.0234,0.0782 -0.0215,0.2032 0.0059,0.375 z m 2.1386,1.7754 c 0,-1.1211 -0.2832,-1.6816 -0.8496,-1.6816 -0.2812,0 -0.5156,0.125 -0.7031,0.375 -0.2031,0.2695 -0.3047,0.6387 -0.3047,1.1074 l -0.041,2.7773 v 0.3223 c 0,0.1055 0.0019,0.2129 0.0058,0.3223 0.5665,-0.086 1.0254,-0.4258 1.377,-1.0196 0.3438,-0.5859 0.5156,-1.3203 0.5156,-2.2031 z m 6.8555,1.7754 c 0.1406,0.0938 0.2109,0.2578 0.2109,0.4922 0,0.2305 -0.0312,0.4336 -0.0937,0.6094 -0.0625,0.1758 -0.1719,0.3398 -0.3281,0.4922 -0.3516,0.3437 -0.8868,0.5156 -1.6055,0.5156 -0.8359,0 -1.4727,-0.3086 -1.9102,-0.9258 -0.3867,-0.5508 -0.58,-1.2949 -0.58,-2.2324 0,-0.9453 0.2617,-1.6875 0.7851,-2.2266 0.4961,-0.5117 1.168,-0.7676 2.0156,-0.7676 0.5899,0 1.0508,0.1719 1.3828,0.5157 0.2618,0.2734 0.3926,0.5898 0.3926,0.9492 0,0.3555 -0.0703,0.6777 -0.2109,0.9668 -0.1367,0.2851 -0.3399,0.5312 -0.6094,0.7383 -0.5547,0.4297 -1.3301,0.6562 -2.3262,0.6797 0.0821,0.7851 0.3282,1.3105 0.7383,1.5761 0.1485,0.0938 0.3457,0.1406 0.5918,0.1406 0.2461,0 0.5078,-0.1289 0.7852,-0.3867 0.2773,-0.2578 0.5312,-0.6367 0.7617,-1.1367 z m -2.9121,-0.75 c 1.2344,-0.082 1.8515,-0.6797 1.8515,-1.793 0,-0.4179 -0.125,-0.6992 -0.375,-0.8437 -0.0859,-0.0469 -0.1992,-0.0703 -0.3398,-0.0703 -0.1406,0 -0.2832,0.043 -0.4277,0.1289 -0.1407,0.0859 -0.2637,0.2265 -0.3692,0.4219 -0.2265,0.4257 -0.3398,1.0839 -0.3398,1.9746 z M 87.7617,20 c 0.1797,-0.6172 0.2695,-1.6777 0.2695,-3.1816 0,-1.0704 -0.0859,-1.8008 -0.2578,-2.1914 -0.0703,-0.1602 -0.1953,-0.3418 -0.375,-0.545 h 2.0801 c -0.0703,0.2461 -0.1269,0.584 -0.1699,1.0137 0.3672,-0.4609 0.8789,-0.7871 1.5352,-0.9785 0.2812,-0.082 0.4863,-0.211 0.6152,-0.3867 0.1289,0.3086 0.1933,0.5742 0.1933,0.7968 0,0.2227 -0.0117,0.4297 -0.0351,0.6211 -0.0234,0.1875 -0.0586,0.3711 -0.1055,0.5508 -0.1015,0.3867 -0.2363,0.6875 -0.4043,0.9024 -0.1445,-0.7618 -0.3691,-1.2071 -0.6738,-1.336 -0.3516,-0.1523 -0.6953,0.0547 -1.0313,0.6211 -0.0703,0.1172 -0.1289,0.2422 -0.1757,0.375 -0.0039,0.0899 -0.0059,0.1817 -0.0059,0.2754 0,0.0938 0,0.1875 0,0.2813 0,1.5039 0.0898,2.5644 0.2695,3.1816 z"
     fill="#232323"
     id="path4"
     style="display:inline" />
  <g
     clip-path="url(#clip0_11_65)"
     id="g50">
    <path
       d="m 60.6458,186.815 c -0.6186,-1.549 -0.5379,-1.395 0.5345,-0.362 0.5583,0.538 2.5521,3.193 2.6255,2.955 0.2675,-0.868 -3.0723,-7.159 -10.6318,-16.838 -11.0064,-14.091 -12.4866,-20.669 -9.8329,-36.928 0.6795,-4.163 1.3207,-11.319 1.661,-18.872 0.1447,-3.211 -0.0221,-6.165 0.2064,-8.66 0.6219,-6.791 1.8178,-10.4055 2.2886,-8.227 0.1559,0.721 0.3791,4.272 0.3312,5.133 l 0.1844,1.627 3.337,-0.039 c 0.9727,-0.012 3.5517,-0.173 3.8709,-0.616 0.2701,-0.375 -0.3949,-5.336 -0.5118,-6.7729 -0.0164,-0.1948 -6.539,-1.4522 -6.7057,-1.9673 -0.3022,-0.9336 5.6773,-0.9045 5.8218,-0.4305 0.1375,0.4511 2.6517,3.3557 2.8836,3.7317 0.8733,1.417 1.1326,6.72 1.0229,16.63 -0.0082,0.913 -0.206,1.952 -0.2127,2.943 -0.086,12.617 0.1645,16.313 1.5748,19.387 0.6158,1.342 1.7494,2.298 1.7494,2.298 0,0 -0.235,-0.547 -0.4502,-1.499 -1.4402,-6.368 -2.1899,-8.74 -1.6902,-28.948 0.0711,-2.878 0.2465,-6.232 0.3316,-9.899 0.7142,-30.7606 1.476,-36.5495 3.526,-40.8298 0.5749,-1.2004 2.9978,-3.1354 3.1806,-3.1298 0.0352,0.0011 1.6541,-0.1604 2.8286,0.1826 1.5172,0.4432 2.6721,1.4165 2.6721,1.4165 0,0 -1.741,-0.8078 -3.2272,-0.4295 -1.8432,0.4691 -3.2134,2.2056 -3.2474,2.5812 -0.11,1.2148 -0.092,2.8617 -0.2062,3.787 l 0.3374,1.6715 3.0779,-0.0795 c 0,0 3.0762,-0.4387 4.1181,0.1233 0.4466,0.4514 -0.2153,18.9043 -0.2153,18.9043 -0.8569,19.3512 -0.7723,30.0662 -0.336,29.6562 1.0842,-1.019 0.907,-7.034 1.6483,-32.6542 0.6476,-22.3837 1.1136,-29.5309 1.8269,-33.3686 0.5111,-2.7496 1.0919,-5.3767 1.4919,-5.6132 0.3891,-0.2301 2.5069,-0.8494 3.9026,-0.5272 1.4783,0.3413 4.1178,1.1725 3.9569,2.0853 l 1.308,6.7553 c 0,0 1.9848,0.8852 0.6728,22.884 0,0 0.1529,7.2775 -0.4115,8.1557 0.3868,1.1845 0.4081,5.0461 1.0191,19.3559 0.3679,8.641 1.4734,14.488 1.4734,14.488 0,0 0.1231,-9.211 -0.4894,-25.3556 -0.2189,-5.7705 -0.7302,-15.2359 -0.5793,-23.5394 0.072,-3.9643 0.1059,-7.7202 0.3053,-10.678 0.2729,-4.0467 0.7167,-6.6437 0.7167,-6.6437 0,0 1.1034,-0.1757 2.7898,-0.0745 1.4563,0.0874 1.979,0.7689 1.7385,1.0248 -0.153,0.1628 -1.0224,-0.1488 -1.608,-0.0043 1.2424,0.7965 1.2048,1.092 2.0386,2.4111 2.4825,3.1228 3.4415,12.6011 3.7953,34.6984 0.1457,9.1017 0.4837,18.3602 0.6949,20.5722 0.5917,6.197 1.3746,10.712 1.3746,10.712 0,0 -0.1551,-2.438 -0.2588,-5.379 -0.1036,-2.941 -0.2277,-12.858 -0.2847,-22.0269 -0.057,-9.1691 -0.3473,-17.7051 -0.505,-19.0043 -0.3411,-2.8112 0.2404,-4.526 1.1706,-4.8503 0.2309,-0.0805 1.6128,-0.289 2.0348,-0.0784 0.445,0.2222 2.308,2.8066 2.308,2.8066 l 0.66,4.8249 c 0,0 0.25,4.2011 1.339,14.6467 2.585,25.5617 2.662,26.1887 1.688,57.2047 -0.863,27.509 -1.178,28.84 -2.445,34.058 -0.725,2.987 -1.296,6.252 -1.329,7.294 L 103.719,192 90.3209,191.339 C 83.2373,190.99 74.0004,191.3 69.8132,191.34 l -8.8243,0.4 c 0,0 0.4908,-2.393 0.2652,-3.001 -0.2047,-0.552 -0.6081,-1.924 -0.6081,-1.924 z m -6.449,-67.972 c 0,0 -0.8532,0.196 -2.2969,0.029 -2.1543,-0.043 -2.4186,0.092 -2.4146,0.464 0.0028,0.275 0.3261,0.409 2.1767,0.171 1.2229,-0.156 2.5348,-0.664 2.5348,-0.664 z"
       fill="#ffffff"
       id="path8"
       style="display:inline"
       inkscape:label="white fill"
       clip-path="none" />
    <path
       d="m 48.449,102.439 c -0.4737,-3.3542 -0.6224,-4.2388 2.2884,-4.1151 4.0711,0.263 3.1274,1.1409 3.6706,3.8711 0.804,4.041 -0.3425,3.784 -3.2625,3.706 l -2.2292,-0.152 z"
       fill="#ffffff"
       id="path10"
       style="display:inline"
       inkscape:label="white fill finger"
       clip-path="none" />
    <path
       d="m 65.2323,62.7405 c -0.0758,-1.9362 0.3038,-2.5675 1.1546,-2.9896 2.231,-1.1067 5.7576,0.4567 5.2075,4.4404 -0.1528,1.1064 -1.3935,2.3259 -3.6036,1.8782 l -2.6382,-0.2559 z"
       fill="#ffffff"
       id="path14"
       style="display:inline;fill:#ffffff;fill-opacity:1" />
    <path
       d="m 79.4658,52.6947 c -24.1391,-7.869 -12.0696,-3.9345 0,0 z"
       fill="#ffffff"
       id="path12"
       style="display:inline;fill:#232323;fill-opacity:1" />
    <path
       d="m 103.834,98.8853 c 0.083,1.4417 -1.969,0.7219 -1.813,2.2377 0.773,0.789 2.778,0.515 3.152,-0.43 -0.349,-0.103 -0.888,-0.018 -0.897,-0.455 0.349,-0.099 0.887,-0.007 0.902,-0.4446 -0.641,-0.1113 -0.754,-0.7457 -1.344,-0.9081 z"
       fill="#000000"
       id="path16"
       style="fill:#232323;fill-opacity:1" />
    <path
       d="m 103.648,129.473 c -0.519,0.566 -0.925,3.541 -0.024,4.049 -0.163,-1.549 2.276,-2.791 0.924,-4.044 -0.099,0.543 -0.501,0.275 -0.9,-0.005 z"
       fill="#000000"
       id="path18"
       style="fill:#232323;fill-opacity:1" />
    <path
       d="m 102.894,105.627 c -0.463,0.68 0.397,2.918 1.327,3.607 0.169,-1.807 0.013,-3.291 -1.327,-3.607 z"
       fill="#000000"
       id="path20"
       style="fill:#232323;fill-opacity:1" />
    <path
       d="m 89.5095,87.5524 c 1.0526,-0.412 3.6274,-1.6057 1.7991,0.0109 0.8417,0.5216 3.7366,0.0972 3.6093,-1.7772 -2.5789,-0.1972 -4.8859,-0.1185 -5.4084,1.7663 z"
       fill="#000000"
       id="path22"
       style="fill:#232323;fill-opacity:1" />
    <path
       d="m 104.346,151.435 -0.041,6.747 c 0.312,0.269 1.628,-10.667 0.041,-6.747 z"
       fill="#000000"
       id="path24"
       style="fill:#232323;fill-opacity:1" />
    <path
       d="m 79.3365,59.1509 c 0.6993,0.1215 0.3059,0.9885 -0.0082,1.3492 0.7655,-1.186 3.3988,-0.481 4.5061,-1.3218 -0.6773,-0.5522 -3.8687,-0.907 -4.4979,-0.0274 z"
       fill="#000000"
       id="path26"
       style="fill:#232323;fill-opacity:1" />
    <path
       d="m 78.2761,85.6848 c 1.7026,-0.3882 3.8635,-0.3132 4.9557,-1.3198 -2.0484,0.0386 -4.1893,-0.0168 -4.9557,1.3198 z"
       fill="#000000"
       id="path28"
       style="fill:#232323;fill-opacity:1" />
    <path
       d="m 79.3986,123.028 c 0.2893,2.546 -0.8091,6.462 0.8531,7.652 -0.2772,-3.474 1.1632,-5.897 -0.8531,-7.652 z"
       fill="#000000"
       id="path30"
       style="fill:#232323;fill-opacity:1" />
    <path
       d="m 65.3185,71.6611 c 0.5506,0.6485 1.5415,0.8615 2.6934,0.916 0.4341,-0.7672 1.4976,-0.897 1.8096,-1.7882 -1.3708,0.4229 -4.5553,-0.991 -4.503,0.8722 z"
       fill="#000000"
       id="path32"
       style="fill:#232323;fill-opacity:1" />
    <path
       d="m 65.6692,87.8585 c 1.3608,-0.1319 3.4951,0.5209 3.6039,-0.8777 -1.131,0.3633 -3.8669,-0.8983 -3.6039,0.8777 z"
       fill="#000000"
       id="path34"
       style="fill:#232323;fill-opacity:1" />
    <path
       d="m 64.5499,123.838 c -0.3158,1.642 -0.6473,3.266 -0.4823,5.395 1.373,-0.439 2.4781,-3.504 1.3791,-4.941 -0.1916,2.789 -0.2301,-0.031 -0.8968,-0.454 z"
       fill="#000000"
       id="path36"
       style="fill:#232323;fill-opacity:1" />
    <path
       d="m 49.2821,119.696 c 1.975,0.038 3.7189,-0.159 4.9533,-0.87 -1.4988,0.444 -4.8868,-1.024 -4.9533,0.87 z"
       fill="#000000"
       id="path38"
       style="fill:#232323;fill-opacity:1" />
    <path
       d="m 93.2705,134.808 c -0.2781,-2.085 1.796,-3.689 0.0327,-5.398 0.5387,2.076 -1.4017,3.982 -0.0327,5.398 z"
       fill="#000000"
       id="path40"
       style="fill:#232323;fill-opacity:1" />
    <path
       d="m 102.345,175.377 c -0.082,-2.949 0.47,-5.257 0.945,-7.642 -1.47,0.88 -1.691,7.497 -0.945,7.642 z"
       fill="#000000"
       id="path42"
       style="fill:#232323;fill-opacity:1" />
    <path
       d="m 64.7523,90.5507 c 0.9067,-0.466 4.8496,-0.1857 4.0538,-0.8749 -1.5214,-0.157 -4.7142,0.3221 -4.0538,0.8749 z"
       fill="#000000"
       id="path44"
       style="fill:#232323;fill-opacity:1" />
    <path
       d="m 63.861,89.196 c 2.2595,-0.254 3.6279,-0.1098 4.9505,-0.4198 -1.0582,-0.7411 -4.4389,-0.808 -4.9505,0.4198 z"
       fill="#000000"
       id="path46"
       style="display:inline;fill:#232323;fill-opacity:1" />
    <path
       d="m 64.9409,59.5138 c -0.6822,1.7937 -0.7041,5.3956 -0.0437,7.1971 2.5404,0.4456 5.9208,-0.6257 7.1962,0.0438 -0.5686,16.8279 -0.8853,31.1131 -0.7444,48.5773 2.9171,-7.515 1.4778,-17.2894 1.9632,-26.978 0.773,-15.4563 -0.3449,-31.4071 2.9661,-44.0653 1.9548,-1.5444 7.046,-1.081 8.0903,0.9488 -2.1551,-1.0489 -4.7634,-0.0653 -6.3022,0.8613 -0.0823,2.9126 -0.139,5.8012 0.8528,7.6521 2.7716,-0.0608 6.3355,0.6808 6.7575,-1.7581 -0.5558,11.4613 1.241,20.2527 0.2616,31.0396 -2.1085,-0.1318 -6.008,-1.4735 -6.7521,0.8585 1.9074,-0.4387 4.9233,-0.769 6.7466,0.0411 1.2424,10.5467 0.1733,23.377 2.4997,32.853 0.7302,-22.3686 -2.4807,-46.3374 -0.0487,-66.1253 1.5576,0.2496 4.2699,-0.6422 4.4926,0.927 -1.7587,-0.2724 -2.614,0.3711 -3.604,0.8776 0.328,2.9352 -0.6144,5.8354 -0.0464,7.6463 1.3688,-0.2731 3.8706,0.5997 4.5007,-0.4226 -5.551,1.9308 -4.4336,-6.3106 -1.7553,-7.2072 2.9406,2.4091 3.4082,7.4487 3.977,11.7199 2.2628,16.9886 -0.4026,39.9843 3.26,55.7983 -0.7375,-13.087 -0.268,-30.9287 -0.6348,-43.637 -0.0745,-2.5763 -2.198,-8.1066 2.7454,-7.6301 -1.639,1.2077 -1.4284,4.2866 -1.3932,7.1887 0.4532,0.8992 3.2092,-0.9271 4.0452,0.4743 1.801,18.3796 4.899,40.9741 3.682,60.3001 -0.938,14.911 -0.136,29.651 -2.055,42.271 -0.681,4.477 -2.735,8.834 -1.879,13.034 2.85,-7.978 3.696,-17.054 4.212,-26.964 0.613,-11.783 2.386,-24.884 2.02,-36.424 -0.077,-2.424 -1.075,-4.878 -1.306,-7.205 -1.869,-18.864 -0.397,-38.2934 -5.971,-53.5669 -1.265,-1.2725 -4.2899,-0.6274 -5.3928,-0.9324 C 96.2152,58.9056 97.6144,46.4633 87.0429,49.3019 87.2442,47.165 86.4089,46.0536 86.1734,44.3478 83.945,42.6619 79.6185,41.2108 75.8389,42.486 72.3481,44.9864 73.9909,52.6843 72.6,57.3109 68.831,54.5851 63.0267,56.6312 60.8921,59.4885 58.584,70.8808 58.3554,84.3776 57.9611,97.707 55.9505,95.5426 51.7968,94.0498 47.6297,95.3945 c -5.954,9.8285 -2.8631,24.6655 -4.7164,35.9575 -0.9251,5.635 -2.395,7.64 -2.7726,12.129 -1.6471,19.599 11.5604,23.412 16.8658,37.439 0.6954,1.84 0.8513,4.043 1.3136,5.856 0.3276,1.279 -0.0994,4.777 2.6689,4.964 1.892,-0.021 -0.7659,-5.023 0.0328,-5.398 0.9749,0.56 2.4417,4.79 3.1325,2.719 -4.5474,-12.795 -19.996,-22.363 -21.8076,-38.37 -0.9243,-8.168 1.7044,-15.834 2.3968,-24.276 0.7631,-9.309 -0.6119,-18.613 2.4128,-26.9749 0.7968,1.8949 0.2652,5.1029 0.8558,7.2019 2.5873,0.055 5.1943,0.129 7.1993,-0.406 0.827,-2.483 -0.1422,-4.992 -0.4035,-7.6493 -1.994,-1.1745 -5.1618,-0.9098 -6.7384,-1.3903 17.7292,-6.0574 3.44,37.6776 12.7733,44.6106 C 57.4041,130.09 58.9568,105.498 59.8186,88.2707 60.435,75.9508 58.817,51.3128 71.2407,59.1008 c -1.6641,-0.9982 -5.0064,-0.4067 -6.2998,0.413 z m 39.0411,15.0823 c -0.791,0.4064 -2.246,0.1409 -2.705,0.8832 -0.622,-1.5166 -1.03,-3.9351 -0.416,-5.4014 3.042,-0.4717 2.603,2.4962 3.121,4.5182 z M 84.3225,52.8842 79.3746,52.8541 c -0.6824,-1.5612 -0.3726,-4.1032 -0.4117,-6.3002 4.0769,-2.9612 7.3679,1.9418 5.3596,6.3303 z M 70.7521,65.3969 c -1.0923,0.8549 -3.616,0.2616 -5.4002,0.4167 l 0.03,-4.9482 c 2.7295,-3.4765 7.907,0.2936 5.3702,4.5315 z M 54.3166,105.331 c -1.3541,0.591 -3.4441,0.437 -5.4009,0.417 0.1555,-2.537 -0.7732,-4.005 -0.4087,-6.7493 1.3897,-0.935 4.4436,-0.424 5.3955,0.4828 -0.1183,2.2035 0.7718,3.4105 0.4141,5.8495 z"
       fill="#000000"
       id="path48"
       style="display:inline;fill:#232323;fill-opacity:1"
       inkscape:label="innerline" />
  </g>
  <defs
     id="defs55">
    <clipPath
       id="clip0_11_65">
      <rect
         width="70"
         height="150"
         fill="white"
         transform="translate(40 42)"
         id="rect52" />
    </clipPath>
  </defs>
</svg>
