<?xml version="1.0" encoding="UTF-8" standalone="no"?>
<svg
   width="155"
   height="192"
   viewBox="0 0 155 192"
   fill="none"
   version="1.1"
   id="svg37"
   sodipodi:docname="rock-card.svg"
   inkscape:version="1.1.1 (3bf5ae0d25, 2021-09-20)"
   xmlns:inkscape="http://www.inkscape.org/namespaces/inkscape"
   xmlns:sodipodi="http://sodipodi.sourceforge.net/DTD/sodipodi-0.dtd"
   xmlns="http://www.w3.org/2000/svg"
   xmlns:svg="http://www.w3.org/2000/svg">
  <sodipodi:namedview
     id="namedview39"
     pagecolor="#ffffff"
     bordercolor="#999999"
     borderopacity="1"
     inkscape:pageshadow="0"
     inkscape:pageopacity="0"
     inkscape:pagecheckerboard="0"
     showgrid="false"
     inkscape:zoom="4.2916667"
     inkscape:cx="77.475728"
     inkscape:cy="96.116505"
     inkscape:window-width="1920"
     inkscape:window-height="1009"
     inkscape:window-x="-8"
     inkscape:window-y="760"
     inkscape:window-maximized="1"
     inkscape:current-layer="svg37" />
  <rect
     x="155"
     y="192"
     width="155"
     height="192"
     rx="19"
     transform="rotate(180,155,192)"
     fill="#232323"
     id="rect2"
     style="display:inline" />
  <g
     clip-path="url(#clip0_11_63)"
     id="g26">
    <path
       d="M39.1625 189.738C39.8085 186.433 42.0348 179.177 44.5272 172.254C50.1937 156.515 52.045 149.875 52.8583 142.375C53.7674 133.991 53.2081 128.886 49.5169 111.876C46.7891 99.3051 46.0825 93.4639 46.4937 86.8859C46.9998 78.7924 49.2991 75.1151 55.3694 72.6913C66.091 68.4104 94.7314 65.9141 100.618 68.7474C102.159 69.4894 103.534 71.159 103.741 72.5415L103.908 73.6515L102.776 74.0026L101.644 74.3538L103.058 75.543C105.784 77.8361 105.418 81.2432 102.144 84.0353C99.8134 86.0236 97.9136 86.5939 95.1206 86.1441C92.5703 85.7333 90.3469 86.1928 88.817 87.4469C88.2735 87.8924 87.0254 89.2487 86.0434 90.4608C83.4474 93.665 82.7305 94.048 80.6243 93.3553C77.3419 92.2757 75.3253 90.2698 73.7699 86.5369C72.8755 84.3904 72.7995 84.2852 72.4802 84.7515C72.3572 84.9312 72.367 86.1991 72.7645 87.4569C73.8017 90.7395 72.9731 89.8651 70.9845 86.2161C69.5159 83.5213 68.7825 82.857 69.0194 84.4361C69.161 85.3792 69.1046 85.5064 68.522 85.5586C66.2499 85.7622 67.7868 87.7217 72.9169 91.1624C77.7475 94.4022 79.6356 95.9892 79.4716 96.6719C79.1364 98.0661 75.5041 99.2758 72.7754 98.9021C69.4958 98.4528 67.3434 97.4426 63.5535 94.5736L60.1173 91.9724L60.4497 93.3563C61.2532 96.702 64.6918 98.9767 71.7332 100.821C74.3593 101.508 76.6682 102.182 76.864 102.318C77.1835 102.54 76.8063 105.832 76.4576 105.865C76.3786 105.873 74.7595 105.42 72.8595 104.859C70.9595 104.298 69.3094 103.95 69.1926 104.086C68.669 104.697 70.1196 105.891 72.736 107.003C76.4271 108.572 76.4703 108.946 73.1649 110.71C71.3876 111.658 70.5867 112.551 71.1623 112.943C71.2801 113.023 72.0305 112.77 72.8296 112.38C73.6288 111.99 77.3461 110.427 81.0904 108.907C91.7046 104.597 93.7745 103.421 101.144 97.51C108.233 91.8234 110.554 90.6307 113.45 91.1849C116.266 91.7237 119.367 95.159 119.814 98.2334C119.971 99.316 120.675 101.878 120.375 101.401C120.163 101.065 118.472 97.8093 117.528 97.0889L115.81 95.7791L117.163 97.4624C119.652 100.56 120.277 103.355 119.212 106.614C118.364 109.208 113.798 115.76 109.969 119.874C108.332 121.634 106.691 123.508 106.322 124.039C105.401 125.366 104.643 127.707 103.982 131.273C103.46 134.089 103.27 134.54 101.077 138.171C98.8139 141.919 97.8854 144.102 98.4024 144.462C98.5461 144.562 99.595 142.949 100.749 141.038C102.111 138.785 102.824 137.819 103.023 137.958C103.183 138.069 103.314 139.421 103.457 140.579C103.908 144.245 103.634 148.249 102.717 151.374C101.751 154.668 101.633 154.854 91.6168 168.93C86.8684 175.603 87.2778 174.642 84.9943 184.47C84.1855 187.951 83.4097 190.963 83.2703 191.164C82.9827 191.577 79.3378 191.671 79.1634 191.27C79.1009 191.126 79.4568 190.241 79.9544 189.302C81.6308 186.138 81.6929 185.895 80.8491 185.799C79.9318 185.694 78.2634 186.734 77.4561 187.912C76.8708 188.767 76.8773 188.785 77.7328 188.671C78.55 188.562 78.5993 188.594 78.4669 189.145C78.3888 189.469 77.9761 189.945 77.5498 190.202C77.1234 190.46 76.6238 190.876 76.4397 191.127C76.225 191.421 69.5214 191.59 57.7665 191.598C47.6805 191.606 39.2926 191.578 39.1267 191.537C38.9608 191.496 38.9768 190.686 39.1623 189.738L39.1625 189.738ZM77.8218 186.019C78.3935 185.932 78.9669 185.707 79.096 185.518C79.2252 185.329 79.9178 185.013 80.6351 184.815C81.9038 184.465 81.9467 184.42 82.2107 183.144C82.36 182.422 82.9072 180.76 83.4268 179.449C85.6784 173.769 84.3774 174.066 81.7299 179.837C79.8663 183.899 79.1924 184.762 77.2676 185.552C76.179 185.998 76.4514 186.228 77.8218 186.019L77.8218 186.019ZM76.6416 133.786C77.5193 132.739 78.8818 128.802 78.4149 128.662C77.8258 128.486 75.9261 130.159 75.3825 131.333C74.8219 132.543 74.9086 134.339 75.5366 134.526C75.75 134.59 76.2472 134.257 76.6415 133.786L76.6416 133.786ZM86.7346 141.312C87.9164 140.321 91.5453 134.783 92.0644 133.179C92.6846 131.262 92.0857 131.572 89.9051 134.294C88.9877 135.44 87.7284 136.936 87.1067 137.618C86.0375 138.791 86.0178 138.855 86.7438 138.792C87.4614 138.731 87.4596 138.775 86.7161 139.473C85.2464 140.855 85.2633 142.546 86.7347 141.312L86.7346 141.312ZM79.8133 124.558C80.1445 124.074 81.6778 122.396 83.2206 120.83C84.7635 119.263 86.003 117.856 85.9751 117.703C85.8011 116.746 82.6034 118.423 80.6636 120.489C79.5723 121.65 79.4131 121.932 79.7949 122.025C80.1499 122.112 80.0375 122.468 79.3281 123.504C78.623 124.534 78.4941 124.938 78.8025 125.153C79.0807 125.346 79.4035 125.156 79.8133 124.558V124.558ZM83.9171 116.215C84.209 115.789 85.7626 114.692 87.3696 113.778C90.228 112.153 92.3065 110.644 92.2343 110.247C92.166 109.871 86.488 112.459 85.1483 113.476C84.3171 114.108 83.6295 114.899 83.3373 115.561C82.7699 116.846 83.1733 117.301 83.9171 116.215ZM113.136 95.5336C113.622 95.6537 114.151 95.5593 114.312 95.3237C114.556 94.967 114.345 94.7602 113.049 94.0839C111.51 93.281 110.595 93.1157 110.275 93.5828C110.052 93.9079 112.038 95.2618 113.136 95.5336L113.136 95.5336ZM101.428 77.7205C101.787 77.196 101.061 75.2874 100.271 74.6784C98.9696 73.6762 98.6866 74.3131 99.6971 75.969C100.672 77.566 101.181 78.0814 101.428 77.7205Z"
       fill="white"
       stroke="white"
       stroke-width="0.3175"
       id="path4" />
    <path
       d="M107.259 83.2608C107.369 83.099 107.938 77.9311 108.123 75.4087L108.26 73.5417L108.769 73.6562C109.509 73.8229 110.771 74.6285 112.403 75.9779C113.501 76.8848 113.828 77.2062 113.795 77.3439C113.722 77.6486 113.371 77.653 112.942 77.3548C112.42 76.9918 111.836 76.8305 111.561 76.9732C111.249 77.1353 111.249 77.1361 111.697 77.5293C111.963 77.7624 112.175 78.0912 112.301 78.4641C112.697 79.6357 112.959 80.1089 113.436 80.5202C113.863 80.8875 113.913 80.9864 113.905 81.4453C113.898 81.8061 113.787 82.1402 113.532 82.5664C113.206 83.11 113.097 83.206 112.485 83.4818C111.603 83.88 110.294 83.9756 108.845 83.7475C107.425 83.524 107.139 83.4361 107.259 83.2609L107.259 83.2608Z"
       fill="white"
       stroke="white"
       stroke-width="0.194469"
       id="path6" />
    <path
       fill-rule="evenodd"
       clip-rule="evenodd"
       d="M76.1115 191.785C76.4964 190.248 78.9247 190.762 78.7125 188.626C78.4969 187.73 78.0404 188.738 77.1481 188.629C78.0452 187.257 79.0187 185.961 81.3146 185.992C80.6285 188.1 79.3235 189.589 78.7191 191.779L76.1115 191.785Z"
       fill="#232323"
       id="path8" />
    <path
       fill-rule="evenodd"
       clip-rule="evenodd"
       d="M76.6197 186.002C81.5973 184.878 81.371 178.532 84.4204 175.473C84.0335 179.05 81.6549 181.82 81.8315 184.414C79.3559 184.202 79.0953 186.214 76.6197 186.002V186.002Z"
       fill="#232323"
       id="path10" />
    <path
       fill-rule="evenodd"
       clip-rule="evenodd"
       d="M83.2548 116.608C83.2105 113.585 88.806 111.695 92.1067 110.282C89.7822 113.019 85.4052 113.697 83.2548 116.608V116.608Z"
       fill="#232323"
       id="path12" />
    <path
       fill-rule="evenodd"
       clip-rule="evenodd"
       d="M98.8105 74.5282C99.9242 73.2661 101.444 76.0461 101.425 77.6763C100.041 77.1454 100.007 75.2488 98.8105 74.5282Z"
       fill="#232323"
       id="path14" />
    <path
       fill-rule="evenodd"
       clip-rule="evenodd"
       d="M110.325 93.9504C111.495 92.4624 113.259 94.8085 114.499 94.9927C113.33 96.4807 111.565 94.1355 110.325 93.9504Z"
       fill="#232323"
       id="path16" />
    <path
       fill-rule="evenodd"
       clip-rule="evenodd"
       d="M83.4112 191.768C84.5147 188.605 85.9159 179.565 87.5493 175.466C92.4305 163.216 107.645 157.772 103.116 137.588C101.349 139.661 100.029 142.183 98.4368 144.431C98.7544 140.413 102.045 138.067 103.63 133.908C104.509 131.602 104.248 128.293 105.699 125.494C107.522 121.976 111.522 119.04 114.022 115.49C119.205 108.126 123.424 103.309 116.068 96.0384C118.211 97.2049 119.877 98.8539 120.251 101.811C121.146 96.2047 116.625 90.8879 112.406 90.7903C107.29 90.6715 100.492 98.5318 95.2193 101.864C85.7429 107.855 78.7462 108.943 71.2533 112.953C70.3324 111.136 75.4668 110.903 75.938 108.739C74.4023 106.431 69.9333 107.091 69.1488 104.023C71.792 104.508 73.9484 105.486 76.4542 106.109C77.4482 104.398 77.4811 103.105 76.967 101.904C69.4348 100.072 61.2947 99.0269 60.258 91.9533C63.8374 96.0953 74.1567 103.117 80.0849 96.6412C76.7189 92.3228 70.4382 90.9543 67.547 86.1558C69.3546 85.2257 69.9105 86.6879 69.1059 83.5247C70.7935 85.3278 71.1741 88.4536 73.2909 89.8228C74.1556 89.0826 72.0587 86.8866 72.7585 84.5682C74.2707 89.3576 76.8835 93.034 82.1654 94.0084C85.861 93.4323 86.3084 87.4738 92.0572 86.1035C93.7438 85.7016 95.6957 86.7825 97.2737 86.6177C103.286 85.9911 108.83 77.6589 101.942 74.5191C103.616 73.7221 104.014 74.5845 104.025 72.9379C103.921 70.4344 101.248 68.0926 97.7556 67.6954C84.587 66.1967 58.8195 69.3944 51.8771 74.101C49.3521 75.8131 47.2754 79.2745 46.6809 83.0471C43.8897 100.751 52.9825 118.788 53.0479 135.593C53.1287 156.391 41.5673 174.201 38.5623 191.864L36.998 191.867C39.5782 183.065 41.7827 174.971 44.2466 166.623C46.5248 158.904 50.1411 150.597 50.9739 141.38C51.9247 130.855 49.6139 122.066 47.7859 113.005C45.0888 99.6328 40.0479 77.6409 51.8716 71.4748C57.8068 68.378 67.5753 68.1177 74.2874 67.2218C82.695 66.0993 92.6905 63.9625 99.3163 65.5915C101.541 66.1385 103.557 68.9166 107.149 70.8307C110.542 72.6377 113.547 73.459 114.982 75.5443C115.927 76.9172 115.204 79.358 116.559 81.8479C117.89 84.2913 121.121 85.0276 122.31 88.6686C123.143 91.22 122.661 94.9736 123.373 98.1269C124.213 101.849 126.098 103.929 125.998 106.531C125.843 110.538 122.483 118.41 119.252 122.839C117.67 125.006 114.73 125.845 113.005 128.108C106.659 136.435 107.738 153.276 103.688 162.293C100.663 169.027 92.9865 172.28 90.6827 177.563C88.8803 181.699 89.1783 188.313 88.1053 191.76L83.4118 191.77L83.4112 191.768ZM113.95 80.801C111.896 79.6182 113.17 78.343 111.335 77.1272C112.629 76.4411 113.503 78.6646 113.943 77.1217C112.046 75.8815 110.849 73.9327 108.198 73.4549C107.961 76.8883 107.682 80.2799 107.176 83.4438C109.608 84.3243 114.495 84.5074 113.95 80.801V80.801Z"
       fill="#232323"
       id="path18" />
    <path
       fill-rule="evenodd"
       clip-rule="evenodd"
       d="M79.1 125.028C77.4943 124.607 82.3586 121.813 79.6147 121.873C81.2521 120.02 82.7735 118.05 85.8641 117.655C83.9183 120.423 81.0457 122.26 79.1 125.028V125.028Z"
       fill="#232323"
       id="path20" />
    <path
       fill-rule="evenodd"
       clip-rule="evenodd"
       d="M85.9153 141.832C85.1733 141.39 87.0101 139.119 87.9947 138.674C87.7655 137.894 87.3279 138.883 86.4303 138.677C88.3074 136.365 90.4358 134.305 92.1524 131.832C91.8702 134.878 88.6035 139.455 85.9153 141.832Z"
       fill="#232323"
       id="path22" />
    <path
       fill-rule="evenodd"
       clip-rule="evenodd"
       d="M78.5863 128.706C77.6055 130.693 77.7392 133.8 75.4692 134.494C74.3334 132.26 76.3247 129.217 78.5863 128.706V128.706Z"
       fill="#232323"
       id="path24" />
  </g>
  <path
     d="m 68.6016,21.1562 0.9841,-0.1774 -0.0013,-0.0074 z m 0.1641,0.5333 0.8702,-0.4926 -2e-4,-5e-4 z M 68.9414,22 v 1 h 1.7152 l -0.8449,-1.4926 z m -2.08,0 L 65.9397,21.6119 65.3553,23 h 1.5061 z m 0.2168,-0.7441 -0.9932,-0.1169 -0.0011,0.0096 -0.001,0.0097 z m 0.0585,-0.6387 0.9977,0.0688 1e-4,-0.0012 z m 0,-4.4356 -0.9992,0.04 1e-4,2e-4 z m -0.0644,-1.6113 -0.9993,0.0384 1e-4,0.0016 z m -0.1055,-0.8496 -0.9472,0.3206 9e-4,0.0025 z M 66.545,13.0352 v -1 h -2.3489 l 1.628,1.6931 z m 5.1503,0.2812 -0.4061,0.9138 0.0045,0.002 z m 0.2051,2.168 0.758,0.6522 0.0042,-0.0048 z m -1.1367,0.8027 -0.3911,-0.9203 -0.6351,0.2699 0.027,0.6894 z M 72.1758,20.6055 73.0204,20.07 73.018,20.0663 Z M 73.336,22 v 1 h 2.7412 L 73.9799,21.2349 Z M 71.1387,22 70.3315,22.5903 70.6311,23 h 0.5076 z m -1.0605,-3.1816 -0.9812,0.1934 0.0011,0.0054 z m -0.2168,-1.3829 -0.9965,0.0849 10e-4,0.0105 z m -0.0821,-0.6621 -0.9701,0.2426 0.0074,0.0295 0.0091,0.0291 z m -0.0996,-0.1875 -0.7348,0.6783 0.0136,0.0147 0.0141,0.0141 z m 0.8379,-1.1953 -0.731,-0.6823 -9e-4,9e-4 z m 0.2285,-0.375 -0.943,-0.3328 -0.0044,0.0124 -0.004,0.0126 z m 0.0176,-0.75 -0.9701,0.2426 0.0045,0.0182 0.0053,0.018 z m -0.1934,-0.3281 -0.7006,0.7136 0.0081,0.0078 z m -1.6113,-0.293 -0.124,-0.9923 -0.004,6e-4 z m -0.2871,0.1289 0.6954,0.7186 0.0059,-0.0057 0.0058,-0.0058 z m -0.0469,1.7051 -0.7936,0.6085 0.0027,0.0034 z m 1.4707,0.1992 0.3965,0.9181 0.0097,-0.0043 z M 69.17,15.4336 c -0.4284,0 -0.9172,0.1343 -1.273,0.5545 -0.3288,0.3883 -0.4067,0.8634 -0.4067,1.2482 h 2 c 0,-0.1503 0.0353,-0.0766 -0.0669,0.0442 -0.0547,0.0645 -0.1224,0.1093 -0.1845,0.1338 -0.0561,0.022 -0.086,0.0193 -0.0689,0.0193 z m -1.6797,1.8027 c 0,1.1133 0.0093,2.0054 0.0282,2.6725 0.018,0.6351 0.0459,1.143 0.1003,1.4323 l 1.9656,-0.3697 C 69.5646,20.8661 69.5368,20.5235 69.5177,19.852 69.4995,19.2124 69.4903,18.3418 69.4903,17.2363 Z m 0.1272,4.0974 c 0.0496,0.2755 0.1285,0.5847 0.2781,0.8488 l 1.7401,-0.9861 c 0.0131,0.0232 0.0084,0.0215 -0.0051,-0.0222 -0.0127,-0.0412 -0.0285,-0.1046 -0.0449,-0.1954 z m 0.2779,0.8484 0.1758,0.3105 1.7405,-0.9852 -0.1758,-0.3105 z M 68.9414,21 h -2.08 v 2 h 2.08 z m -1.1584,1.3881 c 0.1433,-0.3404 0.2569,-0.6936 0.2904,-1.0347 l -1.9905,-0.1951 c -0.0056,0.0573 -0.0365,0.2003 -0.1432,0.4536 z m 0.2883,-1.0154 c 0.0255,-0.2171 0.0465,-0.4462 0.0631,-0.6867 l -1.9953,-0.1376 c -0.0146,0.2126 -0.0328,0.4093 -0.0541,0.5906 z m 0.0632,-0.6879 c 0.0334,-0.4934 0.0491,-1.1381 0.0491,-1.925 h -2 c 0,0.7677 -0.0155,1.3613 -0.0446,1.7897 z m 0.0491,-1.925 c 0,-0.9522 -0.0158,-1.8252 -0.0477,-2.6183 l -1.9983,0.0803 c 0.0306,0.7615 0.046,1.6073 0.046,2.538 z m -0.0476,-2.6181 -0.0645,-1.6114 -1.9984,0.08 0.0644,1.6113 z M 68.0716,14.5319 C 68.056,14.1264 68.02,13.7105 67.9132,13.3976 l -1.8927,0.6462 c -0.0048,-0.0139 0.0073,0.0196 0.0213,0.1326 0.013,0.1045 0.0241,0.2467 0.0312,0.4323 z M 67.914,13.4001 C 67.7785,12.9998 67.5577,12.6456 67.2658,12.342 l -1.4417,1.3863 c 0.0987,0.1026 0.1591,0.2055 0.1955,0.313 z m -1.369,0.6351 h 3.0996 v -2 H 66.545 Z m 3.0996,0 c 0.9215,0 1.4257,0.0977 1.6446,0.195 l 0.8123,-1.8276 c -0.6248,-0.2777 -1.4879,-0.3674 -2.4569,-0.3674 z m 1.6491,0.197 c 0.0436,0.0191 0.0652,0.0344 0.0728,0.0405 0.0067,0.0053 0.0035,0.004 -0.0022,-0.0046 -0.0059,-0.0088 -0.0074,-0.0148 -0.0067,-0.0122 0.0011,0.0038 0.0057,0.0228 0.0057,0.0625 h 2 c 0,-0.398 -0.0958,-0.801 -0.3349,-1.1597 -0.2379,-0.3568 -0.571,-0.6 -0.9314,-0.7581 z m 0.0696,0.0862 c 0,0.1415 -0.0454,0.3071 -0.225,0.5186 l 1.5243,1.2948 c 0.4375,-0.5151 0.7007,-1.1268 0.7007,-1.8134 z m -0.2209,0.5137 c -0.175,0.2034 -0.4212,0.3865 -0.7698,0.5347 l 0.7822,1.8406 c 0.5889,-0.2502 1.1005,-0.6023 1.5036,-1.0708 z m -1.3779,1.494 c 0.0661,1.6937 0.5994,3.3039 1.5691,4.8186 l 1.6844,-1.0784 c -0.7959,-1.2431 -1.204,-2.5119 -1.2551,-3.8182 z m 1.5667,4.8148 c 0.4148,0.6543 0.8651,1.207 1.3609,1.6242 l 1.2878,-1.5302 C 73.6866,20.9881 73.3634,20.6111 73.0204,20.07 Z M 73.336,21 h -2.1973 v 2 h 2.1973 z m -1.3901,0.4097 C 71.8442,21.2706 71.6992,20.988 71.5351,20.4958 71.3755,20.017 71.2155,19.3948 71.0582,18.6195 l -1.9601,0.3977 c 0.1669,0.8224 0.3458,1.5293 0.5397,2.111 0.1894,0.5683 0.4126,1.0778 0.6937,1.4621 z m -0.8866,-2.7848 c -0.106,-0.5373 -0.1717,-0.9628 -0.2025,-1.2847 l -1.9909,0.1907 c 0.0395,0.4125 0.1184,0.9089 0.2311,1.4809 z m -0.2015,-1.2742 c -0.0161,-0.1892 -0.032,-0.3505 -0.048,-0.479 -0.0121,-0.0982 -0.0333,-0.2615 -0.0769,-0.3994 l -1.9072,0.6023 c -0.0149,-0.0475 -0.0179,-0.0733 -0.0136,-0.0483 0.0028,0.0158 0.0072,0.045 0.0129,0.0913 0.0114,0.0921 0.0248,0.2248 0.04,0.4027 z m -0.1083,-0.8198 c -0.0541,-0.2162 -0.1626,-0.452 -0.3627,-0.6521 l -1.4142,1.4142 c -0.1063,-0.1062 -0.1484,-0.2171 -0.1634,-0.277 z m -0.335,-0.6232 C 70.0279,15.4888 69.4928,15.4336 69.17,15.4336 v 2 c 0.0606,0 0.0617,0.007 0.0256,-0.0038 -0.0391,-0.0117 -0.146,-0.0522 -0.2507,-0.1656 z m 0.8342,0.1652 c 0.1945,-0.2084 0.3545,-0.4579 0.4489,-0.7495 l -1.9029,-0.6156 c 0.0037,-0.0115 0.0075,-0.0181 0.0081,-0.0192 5e-4,-7e-4 -0.0036,0.0061 -0.0162,0.0197 z m 0.4404,-0.7245 c 0.0786,-0.2226 0.1273,-0.4624 0.1273,-0.7136 h -2 c 0,-0.0091 0.0019,0.005 -0.0133,0.048 z m 0.1273,-0.7136 c 0,-0.2202 -0.0311,-0.4371 -0.0924,-0.648 l -1.9206,0.5576 c 0.009,0.0313 0.013,0.0605 0.013,0.0904 z m -0.0826,-0.6117 c -0.0792,-0.317 -0.2447,-0.5898 -0.4709,-0.807 l -1.3851,1.4428 c -0.0126,-0.0121 -0.0303,-0.0324 -0.0474,-0.0614 -0.0173,-0.0292 -0.0295,-0.0601 -0.0368,-0.0893 z m -0.4629,-0.7992 c -0.5024,-0.4932 -1.215,-0.6028 -1.8256,-0.6028 v 2 c 0.2076,0 0.3385,0.0211 0.4119,0.0417 0.0718,0.0202 0.0554,0.0303 0.0126,-0.0117 z m -1.8256,-0.6028 c -0.2198,0 -0.4277,0.0083 -0.6103,0.0312 l 0.248,1.9845 c 0.0674,-0.0084 0.1837,-0.0157 0.3623,-0.0157 z m -0.6143,0.0317 c -0.2891,0.0373 -0.6067,0.154 -0.8662,0.4135 l 1.4142,1.4142 c -0.1189,0.119 -0.2451,0.1498 -0.292,0.1558 z m -0.8545,0.402 c -0.2823,0.2732 -0.3787,0.6239 -0.4209,0.8321 -0.0488,0.2409 -0.0653,0.5095 -0.0653,0.783 h 2 c 0,-0.0998 0.0031,-0.1822 0.0083,-0.2488 0.0053,-0.0674 0.012,-0.1116 0.0172,-0.1371 0.0055,-0.0274 0.0064,-0.019 -0.0069,0.0115 -0.0125,0.0285 -0.0517,0.1096 -0.1416,0.1965 z m -0.4862,1.6151 c 0,0.2398 0.0123,0.473 0.0473,0.683 0.0301,0.1807 0.0964,0.4766 0.2938,0.734 l 1.5872,-1.2168 c 0.062,0.0808 0.0861,0.1466 0.0918,0.1629 0.0068,0.0196 0.0047,0.0198 0,-0.0089 -0.01,-0.0596 -0.0201,-0.1721 -0.0201,-0.3542 z m 0.3438,1.4205 c 0.3945,0.5099 0.9655,0.6987 1.5175,0.6987 v -2 c -0.0574,0 -0.0601,-0.0093 -0.0318,0.0028 0.0144,0.0061 0.0327,0.0161 0.0517,0.0309 0.0191,0.0147 0.034,0.0303 0.0445,0.0438 z m 1.5175,0.6987 c 0.3752,0 0.7837,-0.0392 1.1406,-0.1933 l -0.7929,-1.8361 c 0.0151,-0.0066 -10e-4,0.0027 -0.0665,0.0125 -0.0633,0.0095 -0.1551,0.0169 -0.2812,0.0169 z m 1.1503,-0.1976 c 0.2699,-0.1199 0.5309,-0.2867 0.7476,-0.5195 l -1.4638,-1.3628 c 0.0058,-0.0062 -0.0145,0.0184 -0.0961,0.0547 z m 4.8848,0.4866 -0.9138,-0.4061 -0.0037,0.0085 z m 1.5176,3.7383 -0.9502,-0.3116 -0.0023,0.0071 z m 0,-3.7383 -0.9176,0.3976 0.0038,0.0086 z m 1.0313,4.1133 -0.8114,-0.5846 -0.002,0.0029 z m -3.5742,0 0.8133,-0.5817 -0.002,-0.0029 z m 1.7871,-5.6406 c -0.3501,0 -0.7067,0.0904 -1.0233,0.3096 -0.3109,0.2152 -0.5178,0.5091 -0.6523,0.8116 l 1.8277,0.8123 c 0.0218,-0.0491 0.0199,-0.0189 -0.037,0.0205 -0.0271,0.0188 -0.0559,0.0318 -0.0817,0.0393 -0.0246,0.0071 -0.0377,0.0067 -0.0334,0.0067 z m -1.6793,1.1297 c -0.2405,0.5549 -0.311,1.3274 -0.311,2.173 h 2 c 0,-0.8184 0.0819,-1.2295 0.1461,-1.3778 z m -0.311,2.173 c 0,0.926 0.0819,1.7392 0.3097,2.3552 0.1161,0.3141 0.2935,0.6417 0.5778,0.898 0.3055,0.2753 0.6878,0.4245 1.1028,0.4245 v -2 c 0.0849,0 0.1783,0.0377 0.2363,0.0899 0.0367,0.0331 0.0078,0.026 -0.0411,-0.1061 -0.1023,-0.2767 -0.1855,-0.8023 -0.1855,-1.6615 z m 1.9903,3.6777 c 0.4274,0 0.8252,-0.1547 1.1397,-0.4521 0.2911,-0.2753 0.4624,-0.6257 0.5686,-0.9582 l -1.905,-0.609 c -0.0216,0.0675 -0.0404,0.1065 -0.0508,0.125 -0.0103,0.018 -0.0084,0.0093 0.013,-0.0109 0.0232,-0.022 0.061,-0.0493 0.1122,-0.0696 0.051,-0.0201 0.095,-0.0252 0.1223,-0.0252 z m 1.7061,-1.4032 c 0.2038,-0.6216 0.2841,-1.3967 0.2841,-2.2745 h -2 c 0,0.7863 -0.0759,1.3198 -0.1846,1.6514 z m 0.2841,-2.2745 c 0,-0.8465 -0.0723,-1.623 -0.3206,-2.1815 l -1.8276,0.8123 c 0.0643,0.1446 0.1482,0.5516 0.1482,1.3692 z m -0.3168,-2.173 c -0.1318,-0.3041 -0.3371,-0.6007 -0.6486,-0.818 -0.3173,-0.2213 -0.675,-0.3117 -1.0248,-0.3117 v 2 c 0.0043,0 -0.0092,5e-4 -0.0347,-0.007 -0.0266,-0.0077 -0.0566,-0.0213 -0.0849,-0.0411 -0.0596,-0.0415 -0.0627,-0.0744 -0.0421,-0.027 z m -3.1402,1.9504 c 0,-0.753 0.1758,-1.1314 0.3507,-1.3204 0.1613,-0.1744 0.4687,-0.3457 1.1161,-0.3457 v -2 c -0.9972,0 -1.9232,0.2731 -2.5841,0.9874 -0.6474,0.6996 -0.8827,1.6543 -0.8827,2.6787 z m 1.4668,-1.6661 c 0.6473,0 0.9547,0.1713 1.1161,0.3457 0.1749,0.189 0.3507,0.5674 0.3507,1.3204 h 2 c 0,-1.0244 -0.2354,-1.9791 -0.8827,-2.6787 -0.661,-0.7143 -1.5869,-0.9874 -2.5841,-0.9874 z m 1.4668,1.6661 c 0,0.9481 -0.2002,1.5723 -0.4911,1.9759 l 1.6227,1.1692 c 0.6154,-0.8542 0.8684,-1.937 0.8684,-3.1451 z m -0.4931,1.9788 c -0.2563,0.3583 -0.5509,0.5075 -0.9737,0.5075 v 2 c 1.0772,0 1.9739,-0.468 2.6005,-1.3441 z m -0.9737,0.5075 c -0.4228,0 -0.7175,-0.1492 -0.9738,-0.5075 l -1.6267,1.1634 c 0.6265,0.8761 1.5233,1.3441 2.6005,1.3441 z m -0.9758,-0.5104 c -0.2908,-0.4036 -0.491,-1.0278 -0.491,-1.9759 h -2 c 0,1.2081 0.2529,2.2909 0.8683,3.1451 z m 8.6691,-4.8763 0.9231,-0.3846 -0.7689,-1.8454 -1.0155,1.722 z m 0.0293,1.998 -0.9751,-0.2216 -3e-4,0.0014 z m -0.3808,0.8731 -0.9872,0.1597 0.3642,2.2517 1.4093,-1.7936 z m -0.8379,-1.9336 0.5055,-0.8629 -0.0094,-0.0054 z m -1.1543,0.3164 0.8586,0.5127 0.0052,-0.0089 z m -0.1172,2.25 -0.9637,0.267 8e-4,0.003 z m 0.3516,0.8672 -0.8723,0.489 0.0044,0.0079 0.0046,0.0078 z m 0.498,0.6621 -0.7145,0.6996 0.0074,0.0075 0.0075,0.0074 z m 0.5625,0.4629 -0.5547,0.832 0.008,0.0054 0.0081,0.0051 z m 1.0078,0.3632 0.9884,0.1521 0.1772,-1.1521 h -1.1656 z m -0.4336,0.5274 v 1 h 0.2521 l 0.222,-0.1195 z m -1.4238,-0.4219 -0.4679,0.8838 0.0027,0.0014 z m -2.0156,-2.3086 0.9457,-0.325 -0.0011,-0.0031 z m -0.0586,-2.1211 0.9473,0.3204 0.0014,-0.0041 z m 0.3925,-0.6914 0.7441,0.6681 0.0061,-0.0068 0.006,-0.0069 z m 2.0801,-0.5683 -0.136,0.9907 0.0018,2e-4 z m 1.1895,0.0175 0.3162,0.9487 0.0141,-0.0047 0.0139,-0.0051 z m -0.6125,0.0917 c 0.0416,0.1 0.0695,0.2253 0.0695,0.3888 h 2 c 0,-0.399 -0.0698,-0.7893 -0.2234,-1.158 z m 0.0695,0.3888 c 0,0.2577 -0.0092,0.4499 -0.0237,0.5856 l 1.9888,0.2116 c 0.0246,-0.2314 0.0349,-0.5002 0.0349,-0.7972 z m -0.0237,0.5856 C 82.949,17.236 82.926,17.375 82.896,17.5069 l 1.9503,0.4432 c 0.0481,-0.2118 0.0836,-0.4283 0.1071,-0.649 z m -0.0689,0.4188 c -0.0599,0.265 -0.1373,0.4061 -0.1918,0.4754 l 1.5727,1.2357 c 0.2892,-0.3682 0.4658,-0.8091 0.57,-1.2706 z m 1.5817,0.9336 C 84.3845,17.8672 84.2546,17.351 84.0694,16.9237 83.89,16.5095 83.6121,16.0712 83.1579,15.8051 l -1.011,1.7257 c -0.0675,-0.0395 -0.0124,-0.0422 0.0874,0.1881 0.0941,0.2172 0.1899,0.5545 0.2688,1.0424 z m -1.3289,-2.6422 c -0.2905,-0.166 -0.6104,-0.2489 -0.9414,-0.2489 v 2 c -0.0021,0 -0.0107,-4e-4 -0.0231,-0.0036 -0.0125,-0.0033 -0.0222,-0.0078 -0.0278,-0.011 z m -0.9414,-0.2489 c -0.3211,0 -0.6484,0.0785 -0.9452,0.2665 l 1.0701,1.6896 c -0.0278,0.0176 -0.0566,0.0297 -0.0827,0.0368 -0.0253,0.0069 -0.0409,0.0071 -0.0422,0.0071 z m -0.9452,0.2665 c -0.2742,0.1736 -0.4789,0.4082 -0.6276,0.6632 l 1.7276,1.0077 c 0.0081,-0.0139 0.0109,-0.0155 0.0057,-0.0099 -0.0056,0.006 -0.0174,0.017 -0.0356,0.0286 z m -0.6224,0.6543 c -0.2887,0.4835 -0.3934,1.0431 -0.3934,1.6085 h 2 c 0,-0.3331 0.0633,-0.504 0.1105,-0.583 z m -0.3934,1.6085 c 0,0.5083 0.0508,0.9873 0.1711,1.4213 l 1.9274,-0.5341 c -0.0594,-0.2144 -0.0985,-0.5049 -0.0985,-0.8872 z m 0.1719,1.4243 c 0.1087,0.3873 0.2544,0.7512 0.4422,1.0862 l 1.7445,-0.978 c -0.1013,-0.1807 -0.1899,-0.3949 -0.261,-0.6483 z m 0.4512,1.1019 c 0.1849,0.3163 0.3994,0.6043 0.6468,0.857 l 1.429,-1.3993 c -0.1198,-0.1223 -0.2373,-0.2757 -0.3493,-0.4671 z m 0.6617,0.8719 c 0.2249,0.2203 0.4604,0.4157 0.7074,0.5804 l 1.1094,-1.6641 c -0.128,-0.0853 -0.2675,-0.1984 -0.4176,-0.3453 z m 0.7235,0.5909 c 0.4601,0.2941 0.9861,0.5207 1.5464,0.5207 v -2 c -0.0256,0 -0.1715,-0.0155 -0.4692,-0.2058 z m 0.558,-0.6313 c 0.0203,-0.1315 0.0785,-0.2019 0.0854,-0.2098 l 1.5014,1.3213 c 0.1787,-0.2031 0.3385,-0.4728 0.39,-0.8074 z m 0.0854,-0.2098 c -0.009,0.0103 -0.0142,0.0145 -0.0147,0.0149 -4e-4,4e-4 0.0029,-0.0024 0.01,-0.0062 l 0.9482,1.761 c 0.2186,-0.1177 0.4035,-0.2729 0.5579,-0.4484 z m 0.4694,-0.1108 c -0.1946,0 -0.5056,-0.069 -0.9586,-0.3071 l -0.9304,1.7704 c 0.6173,0.3245 1.2555,0.5367 1.889,0.5367 z m -0.9559,-0.3057 c -0.7849,-0.4155 -1.2774,-0.992 -1.5378,-1.7498 l -1.8915,0.65 c 0.435,1.2657 1.2862,2.2282 2.4935,2.8674 z m -1.5389,-1.7529 c -0.0928,-0.2673 -0.138,-0.5354 -0.138,-0.8086 h -2 c 0,0.5002 0.0838,0.9899 0.2487,1.4649 z M 80.7344,18.25 c 0,-0.3212 0.0379,-0.5333 0.0821,-0.664 l -1.8946,-0.6408 c -0.1355,0.4006 -0.1875,0.8447 -0.1875,1.3048 z m 0.0835,-0.6681 c 0.051,-0.1531 0.1168,-0.2604 0.1879,-0.3396 l -1.4881,-1.3362 c -0.2726,0.3036 -0.4686,0.6573 -0.5972,1.0433 z m 0.2,-0.3533 c 0.1298,-0.15 0.3215,-0.2638 0.7087,-0.2638 v -2 c -0.8628,0 -1.6477,0.2925 -2.221,0.955 z m 0.7087,-0.2638 c 0.1677,0 0.3272,0.0109 0.4792,0.0318 l 0.272,-1.9815 c -0.2464,-0.0338 -0.497,-0.0503 -0.7512,-0.0503 z m 0.481,0.032 c 0.3721,0.0504 0.6953,0.0852 0.9194,0.0852 v -2 c -0.0728,0 -0.273,-0.0159 -0.651,-0.0671 z m 0.9194,0.0852 c 0.2357,0 0.4808,-0.03 0.7205,-0.1099 L 83.2151,15.0748 C 83.2204,15.073 83.1959,15.082 83.127,15.082 Z m 0.7485,-0.1197 c 0.409,-0.1499 0.6685,-0.454 0.8277,-0.7238 l -1.7227,-1.016 c -0.0206,0.0348 0.032,-0.0739 0.2065,-0.1379 z M 86.8946,22 v 1 h 1.3325 L 87.8547,21.7206 Z M 85.166,22 84.2053,21.7227 83.8366,23 h 1.3294 z m 0.2051,-1.3418 0.9986,0.053 3e-4,-0.006 z m 0.0821,-4.2832 -0.9999,0.0164 v 3e-4 z m -0.0118,-0.7148 1,-0.0164 -4e-4,-0.0115 z m -0.123,-1.5997 -0.973,0.2309 0.0023,0.0098 0.0025,0.0097 z m -0.1582,-0.498 -0.9111,0.4122 0.008,0.0177 0.0087,0.0173 z m -0.3574,-0.5273 v -1 H 82.599 l 1.4512,1.6585 z m 2.1386,0 0.9637,0.2671 0.3513,-1.2671 h -1.315 z m -0.1933,1.1191 -0.9985,-0.0555 -4e-4,0.0073 z m -0.041,0.8496 -0.9989,-0.0482 -2e-4,0.0058 z m -0.0352,2.1504 -0.9994,0.0333 5e-4,0.0166 0.0011,0.0166 z m 0.0469,0.2871 0.9578,-0.2873 -0.0021,-0.0069 -0.0021,-0.0069 z m 0.3515,0.2227 -0.0407,-0.9992 h -9e-4 z m 0.5157,-0.1172 0.419,0.9079 0.0095,-0.0044 0.0094,-0.0045 z m 0.375,-0.2813 -0.746,-0.666 -0.0058,0.0065 -0.0056,0.0066 z m 0.205,-1.1836 v -1 h -2 l 1.2,1.6 z m 1.6934,0 0.8944,0.4472 0.7236,-1.4472 h -1.618 z m -0.1289,0.2871 -0.9285,-0.3714 -0.004,0.0101 -0.0038,0.0102 z m -0.1172,0.2871 0.9122,0.4099 0.0031,-0.0071 z m -1.3125,1.3418 -0.4209,-0.907 -0.6104,0.2832 0.0325,0.6721 z m 0.7969,2.4317 -0.8553,0.5181 0.0041,0.0067 z M 90.6328,22 v 1 l 0.4645,-1.8856 z M 88.67,22 88.2372,22.9015 88.4424,23 H 88.67 Z m -0.9493,-1.8867 -0.9754,0.2202 1e-4,5e-4 z m -0.2929,-1.7051 -0.8742,0.4856 0.0039,0.0071 0.0041,0.007 z m -1.7618,1.1074 c 0,1.1485 0.0741,2.0964 0.2684,2.7638 l 1.9203,-0.5588 C 87.7443,21.3411 87.666,20.6328 87.666,19.5156 Z M 86.8946,21 H 85.166 v 2 h 1.7286 z m -0.7678,1.2773 c 0.1358,-0.4704 0.2127,-0.9965 0.2429,-1.5661 l -1.9972,-0.106 c -0.0244,0.4616 -0.0843,0.8301 -0.1672,1.1175 z M 86.37,20.7052 c 0.0589,-1.2514 0.089,-2.2365 0.089,-2.9474 h -2 c 0,0.6641 -0.0284,1.6126 -0.0868,2.8534 z m 0.089,-2.9474 c 0,-0.6862 -0.0019,-1.1554 -0.006,-1.3995 l -1.9997,0.0334 c 0.0037,0.2247 0.0057,0.6774 0.0057,1.3661 z m -0.006,-1.3992 c 0,-5e-4 0,-9e-4 0,-0.0014 0,-5e-4 0,-9e-4 0,-0.0014 0,-4e-4 0,-9e-4 0,-0.0014 -1e-4,-4e-4 -1e-4,-9e-4 -1e-4,-0.0014 0,-4e-4 0,-9e-4 0,-0.0014 0,-4e-4 0,-9e-4 0,-0.0014 0,-4e-4 0,-9e-4 0,-0.0014 0,-4e-4 -1e-4,-9e-4 -1e-4,-0.0014 0,-4e-4 0,-9e-4 0,-0.0014 0,-4e-4 0,-9e-4 0,-0.0014 0,-4e-4 0,-9e-4 0,-0.0013 0,-5e-4 0,-10e-4 -1e-4,-0.0014 0,-5e-4 0,-10e-4 0,-0.0014 0,-5e-4 0,-10e-4 0,-0.0014 0,-5e-4 0,-10e-4 0,-0.0014 0,-5e-4 0,-0.001 0,-0.0014 -10e-5,-5e-4 -10e-5,-0.001 -10e-5,-0.0014 0,-5e-4 0,-0.001 0,-0.0014 0,-5e-4 0,-0.001 0,-0.0014 0,-5e-4 0,-9e-4 0,-0.0014 0,-5e-4 -1e-4,-9e-4 -1e-4,-0.0014 0,-5e-4 0,-9e-4 0,-0.0014 0,-5e-4 0,-9e-4 0,-0.0014 0,-5e-4 0,-9e-4 0,-0.0014 0,-5e-4 0,-9e-4 -1e-4,-0.0014 0,-5e-4 0,-9e-4 0,-0.0014 0,-5e-4 0,-9e-4 0,-0.0014 0,-5e-4 0,-9e-4 0,-0.0014 0,-4e-4 0,-9e-4 0,-0.0014 -1e-4,-4e-4 -1e-4,-9e-4 -1e-4,-0.0014 0,-4e-4 0,-9e-4 0,-0.0014 0,-4e-4 0,-9e-4 0,-0.0014 0,-4e-4 0,-9e-4 0,-0.0014 0,-4e-4 0,-9e-4 -10e-5,-0.0014 0,-4e-4 0,-9e-4 0,-0.0014 0,-4e-4 0,-9e-4 0,-0.0014 0,-4e-4 0,-9e-4 0,-0.0013 0,-5e-4 0,-10e-4 0,-0.0014 -1e-4,-5e-4 -1e-4,-10e-4 -1e-4,-0.0014 0,-5e-4 0,-0.001 0,-0.0014 0,-5e-4 0,-0.001 0,-0.0014 0,-5e-4 0,-0.001 0,-0.0014 0,-5e-4 -1e-4,-0.001 -1e-4,-0.0014 0,-5e-4 0,-0.001 0,-0.0014 0,-5e-4 0,-0.001 0,-0.0014 0,-5e-4 0,-0.001 0,-0.0014 0,-5e-4 0,-9e-4 -1e-4,-0.0014 0,-5e-4 0,-9e-4 0,-0.0014 0,-5e-4 0,-9e-4 0,-0.0014 0,-5e-4 0,-9e-4 0,-0.0014 0,-5e-4 0,-9e-4 0,-0.0014 -10e-5,-5e-4 -10e-5,-9e-4 -10e-5,-0.0014 0,-5e-4 0,-9e-4 0,-0.0014 0,-5e-4 0,-9e-4 0,-0.0014 0,-5e-4 0,-9e-4 0,-0.0014 0,-4e-4 -1e-4,-9e-4 -1e-4,-0.0014 0,-4e-4 0,-9e-4 0,-0.0014 0,-4e-4 0,-9e-4 0,-0.0014 0,-4e-4 0,-9e-4 0,-0.0014 0,-4e-4 0,-9e-4 -1e-4,-0.0014 0,-4e-4 0,-9e-4 0,-0.0014 0,-4e-4 0,-9e-4 0,-0.0014 0,-4e-4 0,-9e-4 0,-0.0014 0,-4e-4 0,-9e-4 0,-0.0013 -1e-4,-5e-4 -1e-4,-0.001 -1e-4,-0.0014 0,-5e-4 0,-0.001 0,-0.0014 0,-5e-4 0,-0.001 0,-0.0014 0,-5e-4 0,-0.001 0,-0.0014 0,-5e-4 -10e-5,-0.001 -10e-5,-0.0014 0,-5e-4 0,-0.001 0,-0.0014 0,-5e-4 0,-0.001 0,-0.0014 0,-5e-4 0,-10e-4 0,-0.0014 0,-5e-4 0,-9e-4 0,-0.0014 -1e-4,-5e-4 -1e-4,-9e-4 -1e-4,-0.0014 0,-5e-4 0,-9e-4 0,-0.0014 0,-5e-4 0,-9e-4 0,-0.0014 0,-5e-4 0,-9e-4 0,-0.0014 0,-5e-4 -1e-4,-9e-4 -1e-4,-0.0014 0,-5e-4 0,-9e-4 0,-0.0014 0,-5e-4 0,-9e-4 0,-0.0014 0,-5e-4 0,-9e-4 0,-0.0014 0,-4e-4 0,-9e-4 -1e-4,-0.0014 0,-4e-4 0,-9e-4 0,-0.0014 0,-4e-4 0,-9e-4 0,-0.0014 0,-4e-4 0,-9e-4 0,-0.0014 0,-4e-4 0,-9e-4 0,-0.0014 -1e-4,-4e-4 -1e-4,-9e-4 -1e-4,-0.0014 0,-4e-4 0,-9e-4 0,-0.0014 0,-4e-4 0,-9e-4 0,-0.0014 0,-4e-4 0,-9e-4 0,-0.0013 0,-5e-4 -10e-5,-0.001 -10e-5,-0.0014 0,-5e-4 0,-0.001 0,-0.0014 0,-5e-4 0,-0.001 0,-0.0014 0,-5e-4 0,-0.001 0,-0.0014 0,-5e-4 0,-10e-4 -1e-4,-0.0014 0,-5e-4 0,-10e-4 0,-0.0014 0,-5e-4 0,-10e-4 0,-0.0014 0,-5e-4 0,-10e-4 0,-0.0014 0,-5e-4 0,-9e-4 0,-0.0014 -1e-4,-5e-4 -1e-4,-9e-4 -1e-4,-0.0014 0,-5e-4 0,-9e-4 0,-0.0014 0,-5e-4 0,-9e-4 0,-0.0014 0,-5e-4 0,-9e-4 0,-0.0014 0,-5e-4 -1e-4,-9e-4 -1e-4,-0.0014 0,-5e-4 0,-9e-4 0,-0.0014 0,-5e-4 0,-9e-4 0,-0.0014 0,-5e-4 0,-9e-4 0,-0.0014 0,-4e-4 0,-9e-4 -10e-5,-0.0014 0,-4e-4 0,-9e-4 0,-0.0014 0,-4e-4 0,-9e-4 0,-0.0014 0,-4e-4 0,-9e-4 0,-0.0014 0,-4e-4 0,-9e-4 0,-0.0014 0,-4e-4 -1e-4,-9e-4 -1e-4,-0.0014 0,-4e-4 0,-9e-4 0,-0.0014 0,-4e-4 0,-9e-4 0,-0.0014 0,-4e-4 0,-9e-4 0,-0.0013 0,-5e-4 0,-0.001 -1e-4,-0.0014 0,-5e-4 0,-0.001 0,-0.0014 0,-5e-4 0,-10e-4 0,-0.0014 0,-5e-4 0,-10e-4 0,-0.0014 0,-5e-4 0,-10e-4 0,-0.0014 -1e-4,-5e-4 -1e-4,-10e-4 -1e-4,-0.0014 0,-5e-4 0,-0.001 0,-0.0014 0,-5e-4 0,-0.001 0,-0.0014 0,-5e-4 0,-9e-4 0,-0.0014 0,-5e-4 -10e-5,-9e-4 -10e-5,-0.0014 0,-5e-4 0,-9e-4 0,-0.0014 0,-5e-4 0,-9e-4 0,-0.0014 0,-5e-4 0,-9e-4 0,-0.0014 0,-5e-4 0,-9e-4 -1e-4,-0.0014 0,-5e-4 0,-9e-4 0,-0.0014 0,-5e-4 0,-9e-4 0,-0.0014 0,-5e-4 0,-9e-4 0,-0.0014 0,-4e-4 0,-9e-4 0,-0.0014 -1e-4,-4e-4 -1e-4,-9e-4 -1e-4,-0.0014 0,-4e-4 0,-9e-4 0,-0.0014 0,-4e-4 0,-9e-4 0,-0.0014 0,-4e-4 0,-9e-4 0,-0.0014 0,-4e-4 -1e-4,-9e-4 -1e-4,-0.0014 0,-4e-4 0,-9e-4 0,-0.0014 0,-4e-4 0,-9e-4 0,-0.0014 0,-4e-4 0,-9e-4 0,-0.0013 0,-5e-4 0,-10e-4 -10e-5,-0.0014 0,-5e-4 0,-10e-4 0,-0.0014 0,-5e-4 0,-10e-4 0,-0.0014 0,-5e-4 0,-10e-4 0,-0.0014 0,-5e-4 0,-0.001 0,-0.0014 -1e-4,-5e-4 -1e-4,-0.001 -1e-4,-0.0014 0,-5e-4 0,-0.001 0,-0.0014 0,-5e-4 0,-0.001 0,-0.0014 0,-5e-4 0,-9e-4 0,-0.0014 0,-5e-4 -1e-4,-9e-4 -1e-4,-0.0014 0,-5e-4 0,-9e-4 0,-0.0014 0,-5e-4 0,-9e-4 0,-0.0014 0,-5e-4 0,-9e-4 0,-0.0014 0,-5e-4 0,-9e-4 0,-0.0014 -1e-4,-5e-4 -1e-4,-9e-4 -1e-4,-0.0014 0,-5e-4 0,-9e-4 0,-0.0014 0,-5e-4 0,-9e-4 0,-0.0014 0,-4e-4 0,-9e-4 0,-0.0014 0,-4e-4 -1e-4,-9e-4 -1e-4,-0.0014 0,-4e-4 0,-9e-4 0,-0.0014 0,-4e-4 0,-9e-4 0,-0.0014 0,-4e-4 0,-9e-4 0,-0.0014 0,-4e-4 0,-9e-4 -10e-5,-0.0014 0,-4e-4 0,-9e-4 0,-0.0014 0,-4e-4 0,-9e-4 0,-0.0014 0,-4e-4 0,-9e-4 0,-0.0013 0,-5e-4 0,-10e-4 0,-0.0014 -1e-4,-5e-4 -1e-4,-10e-4 -1e-4,-0.0014 0,-5e-4 0,-0.001 0,-0.0014 0,-5e-4 0,-0.001 0,-0.0014 0,-5e-4 0,-0.001 0,-0.0014 0,-5e-4 -1e-4,-0.001 -1e-4,-0.0014 0,-5e-4 0,-0.001 0,-0.0014 0,-5e-4 0,-0.001 0,-0.0014 0,-5e-4 0,-9e-4 0,-0.0014 0,-5e-4 0,-9e-4 -1e-4,-0.0014 0,-5e-4 0,-9e-4 0,-0.0014 0,-5e-4 0,-9e-4 0,-0.0014 0,-5e-4 0,-9e-4 0,-0.0014 0,-5e-4 0,-9e-4 0,-0.0014 -10e-5,-5e-4 -10e-5,-9e-4 -10e-5,-0.0014 0,-5e-4 0,-9e-4 0,-0.0014 0,-5e-4 0,-9e-4 0,-0.0014 0,-4e-4 0,-9e-4 0,-0.0014 0,-4e-4 -1e-4,-9e-4 -1e-4,-0.0014 0,-4e-4 0,-9e-4 0,-0.0014 0,-4e-4 0,-9e-4 0,-0.0014 0,-4e-4 0,-9e-4 0,-0.0014 0,-4e-4 0,-9e-4 -1e-4,-0.0014 0,-4e-4 0,-9e-4 0,-0.0014 0,-4e-4 0,-9e-4 0,-0.0014 0,-4e-4 0,-9e-4 0,-0.0014 0,-4e-4 0,-9e-4 0,-0.0013 0,-5e-4 -1e-4,-0.001 -1e-4,-0.0014 0,-5e-4 0,-0.001 0,-0.0014 0,-5e-4 0,-0.001 0,-0.0014 0,-5e-4 0,-0.001 0,-0.0014 0,-5e-4 0,-0.001 -10e-5,-0.0014 0,-5e-4 0,-0.001 0,-0.0014 0,-5e-4 0,-10e-4 0,-0.0014 0,-5e-4 0,-10e-4 0,-0.0014 0,-5e-4 0,-9e-4 0,-0.0014 -1e-4,-5e-4 -1e-4,-9e-4 -1e-4,-0.0014 0,-5e-4 0,-9e-4 0,-0.0014 0,-5e-4 0,-9e-4 0,-0.0014 0,-5e-4 0,-9e-4 0,-0.0014 0,-5e-4 -1e-4,-9e-4 -1e-4,-0.0014 0,-5e-4 0,-9e-4 0,-0.0014 0,-5e-4 0,-9e-4 0,-0.0014 0,-5e-4 0,-9e-4 0,-0.0014 0,-4e-4 0,-9e-4 -1e-4,-0.0014 0,-4e-4 0,-9e-4 0,-0.0014 0,-4e-4 0,-9e-4 0,-0.0014 0,-4e-4 0,-9e-4 0,-0.0014 0,-4e-4 0,-9e-4 0,-0.0014 -1e-4,-4e-4 -1e-4,-9e-4 -1e-4,-0.0014 0,-4e-4 0,-9e-4 0,-0.0014 0,-4e-4 0,-9e-4 0,-0.0014 0,-4e-4 0,-9e-4 0,-0.0013 0,-5e-4 -10e-5,-0.001 -10e-5,-0.0014 0,-5e-4 0,-0.001 0,-0.0014 0,-5e-4 0,-0.001 0,-0.0014 0,-5e-4 0,-0.001 0,-0.0014 0,-5e-4 0,-10e-4 -1e-4,-0.0014 0,-5e-4 0,-10e-4 0,-0.0014 0,-5e-4 0,-10e-4 0,-0.0014 0,-5e-4 0,-10e-4 0,-0.0014 0,-5e-4 0,-9e-4 0,-0.0014 -1e-4,-5e-4 -1e-4,-9e-4 -1e-4,-0.0014 0,-5e-4 0,-9e-4 0,-0.0014 0,-5e-4 0,-9e-4 0,-0.0014 0,-5e-4 0,-9e-4 0,-0.0014 0,-5e-4 0,-9e-4 -1e-4,-0.0014 0,-5e-4 0,-9e-4 0,-0.0014 0,-5e-4 0,-9e-4 0,-0.0014 0,-5e-4 0,-9e-4 0,-0.0014 0,-4e-4 0,-9e-4 0,-0.0014 -10e-5,-4e-4 -10e-5,-9e-4 -10e-5,-0.0014 0,-4e-4 0,-9e-4 0,-0.0014 0,-4e-4 0,-9e-4 0,-0.0014 0,-4e-4 0,-9e-4 0,-0.0014 0,-4e-4 -1e-4,-9e-4 -1e-4,-0.0014 0,-4e-4 0,-9e-4 0,-0.0014 0,-4e-4 0,-9e-4 0,-0.0014 0,-4e-4 0,-9e-4 0,-0.0013 0,-5e-4 0,-0.001 -1e-4,-0.0014 0,-5e-4 0,-0.001 0,-0.0014 0,-5e-4 0,-10e-4 0,-0.0014 0,-5e-4 0,-10e-4 0,-0.0014 0,-5e-4 0,-10e-4 0,-0.0014 -1e-4,-5e-4 -1e-4,-10e-4 -1e-4,-0.0014 0,-5e-4 0,-0.001 0,-0.0014 0,-5e-4 0,-0.001 0,-0.0014 0,-5e-4 0,-9e-4 0,-0.0014 0,-5e-4 -10e-5,-9e-4 -10e-5,-0.0014 0,-5e-4 0,-9e-4 0,-0.0014 0,-5e-4 0,-9e-4 0,-0.0014 0,-5e-4 0,-9e-4 0,-0.0014 0,-5e-4 0,-9e-4 -1e-4,-0.0014 0,-5e-4 0,-9e-4 0,-0.0014 0,-5e-4 0,-9e-4 0,-0.0014 0,-5e-4 0,-9e-4 0,-0.0014 0,-4e-4 0,-9e-4 0,-0.0014 -1e-4,-4e-4 -1e-4,-9e-4 -1e-4,-0.0014 0,-4e-4 0,-9e-4 0,-0.0014 0,-4e-4 0,-9e-4 0,-0.0014 0,-4e-4 0,-9e-4 0,-0.0014 0,-4e-4 -1e-4,-9e-4 -1e-4,-0.0014 0,-4e-4 0,-9e-4 0,-0.0014 0,-4e-4 0,-9e-4 0,-0.0014 0,-4e-4 0,-9e-4 0,-0.0013 0,-5e-4 0,-10e-4 -10e-5,-0.0014 0,-5e-4 0,-0.001 0,-0.0014 0,-5e-4 0,-0.001 0,-0.0014 0,-5e-4 0,-10e-4 0,-0.0014 0,-5e-4 0,-10e-4 0,-0.0014 0,-5e-4 -1e-4,-10e-4 -1e-4,-0.0014 0,-5e-4 0,-10e-4 0,-0.0014 0,-5e-4 0,-0.001 0,-0.0014 0,-5e-4 0,-9e-4 0,-0.0014 0,-5e-4 0,-9e-4 -1e-4,-0.0014 0,-5e-4 0,-9e-4 0,-0.0014 0,-5e-4 0,-9e-4 0,-0.0014 0,-5e-4 0,-9e-4 0,-0.0014 0,-5e-4 0,-9e-4 0,-0.0014 -1e-4,-5e-4 -1e-4,-9e-4 -1e-4,-0.0014 0,-5e-4 0,-9e-4 0,-0.0014 0,-5e-4 0,-9e-4 0,-0.0014 0,-4e-4 0,-9e-4 0,-0.0014 0,-4e-4 -1e-4,-9e-4 -1e-4,-0.0014 0,-4e-4 0,-9e-4 0,-0.0014 0,-4e-4 0,-9e-4 0,-0.0014 0,-4e-4 0,-9e-4 0,-0.0014 0,-4e-4 0,-9e-4 -10e-5,-0.0014 0,-4e-4 0,-9e-4 0,-0.0014 0,-4e-4 0,-9e-4 0,-0.0014 0,-4e-4 0,-9e-4 0,-0.0013 0,-5e-4 0,-10e-4 0,-0.0014 -1e-4,-5e-4 -1e-4,-10e-4 -1e-4,-0.0014 0,-5e-4 0,-10e-4 0,-0.0014 0,-5e-4 0,-10e-4 0,-0.0014 0,-5e-4 0,-0.001 0,-0.0014 0,-5e-4 -1e-4,-0.001 -1e-4,-0.0014 0,-5e-4 0,-10e-4 0,-0.0014 0,-5e-4 0,-10e-4 0,-0.0014 0,-5e-4 0,-9e-4 0,-0.0014 0,-5e-4 0,-9e-4 -1e-4,-0.0014 0,-5e-4 0,-9e-4 0,-0.0014 0,-5e-4 0,-9e-4 0,-0.0014 0,-5e-4 0,-9e-4 0,-0.0014 0,-5e-4 0,-9e-4 0,-0.0014 -10e-5,-5e-4 -10e-5,-9e-4 -10e-5,-0.0014 0,-5e-4 0,-9e-4 0,-0.0014 0,-5e-4 0,-9e-4 0,-0.0014 0,-4e-4 0,-9e-4 0,-0.0014 0,-4e-4 0,-9e-4 -1e-4,-0.0014 0,-4e-4 0,-9e-4 0,-0.0014 0,-4e-4 0,-9e-4 0,-0.0014 0,-4e-4 0,-9e-4 0,-0.0014 0,-4e-4 0,-9e-4 0,-0.0014 -1e-4,-4e-4 -1e-4,-9e-4 -1e-4,-0.0014 0,-4e-4 0,-9e-4 0,-0.0014 0,-4e-4 0,-9e-4 0,-0.0013 0,-5e-4 0,-10e-4 0,-0.0014 0,-5e-4 -1e-4,-10e-4 -1e-4,-0.0014 0,-5e-4 0,-0.001 0,-0.0014 0,-5e-4 0,-0.001 0,-0.0014 0,-5e-4 0,-10e-4 0,-0.0014 0,-5e-4 0,-10e-4 -10e-5,-0.0014 0,-5e-4 0,-10e-4 0,-0.0014 0,-5e-4 0,-10e-4 0,-0.0014 0,-5e-4 0,-9e-4 0,-0.0014 0,-5e-4 0,-9e-4 0,-0.0014 -1e-4,-5e-4 -1e-4,-9e-4 -1e-4,-0.0014 0,-5e-4 0,-9e-4 0,-0.0014 0,-5e-4 0,-9e-4 0,-0.0014 0,-5e-4 0,-9e-4 0,-0.0014 0,-5e-4 -1e-4,-9e-4 -1e-4,-0.0014 0,-5e-4 0,-9e-4 0,-0.0014 0,-5e-4 0,-9e-4 0,-0.0014 0,-4e-4 0,-9e-4 0,-0.0014 0,-4e-4 0,-9e-4 -1e-4,-0.0014 0,-4e-4 0,-9e-4 0,-0.0014 0,-4e-4 0,-9e-4 0,-0.0014 0,-4e-4 0,-9e-4 0,-0.0014 0,-4e-4 0,-9e-4 0,-0.0014 -1e-4,-4e-4 -1e-4,-9e-4 -1e-4,-0.0014 0,-4e-4 0,-9e-4 0,-0.0014 0,-4e-4 0,-9e-4 0,-0.0014 0,-4e-4 0,-9e-4 0,-0.0013 0,-5e-4 -10e-5,-0.001 -10e-5,-0.0014 0,-5e-4 0,-10e-4 0,-0.0014 0,-5e-4 0,-10e-4 0,-0.0014 0,-5e-4 0,-10e-4 0,-0.0014 0,-5e-4 0,-10e-4 0,-0.0014 -1e-4,-5e-4 -1e-4,-0.001 -1e-4,-0.0014 0,-5e-4 0,-0.001 0,-0.0014 0,-5e-4 0,-10e-4 0,-0.0014 0,-5e-4 0,-9e-4 0,-0.0014 0,-5e-4 -1e-4,-9e-4 -1e-4,-0.0014 0,-5e-4 0,-9e-4 0,-0.0014 0,-5e-4 0,-9e-4 0,-0.0014 0,-5e-4 0,-9e-4 0,-0.0014 0,-5e-4 0,-9e-4 -1e-4,-0.0014 0,-5e-4 0,-9e-4 0,-0.0014 0,-5e-4 0,-9e-4 0,-0.0014 0,-5e-4 0,-9e-4 0,-0.0014 0,-4e-4 0,-9e-4 0,-0.0014 -10e-5,-4e-4 -10e-5,-9e-4 -10e-5,-0.0014 0,-4e-4 0,-9e-4 0,-0.0014 0,-4e-4 0,-9e-4 0,-0.0014 0,-4e-4 0,-9e-4 0,-0.0014 0,-4e-4 -1e-4,-9e-4 -1e-4,-0.0014 0,-4e-4 0,-9e-4 0,-0.0014 0,-4e-4 0,-9e-4 0,-0.0014 0,-4e-4 0,-9e-4 0,-0.0013 0,-5e-4 0,-10e-4 -1e-4,-0.0014 0,-5e-4 0,-10e-4 0,-0.0014 0,-5e-4 0,-10e-4 0,-0.0014 0,-5e-4 0,-0.001 0,-0.0014 0,-5e-4 0,-0.001 0,-0.0014 -1e-4,-5e-4 -1e-4,-10e-4 -1e-4,-0.0014 0,-5e-4 0,-10e-4 0,-0.0014 0,-5e-4 0,-10e-4 0,-0.0014 0,-5e-4 0,-9e-4 0,-0.0014 0,-5e-4 -10e-5,-9e-4 -10e-5,-0.0014 0,-5e-4 0,-9e-4 0,-0.0014 0,-5e-4 0,-9e-4 0,-0.0014 0,-5e-4 0,-9e-4 0,-0.0014 0,-5e-4 0,-9e-4 -1e-4,-0.0014 0,-5e-4 0,-9e-4 0,-0.0014 0,-5e-4 0,-9e-4 0,-0.0014 0,-5e-4 0,-9e-4 0,-0.0014 0,-4e-4 0,-9e-4 0,-0.0014 -1e-4,-4e-4 -1e-4,-9e-4 -1e-4,-0.0014 0,-4e-4 0,-9e-4 0,-0.0014 0,-4e-4 0,-9e-4 0,-0.0014 0,-4e-4 0,-9e-4 0,-0.0014 0,-4e-4 0,-9e-4 -1e-4,-0.0014 0,-4e-4 0,-9e-4 0,-0.0014 0,-4e-4 0,-9e-4 0,-0.0014 0,-4e-4 0,-9e-4 0,-0.0013 0,-5e-4 0,-0.001 0,-0.0014 -10e-5,-5e-4 -10e-5,-0.001 -10e-5,-0.0014 0,-5e-4 0,-10e-4 0,-0.0014 0,-5e-4 0,-10e-4 0,-0.0014 0,-5e-4 0,-10e-4 0,-0.0014 0,-5e-4 -1e-4,-10e-4 -1e-4,-0.0014 0,-5e-4 0,-10e-4 0,-0.0014 0,-5e-4 0,-0.001 0,-0.0014 0,-5e-4 0,-9e-4 0,-0.0014 0,-5e-4 0,-9e-4 -1e-4,-0.0014 0,-5e-4 0,-9e-4 0,-0.0014 0,-5e-4 0,-9e-4 0,-0.0014 0,-5e-4 0,-9e-4 0,-0.0014 0,-5e-4 0,-9e-4 0,-0.0014 -1e-4,-5e-4 -1e-4,-9e-4 -1e-4,-0.0014 0,-5e-4 0,-9e-4 0,-0.0014 0,-5e-4 0,-9e-4 0,-0.0014 0,-4e-4 0,-9e-4 0,-0.0014 0,-4e-4 -1e-4,-9e-4 -1e-4,-0.0014 0,-4e-4 0,-9e-4 0,-0.0014 0,-4e-4 0,-9e-4 0,-0.0014 0,-4e-4 0,-9e-4 0,-0.0014 0,-4e-4 0,-9e-4 -10e-5,-0.0014 0,-4e-4 0,-9e-4 0,-0.0014 0,-4e-4 0,-9e-4 0,-0.0014 0,-4e-4 0,-9e-4 0,-0.0013 0,-5e-4 0,-10e-4 0,-0.0014 -1e-4,-5e-4 -1e-4,-10e-4 -1e-4,-0.0014 0,-5e-4 0,-10e-4 0,-0.0014 0,-5e-4 0,-10e-4 0,-0.0014 0,-5e-4 0,-0.001 0,-0.0014 0,-5e-4 -1e-4,-0.001 -1e-4,-0.0014 0,-5e-4 0,-10e-4 0,-0.0014 0,-5e-4 0,-10e-4 0,-0.0014 0,-5e-4 0,-9e-4 0,-0.0014 0,-5e-4 0,-9e-4 0,-0.0014 -1e-4,-5e-4 -1e-4,-9e-4 -1e-4,-0.0014 0,-5e-4 0,-9e-4 0,-0.0014 0,-5e-4 0,-9e-4 0,-0.0014 0,-5e-4 0,-9e-4 0,-0.0014 0,-5e-4 -10e-5,-9e-4 -10e-5,-0.0014 0,-5e-4 0,-9e-4 0,-0.0014 0,-5e-4 0,-9e-4 0,-0.0014 0,-4e-4 0,-9e-4 0,-0.0014 0,-4e-4 0,-9e-4 -1e-4,-0.0014 0,-4e-4 0,-9e-4 0,-0.0014 0,-4e-4 0,-9e-4 0,-0.0014 0,-4e-4 0,-9e-4 0,-0.0014 0,-4e-4 0,-9e-4 0,-0.0014 -1e-4,-4e-4 -1e-4,-9e-4 -1e-4,-0.0014 0,-4e-4 0,-9e-4 0,-0.0014 0,-4e-4 0,-9e-4 0,-0.0013 0,-5e-4 0,-10e-4 0,-0.0014 0,-5e-4 -1e-4,-10e-4 -1e-4,-0.0014 0,-5e-4 0,-0.001 0,-0.0014 0,-5e-4 0,-0.001 0,-0.0014 0,-5e-4 0,-10e-4 0,-0.0014 0,-5e-4 0,-10e-4 -10e-5,-0.0014 0,-5e-4 0,-10e-4 0,-0.0014 0,-5e-4 0,-10e-4 0,-0.0014 0,-5e-4 0,-9e-4 0,-0.0014 0,-5e-4 0,-9e-4 0,-0.0014 -1e-4,-5e-4 -1e-4,-9e-4 -1e-4,-0.0014 0,-5e-4 0,-9e-4 0,-0.0014 0,-5e-4 0,-9e-4 0,-0.0014 0,-5e-4 0,-9e-4 0,-0.0014 0,-5e-4 -1e-4,-9e-4 -1e-4,-0.0014 0,-5e-4 0,-9e-4 0,-0.0014 0,-5e-4 0,-9e-4 0,-0.0014 0,-4e-4 0,-9e-4 0,-0.0014 0,-4e-4 0,-9e-4 -1e-4,-0.0014 0,-4e-4 0,-9e-4 0,-0.0014 0,-4e-4 0,-9e-4 0,-0.0014 0,-4e-4 0,-9e-4 0,-0.0014 0,-4e-4 0,-9e-4 0,-0.0014 0,-4e-4 -1e-4,-9e-4 -1e-4,-0.0014 0,-4e-4 0,-9e-4 0,-0.0014 0,-4e-4 0,-9e-4 0,-0.0013 0,-5e-4 0,-0.001 0,-0.0014 0,-5e-4 0,-0.001 -10e-5,-0.0014 0,-5e-4 0,-10e-4 0,-0.0014 0,-5e-4 0,-10e-4 0,-0.0014 0,-5e-4 0,-10e-4 0,-0.0014 0,-5e-4 0,-10e-4 0,-0.0014 -1e-4,-5e-4 -1e-4,-0.001 -1e-4,-0.0014 0,-5e-4 0,-0.001 0,-0.0014 0,-5e-4 0,-9e-4 0,-0.0014 0,-5e-4 0,-9e-4 0,-0.0014 0,-5e-4 -1e-4,-9e-4 -1e-4,-0.0014 0,-5e-4 0,-9e-4 0,-0.0014 0,-5e-4 0,-9e-4 0,-0.0014 0,-5e-4 0,-9e-4 0,-0.0014 0,-5e-4 0,-9e-4 -1e-4,-0.0014 0,-5e-4 0,-9e-4 0,-0.0014 0,-5e-4 0,-9e-4 0,-0.0014 0,-5e-4 0,-9e-4 0,-0.0014 0,-4e-4 0,-9e-4 0,-0.0014 -10e-5,-4e-4 -10e-5,-9e-4 -10e-5,-0.0014 0,-4e-4 0,-9e-4 0,-0.0014 0,-4e-4 0,-9e-4 0,-0.0014 0,-4e-4 0,-9e-4 0,-0.0014 0,-4e-4 -1e-4,-9e-4 -1e-4,-0.0014 0,-4e-4 0,-9e-4 0,-0.0014 0,-4e-4 0,-9e-4 0,-0.0014 0,-4e-4 0,-9e-4 0,-0.0013 0,-5e-4 0,-10e-4 -1e-4,-0.0014 0,-5e-4 0,-10e-4 0,-0.0014 0,-5e-4 0,-0.001 0,-0.0014 l -1.9997,0.0327 c 0,5e-4 0,10e-4 0,0.0014 0,5e-4 0,0.001 0,0.0014 0,5e-4 0,0.001 0,0.0014 0,5e-4 1e-4,10e-4 1e-4,0.0014 0,5e-4 0,10e-4 0,0.0014 0,5e-4 0,10e-4 0,0.0014 0,5e-4 0,10e-4 0,0.0014 0,5e-4 0,0.001 1e-4,0.0014 0,5e-4 0,9e-4 0,0.0014 0,5e-4 0,9e-4 0,0.0014 0,5e-4 0,9e-4 0,0.0014 0,5e-4 0,9e-4 0,0.0014 1e-4,5e-4 1e-4,9e-4 1e-4,0.0014 0,5e-4 0,9e-4 0,0.0014 0,5e-4 0,9e-4 0,0.0014 0,5e-4 0,9e-4 0,0.0014 0,5e-4 10e-5,9e-4 10e-5,0.0014 0,4e-4 0,9e-4 0,0.0014 0,4e-4 0,9e-4 0,0.0014 0,4e-4 0,9e-4 0,0.0014 0,4e-4 0,9e-4 1e-4,0.0014 0,4e-4 0,9e-4 0,0.0014 0,4e-4 0,9e-4 0,0.0014 0,4e-4 0,9e-4 0,0.0014 0,4e-4 0,9e-4 0,0.0014 1e-4,4e-4 1e-4,9e-4 1e-4,0.0013 0,5e-4 0,0.001 0,0.0014 0,5e-4 0,10e-4 0,0.0014 0,5e-4 0,10e-4 0,0.0014 0,5e-4 1e-4,10e-4 1e-4,0.0014 0,5e-4 0,10e-4 0,0.0014 0,5e-4 0,0.001 0,0.0014 0,5e-4 0,0.001 0,0.0014 0,5e-4 0,10e-4 0,0.0014 1e-4,5e-4 1e-4,9e-4 1e-4,0.0014 0,5e-4 0,9e-4 0,0.0014 0,5e-4 0,9e-4 0,0.0014 0,5e-4 0,9e-4 0,0.0014 0,5e-4 10e-5,9e-4 10e-5,0.0014 0,5e-4 0,9e-4 0,0.0014 0,5e-4 0,9e-4 0,0.0014 0,5e-4 0,9e-4 0,0.0014 0,5e-4 0,9e-4 1e-4,0.0014 0,4e-4 0,9e-4 0,0.0014 0,4e-4 0,9e-4 0,0.0014 0,4e-4 0,9e-4 0,0.0014 0,4e-4 0,9e-4 0,0.0014 1e-4,4e-4 1e-4,9e-4 1e-4,0.0014 0,4e-4 0,9e-4 0,0.0014 0,4e-4 0,9e-4 0,0.0014 0,4e-4 0,9e-4 0,0.0014 0,4e-4 1e-4,9e-4 1e-4,0.0013 0,5e-4 0,10e-4 0,0.0014 0,5e-4 0,10e-4 0,0.0014 0,5e-4 0,0.001 0,0.0014 0,5e-4 0,0.001 10e-5,0.0014 0,5e-4 0,10e-4 0,0.0014 0,5e-4 0,10e-4 0,0.0014 0,5e-4 0,10e-4 0,0.0014 0,5e-4 0,10e-4 0,0.0014 1e-4,5e-4 1e-4,9e-4 1e-4,0.0014 0,5e-4 0,9e-4 0,0.0014 0,5e-4 0,9e-4 0,0.0014 0,5e-4 0,9e-4 0,0.0014 0,5e-4 1e-4,9e-4 1e-4,0.0014 0,5e-4 0,9e-4 0,0.0014 0,5e-4 0,9e-4 0,0.0014 0,5e-4 0,9e-4 0,0.0014 0,5e-4 0,9e-4 1e-4,0.0014 0,4e-4 0,9e-4 0,0.0014 0,4e-4 0,9e-4 0,0.0014 0,4e-4 0,9e-4 0,0.0014 0,4e-4 0,9e-4 0,0.0014 0,4e-4 10e-5,9e-4 10e-5,0.0014 0,4e-4 0,9e-4 0,0.0014 0,4e-4 0,9e-4 0,0.0014 0,4e-4 0,9e-4 0,0.0014 0,4e-4 0,9e-4 1e-4,0.0013 0,5e-4 0,0.001 0,0.0014 0,5e-4 0,0.001 0,0.0014 0,5e-4 0,10e-4 0,0.0014 0,5e-4 0,10e-4 0,0.0014 1e-4,5e-4 1e-4,10e-4 1e-4,0.0014 0,5e-4 0,10e-4 0,0.0014 0,5e-4 0,0.001 0,0.0014 0,5e-4 0,0.001 0,0.0014 0,5e-4 1e-4,9e-4 1e-4,0.0014 0,5e-4 0,9e-4 0,0.0014 0,5e-4 0,9e-4 0,0.0014 0,5e-4 0,9e-4 0,0.0014 0,5e-4 0,9e-4 1e-4,0.0014 0,5e-4 0,9e-4 0,0.0014 0,5e-4 0,9e-4 0,0.0014 0,5e-4 0,9e-4 0,0.0014 0,5e-4 0,9e-4 0,0.0014 10e-5,4e-4 10e-5,9e-4 10e-5,0.0014 0,4e-4 0,9e-4 0,0.0014 0,4e-4 0,9e-4 0,0.0014 0,4e-4 0,9e-4 0,0.0014 0,4e-4 1e-4,9e-4 1e-4,0.0014 0,4e-4 0,9e-4 0,0.0014 0,4e-4 0,9e-4 0,0.0014 0,4e-4 0,9e-4 0,0.0014 0,4e-4 0,9e-4 1e-4,0.0014 0,4e-4 0,9e-4 0,0.0013 0,5e-4 0,10e-4 0,0.0014 0,5e-4 0,10e-4 0,0.0014 0,5e-4 0,10e-4 0,0.0014 1e-4,5e-4 1e-4,0.001 1e-4,0.0014 0,5e-4 0,0.001 0,0.0014 0,5e-4 0,10e-4 0,0.0014 0,5e-4 0,10e-4 0,0.0014 0,5e-4 0,10e-4 10e-5,0.0014 0,5e-4 0,9e-4 0,0.0014 0,5e-4 0,9e-4 0,0.0014 0,5e-4 0,9e-4 0,0.0014 0,5e-4 0,9e-4 0,0.0014 1e-4,5e-4 1e-4,9e-4 1e-4,0.0014 0,5e-4 0,9e-4 0,0.0014 0,5e-4 0,9e-4 0,0.0014 0,5e-4 0,9e-4 0,0.0014 0,5e-4 1e-4,9e-4 1e-4,0.0014 0,4e-4 0,9e-4 0,0.0014 0,4e-4 0,9e-4 0,0.0014 0,4e-4 0,9e-4 0,0.0014 0,4e-4 0,9e-4 1e-4,0.0014 0,4e-4 0,9e-4 0,0.0014 0,4e-4 0,9e-4 0,0.0014 0,4e-4 0,9e-4 0,0.0014 0,4e-4 0,9e-4 0,0.0014 10e-5,4e-4 10e-5,9e-4 10e-5,0.0013 0,5e-4 0,10e-4 0,0.0014 0,5e-4 0,0.001 0,0.0014 0,5e-4 0,0.001 0,0.0014 0,5e-4 1e-4,10e-4 1e-4,0.0014 0,5e-4 0,10e-4 0,0.0014 0,5e-4 0,10e-4 0,0.0014 0,5e-4 0,10e-4 0,0.0014 0,5e-4 0,0.001 1e-4,0.0014 0,5e-4 0,9e-4 0,0.0014 0,5e-4 0,9e-4 0,0.0014 0,5e-4 0,9e-4 0,0.0014 0,5e-4 0,9e-4 0,0.0014 1e-4,5e-4 1e-4,9e-4 1e-4,0.0014 0,5e-4 0,9e-4 0,0.0014 0,5e-4 0,9e-4 0,0.0014 0,5e-4 0,9e-4 0,0.0014 0,5e-4 10e-5,9e-4 10e-5,0.0014 0,4e-4 0,9e-4 0,0.0014 0,4e-4 0,9e-4 0,0.0014 0,4e-4 0,9e-4 0,0.0014 0,4e-4 0,9e-4 1e-4,0.0014 0,4e-4 0,9e-4 0,0.0014 0,4e-4 0,9e-4 0,0.0014 0,4e-4 0,9e-4 0,0.0014 0,4e-4 0,9e-4 0,0.0014 0,4e-4 1e-4,9e-4 1e-4,0.0013 0,5e-4 0,10e-4 0,0.0014 0,5e-4 0,10e-4 0,0.0014 0,5e-4 0,10e-4 0,0.0014 0,5e-4 0,10e-4 1e-4,0.0014 0,5e-4 0,10e-4 0,0.0014 0,5e-4 0,0.001 0,0.0014 0,5e-4 0,10e-4 0,0.0014 0,5e-4 0,10e-4 0,0.0014 1e-4,5e-4 1e-4,9e-4 1e-4,0.0014 0,5e-4 0,9e-4 0,0.0014 0,5e-4 0,9e-4 0,0.0014 0,5e-4 0,9e-4 0,0.0014 0,5e-4 10e-5,9e-4 10e-5,0.0014 0,5e-4 0,9e-4 0,0.0014 0,5e-4 0,9e-4 0,0.0014 0,5e-4 0,9e-4 0,0.0014 0,5e-4 0,9e-4 1e-4,0.0014 0,4e-4 0,9e-4 0,0.0014 0,4e-4 0,9e-4 0,0.0014 0,4e-4 0,9e-4 0,0.0014 0,4e-4 0,9e-4 0,0.0014 1e-4,4e-4 1e-4,9e-4 1e-4,0.0014 0,4e-4 0,9e-4 0,0.0014 0,4e-4 0,9e-4 0,0.0014 0,4e-4 0,9e-4 0,0.0014 0,4e-4 1e-4,9e-4 1e-4,0.0013 0,5e-4 0,10e-4 0,0.0014 0,5e-4 0,10e-4 0,0.0014 0,5e-4 0,0.001 0,0.0014 0,5e-4 0,0.001 10e-5,0.0014 0,5e-4 0,10e-4 0,0.0014 0,5e-4 0,10e-4 0,0.0014 0,5e-4 0,10e-4 0,0.0014 0,5e-4 0,10e-4 0,0.0014 1e-4,5e-4 1e-4,9e-4 1e-4,0.0014 0,5e-4 0,9e-4 0,0.0014 0,5e-4 0,9e-4 0,0.0014 0,5e-4 0,9e-4 0,0.0014 0,5e-4 0,9e-4 1e-4,0.0014 0,5e-4 0,9e-4 0,0.0014 0,5e-4 0,9e-4 0,0.0014 0,5e-4 0,9e-4 0,0.0014 0,5e-4 0,9e-4 0,0.0014 1e-4,4e-4 1e-4,9e-4 1e-4,0.0014 0,4e-4 0,9e-4 0,0.0014 0,4e-4 0,9e-4 0,0.0014 0,4e-4 0,9e-4 0,0.0014 0,4e-4 10e-5,9e-4 10e-5,0.0014 0,4e-4 0,9e-4 0,0.0014 0,4e-4 0,9e-4 0,0.0014 0,4e-4 0,9e-4 0,0.0014 0,4e-4 0,9e-4 1e-4,0.0013 0,5e-4 0,0.001 0,0.0014 0,5e-4 0,0.001 0,0.0014 0,5e-4 0,10e-4 0,0.0014 0,5e-4 0,10e-4 0,0.0014 1e-4,5e-4 1e-4,10e-4 1e-4,0.0014 0,5e-4 0,10e-4 0,0.0014 0,5e-4 0,0.001 0,0.0014 0,5e-4 0,0.001 0,0.0014 0,5e-4 1e-4,9e-4 1e-4,0.0014 0,5e-4 0,9e-4 0,0.0014 0,5e-4 0,9e-4 0,0.0014 0,5e-4 0,9e-4 0,0.0014 0,5e-4 0,9e-4 1e-4,0.0014 0,5e-4 0,9e-4 0,0.0014 0,5e-4 0,9e-4 0,0.0014 0,5e-4 0,9e-4 0,0.0014 0,5e-4 0,9e-4 0,0.0014 10e-5,4e-4 10e-5,9e-4 10e-5,0.0014 0,4e-4 0,9e-4 0,0.0014 0,4e-4 0,9e-4 0,0.0014 0,4e-4 0,9e-4 0,0.0014 0,4e-4 1e-4,9e-4 1e-4,0.0014 0,4e-4 0,9e-4 0,0.0014 0,4e-4 0,9e-4 0,0.0014 0,4e-4 0,9e-4 0,0.0014 0,4e-4 0,9e-4 0,0.0013 1e-4,5e-4 1e-4,0.001 1e-4,0.0014 0,5e-4 0,0.001 0,0.0014 0,5e-4 0,0.001 0,0.0014 0,5e-4 0,10e-4 0,0.0014 0,5e-4 1e-4,10e-4 1e-4,0.0014 0,5e-4 0,10e-4 0,0.0014 0,5e-4 0,10e-4 0,0.0014 0,5e-4 0,0.001 0,0.0014 0,5e-4 0,9e-4 10e-5,0.0014 0,5e-4 0,9e-4 0,0.0014 0,5e-4 0,9e-4 0,0.0014 0,5e-4 0,9e-4 0,0.0014 0,5e-4 0,9e-4 0,0.0014 1e-4,5e-4 1e-4,9e-4 1e-4,0.0014 0,5e-4 0,9e-4 0,0.0014 0,5e-4 0,9e-4 0,0.0014 0,5e-4 0,9e-4 0,0.0014 0,5e-4 1e-4,9e-4 1e-4,0.0014 0,4e-4 0,9e-4 0,0.0014 0,4e-4 0,9e-4 0,0.0014 0,4e-4 0,9e-4 0,0.0014 0,4e-4 0,9e-4 1e-4,0.0014 0,4e-4 0,9e-4 0,0.0014 0,4e-4 0,9e-4 0,0.0014 0,4e-4 0,9e-4 0,0.0014 0,4e-4 0,9e-4 0,0.0014 10e-5,4e-4 10e-5,9e-4 10e-5,0.0013 0,5e-4 0,10e-4 0,0.0014 0,5e-4 0,10e-4 0,0.0014 0,5e-4 0,10e-4 0,0.0014 0,5e-4 1e-4,10e-4 1e-4,0.0014 0,5e-4 0,0.001 0,0.0014 0,5e-4 0,0.001 0,0.0014 0,5e-4 0,0.001 0,0.0014 0,5e-4 0,0.001 1e-4,0.0014 0,5e-4 0,9e-4 0,0.0014 0,5e-4 0,9e-4 0,0.0014 0,5e-4 0,9e-4 0,0.0014 0,5e-4 0,9e-4 0,0.0014 1e-4,5e-4 1e-4,9e-4 1e-4,0.0014 0,5e-4 0,9e-4 0,0.0014 0,5e-4 0,9e-4 0,0.0014 0,5e-4 0,9e-4 0,0.0014 0,5e-4 0,9e-4 10e-5,0.0014 0,4e-4 0,9e-4 0,0.0014 0,4e-4 0,9e-4 0,0.0014 0,4e-4 0,9e-4 0,0.0014 0,4e-4 0,9e-4 0,0.0014 1e-4,4e-4 1e-4,9e-4 1e-4,0.0014 0,4e-4 0,9e-4 0,0.0014 0,4e-4 0,9e-4 0,0.0014 0,4e-4 0,9e-4 0,0.0014 0,4e-4 1e-4,9e-4 1e-4,0.0013 0,5e-4 0,10e-4 0,0.0014 0,5e-4 0,0.001 0,0.0014 0,5e-4 0,0.001 0,0.0014 0,5e-4 0,0.001 1e-4,0.0014 0,5e-4 0,0.001 0,0.0014 0,5e-4 0,0.001 0,0.0014 0,5e-4 0,0.001 0,0.0014 0,5e-4 0,0.001 0,0.0014 1e-4,5e-4 1e-4,9e-4 1e-4,0.0014 0,5e-4 0,9e-4 0,0.0014 0,5e-4 0,9e-4 0,0.0014 0,5e-4 0,9e-4 0,0.0014 0,5e-4 10e-5,9e-4 10e-5,0.0014 0,5e-4 0,9e-4 0,0.0014 0,5e-4 0,9e-4 0,0.0014 0,5e-4 0,9e-4 0,0.0014 0,5e-4 0,9e-4 1e-4,0.0014 0,4e-4 0,9e-4 0,0.0014 0,4e-4 0,9e-4 0,0.0014 0,4e-4 0,9e-4 0,0.0014 0,4e-4 0,9e-4 0,0.0014 1e-4,4e-4 1e-4,9e-4 1e-4,0.0014 0,4e-4 0,9e-4 0,0.0014 0,4e-4 0,9e-4 0,0.0014 0,4e-4 0,9e-4 0,0.0014 0,4e-4 1e-4,9e-4 1e-4,0.0013 0,5e-4 0,0.001 0,0.0014 0,5e-4 0,0.001 0,0.0014 0,5e-4 0,0.001 0,0.0014 0,5e-4 0,0.001 0,0.0014 10e-5,5e-4 10e-5,0.001 10e-5,0.0014 0,5e-4 0,0.001 0,0.0014 0,5e-4 0,0.001 0,0.0014 0,5e-4 0,10e-4 0,0.0014 0,5e-4 1e-4,9e-4 1e-4,0.0014 0,5e-4 0,9e-4 0,0.0014 0,5e-4 0,9e-4 0,0.0014 0,5e-4 0,9e-4 0,0.0014 0,5e-4 0,9e-4 1e-4,0.0014 0,5e-4 0,9e-4 0,0.0014 0,5e-4 0,9e-4 0,0.0014 0,5e-4 0,9e-4 0,0.0014 0,5e-4 0,9e-4 0,0.0014 1e-4,4e-4 1e-4,9e-4 1e-4,0.0014 0,4e-4 0,9e-4 0,0.0014 0,4e-4 0,9e-4 0,0.0014 0,4e-4 0,9e-4 0,0.0014 0,4e-4 10e-5,9e-4 10e-5,0.0014 0,4e-4 0,9e-4 0,0.0014 0,4e-4 0,9e-4 0,0.0014 0,4e-4 0,9e-4 0,0.0014 0,4e-4 0,9e-4 1e-4,0.0013 0,5e-4 0,0.001 0,0.0014 0,5e-4 0,0.001 0,0.0014 0,5e-4 0,0.001 0,0.0014 0,5e-4 0,0.001 0,0.0014 1e-4,5e-4 1e-4,0.001 1e-4,0.0014 0,5e-4 0,10e-4 0,0.0014 0,5e-4 0,10e-4 0,0.0014 0,5e-4 0,10e-4 0,0.0014 0,5e-4 1e-4,9e-4 1e-4,0.0014 0,5e-4 0,9e-4 0,0.0014 0,5e-4 0,9e-4 0,0.0014 0,5e-4 0,9e-4 0,0.0014 0,5e-4 0,9e-4 1e-4,0.0014 0,5e-4 0,9e-4 0,0.0014 0,5e-4 0,9e-4 0,0.0014 0,5e-4 0,9e-4 0,0.0014 0,5e-4 0,9e-4 0,0.0014 0,4e-4 10e-5,9e-4 10e-5,0.0014 0,4e-4 0,9e-4 0,0.0014 0,4e-4 0,9e-4 0,0.0014 0,4e-4 0,9e-4 0,0.0014 0,4e-4 0,9e-4 1e-4,0.0014 0,4e-4 0,9e-4 0,0.0014 0,4e-4 0,9e-4 0,0.0014 0,4e-4 0,9e-4 0,0.0014 0,4e-4 0,9e-4 0,0.0013 1e-4,5e-4 1e-4,0.001 1e-4,0.0014 0,5e-4 0,0.001 0,0.0014 0,5e-4 0,10e-4 0,0.0014 0,5e-4 0,10e-4 0,0.0014 0,5e-4 1e-4,10e-4 1e-4,0.0014 0,5e-4 0,10e-4 0,0.0014 0,5e-4 0,10e-4 0,0.0014 0,5e-4 0,0.001 0,0.0014 0,5e-4 0,9e-4 10e-5,0.0014 0,5e-4 0,9e-4 0,0.0014 0,5e-4 0,9e-4 0,0.0014 0,5e-4 0,9e-4 0,0.0014 0,5e-4 0,9e-4 0,0.0014 1e-4,5e-4 1e-4,9e-4 1e-4,0.0014 0,5e-4 0,9e-4 0,0.0014 0,5e-4 0,9e-4 0,0.0014 0,5e-4 0,9e-4 0,0.0014 0,4e-4 1e-4,9e-4 1e-4,0.0014 0,4e-4 0,9e-4 0,0.0014 0,4e-4 0,9e-4 0,0.0014 0,4e-4 0,9e-4 0,0.0014 0,4e-4 0,9e-4 1e-4,0.0014 0,4e-4 0,9e-4 0,0.0014 0,4e-4 0,9e-4 0,0.0014 0,4e-4 0,9e-4 0,0.0014 0,4e-4 0,9e-4 0,0.0013 10e-5,5e-4 10e-5,10e-4 10e-5,0.0014 0,5e-4 0,10e-4 0,0.0014 0,5e-4 0,10e-4 0,0.0014 0,5e-4 0,10e-4 0,0.0014 0,5e-4 1e-4,0.001 1e-4,0.0014 0,5e-4 0,0.001 0,0.0014 0,5e-4 0,0.001 0,0.0014 0,5e-4 0,0.001 0,0.0014 0,5e-4 0,9e-4 0,0.0014 1e-4,5e-4 1e-4,9e-4 1e-4,0.0014 0,5e-4 0,9e-4 0,0.0014 0,5e-4 0,9e-4 0,0.0014 0,5e-4 0,9e-4 0,0.0014 0,5e-4 1e-4,9e-4 1e-4,0.0014 0,5e-4 0,9e-4 0,0.0014 0,5e-4 0,9e-4 0,0.0014 0,5e-4 0,9e-4 0,0.0014 0,5e-4 0,9e-4 10e-5,0.0014 0,4e-4 0,9e-4 0,0.0014 0,4e-4 0,9e-4 0,0.0014 0,4e-4 0,9e-4 0,0.0014 0,4e-4 0,9e-4 0,0.0014 1e-4,4e-4 1e-4,9e-4 1e-4,0.0014 0,4e-4 0,9e-4 0,0.0014 0,4e-4 0,9e-4 0,0.0014 0,4e-4 0,9e-4 0,0.0014 0,4e-4 1e-4,9e-4 1e-4,0.0013 0,5e-4 0,10e-4 0,0.0014 0,5e-4 0,0.001 0,0.0014 0,5e-4 0,0.001 0,0.0014 0,5e-4 0,0.001 1e-4,0.0014 0,5e-4 0,0.001 0,0.0014 0,5e-4 0,0.001 0,0.0014 0,5e-4 0,0.001 0,0.0014 0,5e-4 0,0.001 0,0.0014 1e-4,5e-4 1e-4,9e-4 1e-4,0.0014 0,5e-4 0,9e-4 0,0.0014 0,5e-4 0,9e-4 0,0.0014 0,5e-4 0,9e-4 0,0.0014 0,5e-4 10e-5,9e-4 10e-5,0.0014 0,5e-4 0,9e-4 0,0.0014 0,5e-4 0,9e-4 0,0.0014 0,5e-4 0,9e-4 0,0.0014 0,5e-4 0,9e-4 1e-4,0.0014 0,4e-4 0,9e-4 0,0.0014 0,4e-4 0,9e-4 0,0.0014 0,4e-4 0,9e-4 0,0.0014 0,4e-4 0,9e-4 0,0.0014 0,4e-4 1e-4,9e-4 1e-4,0.0014 0,4e-4 0,9e-4 0,0.0014 0,4e-4 0,9e-4 0,0.0014 0,4e-4 0,9e-4 0,0.0014 0,4e-4 0,9e-4 1e-4,0.0013 0,5e-4 0,0.001 0,0.0014 0,5e-4 0,0.001 0,0.0014 0,5e-4 0,0.001 0,0.0014 0,5e-4 0,0.001 0,0.0014 10e-5,5e-4 10e-5,0.001 10e-5,0.0014 0,5e-4 0,0.001 0,0.0014 0,5e-4 0,0.001 0,0.0014 0,5e-4 0,10e-4 0,0.0014 0,5e-4 1e-4,9e-4 1e-4,0.0014 0,5e-4 0,9e-4 0,0.0014 0,5e-4 0,9e-4 0,0.0014 0,5e-4 0,9e-4 0,0.0014 0,5e-4 0,9e-4 1e-4,0.0014 0,5e-4 0,9e-4 0,0.0014 0,5e-4 0,9e-4 0,0.0014 0,5e-4 0,9e-4 0,0.0014 0,5e-4 0,9e-4 0,0.0014 1e-4,4e-4 1e-4,9e-4 1e-4,0.0014 0,4e-4 0,9e-4 0,0.0014 0,4e-4 0,9e-4 0,0.0014 0,4e-4 0,9e-4 0,0.0014 0,4e-4 10e-5,9e-4 10e-5,0.0014 0,4e-4 0,9e-4 0,0.0014 0,4e-4 0,9e-4 0,0.0014 0,4e-4 0,9e-4 0,0.0014 0,4e-4 0,9e-4 1e-4,0.0013 0,5e-4 0,0.001 0,0.0014 0,5e-4 0,0.001 0,0.0014 0,5e-4 0,0.001 0,0.0014 0,5e-4 0,0.001 0,0.0014 1e-4,5e-4 1e-4,10e-4 1e-4,0.0014 0,5e-4 0,10e-4 0,0.0014 0,5e-4 0,10e-4 0,0.0014 0,5e-4 0,10e-4 0,0.0014 0,5e-4 0,9e-4 1e-4,0.0014 0,5e-4 0,9e-4 0,0.0014 0,5e-4 0,9e-4 0,0.0014 0,5e-4 0,9e-4 0,0.0014 0,5e-4 0,9e-4 0,0.0014 10e-5,5e-4 10e-5,9e-4 10e-5,0.0014 0,5e-4 0,9e-4 0,0.0014 0,5e-4 0,9e-4 0,0.0014 0,5e-4 0,9e-4 0,0.0014 0,4e-4 1e-4,9e-4 1e-4,0.0014 0,4e-4 0,9e-4 0,0.0014 0,4e-4 0,9e-4 0,0.0014 0,4e-4 0,9e-4 0,0.0014 0,4e-4 0,9e-4 1e-4,0.0014 0,4e-4 0,9e-4 0,0.0014 0,4e-4 0,9e-4 0,0.0014 0,4e-4 0,9e-4 0,0.0014 0,4e-4 0,9e-4 0,0.0013 1e-4,5e-4 1e-4,0.001 1e-4,0.0014 0,5e-4 0,0.001 0,0.0014 0,5e-4 0,10e-4 0,0.0014 0,5e-4 0,10e-4 0,0.0014 0,5e-4 1e-4,10e-4 1e-4,0.0014 0,5e-4 0,10e-4 0,0.0014 0,5e-4 0,0.001 0,0.0014 0,5e-4 0,0.001 0,0.0014 0,5e-4 0,9e-4 10e-5,0.0014 0,5e-4 0,9e-4 0,0.0014 0,5e-4 0,9e-4 0,0.0014 0,5e-4 0,9e-4 0,0.0014 0,5e-4 0,9e-4 0,0.0014 1e-4,5e-4 1e-4,9e-4 1e-4,0.0014 0,5e-4 0,9e-4 0,0.0014 z m -0.012,-0.7263 c -0.0224,-0.8055 -0.0617,-1.4634 -0.1545,-1.8221 l -1.9363,0.5007 c -6e-4,-0.0025 0.0013,0.0047 0.0049,0.0249 0.0035,0.0195 0.0078,0.0465 0.0124,0.0822 0.0094,0.0718 0.0192,0.1672 0.0285,0.2891 0.0188,0.2439 0.0343,0.5693 0.0458,0.981 z M 86.2914,13.8297 C 86.2338,13.5869 86.16,13.326 86.0546,13.1153 l -1.7888,0.8944 c -0.0067,-0.0134 0.001,-4e-4 0.019,0.0562 0.0167,0.0527 0.0371,0.1265 0.0606,0.2255 z m -0.2201,-0.6794 c -0.1269,-0.2804 -0.3101,-0.5384 -0.516,-0.7736 l -1.5051,1.317 c 0.1222,0.1397 0.1773,0.2333 0.1989,0.281 z m -1.2685,0.8849 h 2.1386 v -2 h -2.1386 z m 1.175,-1.2672 c -0.1255,0.4528 -0.2041,0.8972 -0.2282,1.3308 l 1.9969,0.111 c 0.015,-0.2695 0.0654,-0.5712 0.1586,-0.9075 z m -0.2286,1.3381 -0.041,0.8496 1.9977,0.0964 0.041,-0.8496 z m -0.0412,0.8554 c -0.0275,0.6484 -0.042,1.1555 -0.042,1.5131 h 2 c 0,-0.3143 0.013,-0.7876 0.0402,-1.4283 z m -0.042,1.5131 c 0,0.3337 0.0019,0.5766 0.0065,0.713 L 87.6714,17.121 C 87.6681,17.023 87.666,16.8127 87.666,16.4746 Z m 0.0081,0.7462 c 0.0107,0.1609 0.0347,0.3433 0.0911,0.5217 l 1.9072,-0.6022 c 0.0057,0.0182 0.0059,0.024 0.004,0.0125 -0.0017,-0.0108 -0.0045,-0.0318 -0.0067,-0.065 z m 0.0869,0.508 c 0.0797,0.2659 0.2489,0.5423 0.5458,0.7303 0.2818,0.1784 0.5783,0.2135 0.8052,0.2041 l -0.0833,-1.9983 c 0.0394,-0.0016 0.1836,3e-4 0.3482,0.1045 0.1797,0.1138 0.2668,0.2749 0.2997,0.3847 z m 1.3501,0.9344 c 0.3039,-0.0124 0.607,-0.0759 0.8939,-0.2084 l -0.8381,-1.8159 c -0.0178,0.0082 -0.0584,0.0228 -0.1373,0.026 z m 0.9128,-0.2173 c 0.2583,-0.1258 0.4971,-0.2984 0.6945,-0.5273 l -1.5148,-1.3059 c -10e-5,0 -6e-4,6e-4 -0.0019,0.0019 -0.0014,0.0012 -0.0038,0.0034 -0.0077,0.0063 -0.0077,0.0058 -0.0221,0.0153 -0.046,0.027 z m 0.683,-0.5143 c 0.3259,-0.3649 0.547,-0.826 0.547,-1.3632 h -2 c 0,-0.0052 6e-4,-0.0115 0.0019,-0.018 6e-4,-0.0031 0.0013,-0.0056 0.0019,-0.0075 3e-4,-0.001 6e-4,-0.0017 8e-4,-0.0022 1e-4,-3e-4 1e-4,-5e-4 2e-4,-6e-4 0,-10e-5 0,-10e-5 0,-2e-4 10e-5,0 10e-5,0 10e-5,0 0,0 -10e-5,10e-5 -10e-5,2e-4 -1e-4,10e-5 -2e-4,3e-4 -3e-4,6e-4 -3e-4,6e-4 -7e-4,0.0015 -0.0014,0.0027 -0.0012,0.0023 -0.0033,0.006 -0.0066,0.011 -0.0064,0.01 -0.0175,0.0252 -0.0354,0.0452 z m 0.547,-1.3632 c 0,-0.1566 -0.0088,-0.3232 -0.0379,-0.484 -0.0257,-0.1424 -0.084,-0.3811 -0.25,-0.6024 l -1.6,1.2 C 87.3071,16.6035 87.2782,16.535 87.2654,16.5 87.252,16.4634 87.248,16.4408 87.2479,16.44 c -3e-4,-0.0018 0.0014,0.0076 0.0031,0.0311 0.0017,0.023 0.0029,0.055 0.0029,0.0973 z M 88.166,17.082 h 1.6934 v -2 H 88.166 Z m 0.799,-1.4472 c -0.0593,0.1186 -0.1137,0.2396 -0.163,0.3629 l 1.857,0.7428 c 0.0288,-0.072 0.0604,-0.1424 0.0948,-0.2113 z m -0.1708,0.3832 c -0.0283,0.0753 -0.0602,0.1538 -0.0962,0.2355 l 1.8306,0.8055 c 0.05,-0.1136 0.0961,-0.2265 0.1382,-0.3387 z m -0.093,0.2284 c -0.1817,0.4042 -0.4482,0.6714 -0.8213,0.8446 l 0.8418,1.8141 c 0.8223,-0.3815 1.4307,-1.0088 1.8037,-1.839 z m -1.3992,1.7999 c 0.0484,1.0014 0.377,1.9715 0.9404,2.9015 l 1.7106,-1.0362 c -0.421,-0.695 -0.6236,-1.346 -0.6534,-1.9618 z m 0.9445,2.9082 c 0.5228,0.848 1.1527,1.5277 1.9219,1.9311 l 0.9289,-1.7712 c -0.348,-0.1825 -0.7415,-0.5497 -1.1484,-1.2095 z M 90.6328,21 H 88.67 v 2 h 1.9628 z m -1.5301,0.0985 c 0.0945,0.0453 0.0464,0.0706 -0.0697,-0.1602 -0.1073,-0.2133 -0.225,-0.551 -0.3369,-1.0457 l -1.9507,0.4414 c 0.1302,0.5756 0.2919,1.0875 0.501,1.5031 0.2002,0.3981 0.5057,0.8316 0.9908,1.0644 z M 88.6962,19.893 C 88.6234,19.5709 88.5765,19.2679 88.5534,18.9833 L 86.56,19.1456 c 0.0315,0.3873 0.094,0.7835 0.1853,1.1879 z M 88.5534,18.9833 C 88.538,18.7948 88.5166,18.6155 88.4852,18.4557 88.458,18.3173 88.4076,18.1055 88.294,17.9085 l -1.7324,0.9994 c -0.0332,-0.0575 -0.0455,-0.0975 -0.0461,-0.0993 -0.0016,-0.0053 0.0015,0.0037 0.0072,0.0326 0.0116,0.0589 0.0253,0.157 0.0373,0.3044 z M 88.3019,17.9226 C 88.0187,17.4128 87.5153,17.25 87.1114,17.25 v 2 c -0.0353,0 -0.1333,-0.0057 -0.2539,-0.066 -0.1319,-0.066 -0.2377,-0.1711 -0.3039,-0.2902 z M 87.1114,17.25 c -0.2359,0 -0.4891,0.0571 -0.7235,0.2032 -0.2314,0.1441 -0.3889,0.34 -0.4922,0.5329 -0.1905,0.3561 -0.2297,0.7621 -0.2297,1.0959 h 2 c 0,-0.0968 0.0067,-0.157 0.0123,-0.1884 0.006,-0.0336 0.007,-0.0128 -0.0193,0.0363 -0.029,0.0543 -0.0938,0.1462 -0.2138,0.2209 -0.1231,0.0767 -0.2464,0.0992 -0.3338,0.0992 z m -1.4454,1.832 v 0.4336 h 2 V 19.082 Z"
     fill="#ffffff"
     id="path30"
     style="display:inline" />
  <path
     d="m 69.17,16.4336 c -0.4532,0 -0.6797,0.2676 -0.6797,0.8027 0,2.2188 0.0371,3.5254 0.1113,3.9199 0.043,0.2383 0.0976,0.4161 0.1641,0.5333 L 68.9414,22 h -2.08 c 0.125,-0.2969 0.1972,-0.5449 0.2168,-0.7441 0.0234,-0.1993 0.0429,-0.4121 0.0585,-0.6387 0.0313,-0.461 0.0469,-1.0801 0.0469,-1.8574 0,-0.9414 -0.0156,-1.8008 -0.0469,-2.5782 L 67.0723,14.5703 C 67.0567,14.1641 67.0215,13.8809 66.9668,13.7207 66.8809,13.4668 66.7403,13.2383 66.545,13.0352 h 3.0996 c 0.9453,0 1.6289,0.0937 2.0507,0.2812 0.4454,0.1953 0.668,0.5293 0.668,1.002 0,0.414 -0.1543,0.8027 -0.4629,1.166 -0.289,0.3359 -0.6679,0.6035 -1.1367,0.8027 0.0586,1.5 0.5293,2.9395 1.4121,4.3184 0.3789,0.5976 0.7656,1.0625 1.1602,1.3945 H 71.1387 C 70.7559,21.4766 70.4024,20.416 70.0782,18.8184 69.9688,18.2637 69.8965,17.8027 69.8614,17.4355 69.8301,17.0684 69.8028,16.8477 69.7793,16.7734 69.7598,16.6953 69.7266,16.6328 69.6797,16.5859 69.586,16.4844 69.416,16.4336 69.17,16.4336 Z m 1.3476,-1.043 c 0.1094,-0.1172 0.1856,-0.2422 0.2285,-0.375 0.0469,-0.1328 0.0703,-0.2597 0.0703,-0.3808 0,-0.125 -0.0175,-0.2481 -0.0527,-0.3692 -0.0312,-0.125 -0.0957,-0.2344 -0.1934,-0.3281 -0.2148,-0.2109 -0.5898,-0.3164 -1.125,-0.3164 -0.1992,0 -0.3613,0.0078 -0.4863,0.0234 -0.1211,0.0157 -0.2168,0.0586 -0.2871,0.1289 -0.1211,0.1172 -0.1816,0.4161 -0.1816,0.8965 0,0.4219 0.0449,0.6914 0.1347,0.8086 0.1602,0.207 0.4024,0.3106 0.7266,0.3106 0.3242,0 0.5723,-0.0371 0.7441,-0.1114 0.1758,-0.0781 0.3164,-0.1738 0.4219,-0.2871 z m 5.6309,1.1602 c -0.3516,0 -0.6055,0.1758 -0.7618,0.5273 -0.1523,0.3516 -0.2285,0.9434 -0.2285,1.7754 0,1.7852 0.3301,2.6777 0.9903,2.6777 0.3515,0 0.6035,-0.2382 0.7558,-0.7148 0.1563,-0.4766 0.2344,-1.1309 0.2344,-1.9629 0,-0.832 -0.0781,-1.4238 -0.2344,-1.7754 C 76.752,16.7266 76.5,16.5508 76.1485,16.5508 Z m -2.4668,2.0801 c 0,-1.7774 0.8222,-2.6661 2.4668,-2.6661 1.6445,0 2.4668,0.8887 2.4668,2.6661 0,1.0781 -0.2266,1.9316 -0.6797,2.5605 -0.4414,0.6172 -1.0371,0.9258 -1.7871,0.9258 -0.75,0 -1.3457,-0.3086 -1.7871,-0.9258 -0.4532,-0.6289 -0.6797,-1.4824 -0.6797,-2.5605 z m 10.1601,-2.9004 c 0.0977,0.2343 0.1465,0.4922 0.1465,0.7734 0,0.2773 -0.0098,0.5078 -0.0293,0.6914 -0.0195,0.1836 -0.0488,0.3613 -0.0879,0.5332 -0.082,0.3633 -0.209,0.6543 -0.3808,0.8731 -0.1719,-1.0625 -0.4512,-1.7071 -0.8379,-1.9336 -0.1367,-0.0782 -0.2852,-0.1172 -0.4453,-0.1172 -0.1563,0 -0.293,0.0371 -0.4102,0.1113 -0.1172,0.0742 -0.2168,0.1817 -0.2988,0.3223 -0.168,0.2812 -0.252,0.6465 -0.252,1.0957 0,0.4453 0.0449,0.8301 0.1348,1.1543 0.0898,0.3203 0.207,0.6094 0.3516,0.8672 0.1484,0.2539 0.3144,0.4746 0.498,0.6621 0.1875,0.1836 0.375,0.3379 0.5625,0.4629 0.3789,0.2422 0.7148,0.3632 1.0078,0.3632 -0.0156,0.1016 -0.0664,0.2012 -0.1523,0.2989 -0.086,0.0976 -0.1797,0.1738 -0.2813,0.2285 -0.414,0 -0.8887,-0.1406 -1.4238,-0.4219 -0.9961,-0.5273 -1.668,-1.2969 -2.0156,-2.3086 -0.1289,-0.3711 -0.1934,-0.75 -0.1934,-1.1367 0,-0.3906 0.0449,-0.7188 0.1348,-0.9844 0.0898,-0.2695 0.2207,-0.5 0.3925,-0.6914 0.3516,-0.4062 0.8399,-0.6094 1.4649,-0.6094 0.2109,0 0.416,0.0137 0.6152,0.0411 0.375,0.0507 0.6367,0.0761 0.7852,0.0761 0.1523,0 0.2871,-0.0195 0.4043,-0.0586 0.1172,-0.0429 0.2207,-0.1406 0.3105,-0.2929 z m 2.8242,3.7851 c 0,1.1328 0.0762,1.961 0.2286,2.4844 H 85.166 c 0.1094,-0.3789 0.1778,-0.8262 0.2051,-1.3418 0.0586,-1.2461 0.0879,-2.2129 0.0879,-2.9004 0,-0.6875 -0.0019,-1.1484 -0.0058,-1.3828 -0.004,-0.2383 -0.0079,-0.4766 -0.0118,-0.7148 -0.0234,-0.8399 -0.0644,-1.3731 -0.123,-1.5997 -0.0547,-0.2304 -0.1074,-0.3964 -0.1582,-0.498 -0.0742,-0.1641 -0.1934,-0.3398 -0.3574,-0.5273 h 2.1386 c -0.1093,0.3945 -0.1738,0.7675 -0.1933,1.1191 l -0.041,0.8496 c -0.0274,0.6445 -0.0411,1.1348 -0.0411,1.4707 0,0.3359 0.002,0.5625 0.0059,0.6797 0.0078,0.1172 0.0234,0.2129 0.0469,0.2871 0.0469,0.1563 0.164,0.2305 0.3515,0.2227 0.1914,-0.0079 0.3633,-0.0469 0.5157,-0.1172 0.1523,-0.0742 0.2773,-0.168 0.375,-0.2813 0.1953,-0.2187 0.2929,-0.4511 0.2929,-0.6972 0,-0.2461 -0.0293,-0.4082 -0.0879,-0.4864 h 1.6934 c -0.0469,0.0938 -0.0898,0.1895 -0.1289,0.2871 -0.0352,0.0938 -0.0742,0.1895 -0.1172,0.2871 -0.2773,0.6172 -0.7148,1.0645 -1.3125,1.3418 0.0391,0.8086 0.3047,1.6192 0.7969,2.4317 0.4648,0.7539 0.9765,1.2773 1.5351,1.5703 H 88.67 C 88.2793,21.8125 87.9629,21.1836 87.7207,20.1133 87.6387,19.75 87.584,19.4004 87.5567,19.0645 87.5293,18.7285 87.4864,18.5098 87.4278,18.4082 87.3692,18.3027 87.2637,18.25 87.1114,18.25 c -0.2969,0 -0.4454,0.2773 -0.4454,0.832 z"
     fill="#232323"
     id="path28"
     style="display:inline" />
  <defs
     id="defs35">
    <clipPath
       id="clip0_11_63">
      <rect
         width="89"
         height="127"
         fill="white"
         transform="translate(37 65)"
         id="rect32" />
    </clipPath>
  </defs>
</svg>
