<?xml version="1.0" encoding="UTF-8" standalone="no"?>
<!-- Created with Inkscape (http://www.inkscape.org/) -->

<svg
   width="39.55896mm"
   height="55.800156mm"
   viewBox="0 0 39.55896 55.800156"
   version="1.1"
   id="svg1270"
   inkscape:version="1.1.1 (3bf5ae0d25, 2021-09-20)"
   sodipodi:docname="rock-hand.svg"
   xmlns:inkscape="http://www.inkscape.org/namespaces/inkscape"
   xmlns:sodipodi="http://sodipodi.sourceforge.net/DTD/sodipodi-0.dtd"
   xmlns="http://www.w3.org/2000/svg"
   xmlns:svg="http://www.w3.org/2000/svg">
  <sodipodi:namedview
     id="namedview1272"
     pagecolor="#e85858"
     bordercolor="#999999"
     borderopacity="1"
     inkscape:pageshadow="0"
     inkscape:pageopacity="0"
     inkscape:pagecheckerboard="true"
     inkscape:document-units="mm"
     showgrid="false"
     inkscape:snap-global="false"
     inkscape:zoom="2.8284271"
     inkscape:cx="11.844039"
     inkscape:cy="103.06081"
     inkscape:window-width="1920"
     inkscape:window-height="1009"
     inkscape:window-x="-8"
     inkscape:window-y="-8"
     inkscape:window-maximized="1"
     inkscape:current-layer="layer2" />
  <defs
     id="defs1267" />
  <g
     inkscape:groupmode="layer"
     id="layer2"
     inkscape:label="Layer 2">
    <path
       style="display:inline;fill:#ffffff;stroke:#ffffff;stroke-width:1.2;stroke-miterlimit:4;stroke-dasharray:none;stroke-opacity:1"
       d="M 86.951,206.41664 C 84.9407,201.78611 81.53192,190.92692 78.737095,180.25 72.38299,155.97572 69.0324,146.19825 63.658945,136.25 57.652315,125.1295 52.611365,119.31278 33.543485,101.5 19.452142,88.336185 13.601515,81.73813 8.5133705,73.272245 2.2529174,62.855825 1.9809882,56.347575 7.4637158,48.150215 17.147499,33.671758 50.625207,6.0210476 60.354685,4.4652416 c 2.547795,-0.4074088 5.67773,0.4725872 7.11235,1.9996701 l 1.15191,1.226148 L 67.51044,9.09553 66.40194,10.5 l 2.769955,0.253597 c 5.34134,0.489015 7.786115,5.005536 6.09374,11.257675 -1.20512,4.452083 -3.081195,6.785469 -6.93609,8.626847 -3.520015,1.681415 -5.89273,4.155733 -6.72696,7.015013 C 61.30622,38.668909 60.90916,41.4125 60.72023,43.75 60.2208,49.929151 59.655515,51.016593 56.447615,51.969236 51.448347,53.453859 47.234119,52.709877 42.123057,49.44037 39.183934,47.560236 39,47.495712 39,48.344795 c 0,0.327137 1.09147,1.88247 2.65625,3.09282 4.083699,3.15872 2.309369,2.791175 -3.268768,-0.0032 -4.119555,-2.063678 -5.5967,-2.253822 -3.957984,-0.509488 0.978664,1.04174 1.016891,1.247094 0.337157,1.811222 C 32.115462,54.93647 35.694057,56.03485 45,55.8771 c 8.762705,-0.14854 12.46081,0.18899 12.837925,1.17173 0.77019,2.00708 -2.71533,6.615465 -6.42559,8.495595 -4.459241,2.259665 -7.994749,2.860255 -15.148106,2.57325 l -6.485771,-0.26022 1.591188,1.42173 c 3.84682,3.43713 10.05762,3.2926 20.380354,-0.47427 3.85,-1.4049 7.2939,-2.55449 7.653115,-2.55464 0.586145,-2.45e-4 2.918895,4.382675 2.513665,4.722825 -0.09173,0.077 -2.489905,0.907675 -5.32928,1.84595 -2.839375,0.93827 -5.186468,1.925325 -5.215762,2.19345 -0.13133,1.202035 2.688352,1.430235 6.887687,0.557435 5.92411,-1.23128 6.29617,-0.80723 3.68828,4.20367 -1.40221,2.69426 -1.63752,4.482885 -0.588395,4.472545 0.21488,-0.002 0.93188,-0.95837 1.59334,-2.125 0.661455,-1.166635 3.95203,-6.28365 7.312385,-11.37115 9.52582,-14.42187 11.09753,-17.648643 15.226685,-31.260879 3.972625,-13.096229 5.84221,-16.558369 9.91438,-18.359684 3.95856,-1.75106 10.73813,-0.174867 13.91011,3.233982 1.11695,1.200352 4.17382,3.756178 3.3948,3.42544 -0.55,-0.233507 -5.42351,-2.797544 -7.21101,-2.87557 l -3.25,-0.141865 3.11412,0.915643 c 5.73086,1.685044 8.88772,4.594843 10.33774,9.528683 1.15427,3.927516 1.05453,15.925578 -0.20186,24.28425 -0.53736,3.575 -0.98219,7.294715 -0.98851,8.266035 -0.0158,2.4281 1.03531,5.964665 3.24855,10.93009 1.74808,3.921825 1.89588,4.640885 2.26091,11 0.37679,6.564 1.0815,10.053875 2.03016,10.053875 0.26382,0 0.19449,-2.889636 0.003,-6.236136 -0.22544,-3.94722 -0.16107,-5.75 0.2053,-5.75 0.29354,0 1.60688,1.554886 2.76999,2.861136 3.68085,4.13383 6.74853,9.30809 8.26913,13.94757 1.60339,4.89207 1.61557,5.22328 1.14572,31.17743 -0.22274,12.30354 -0.53152,10.76774 4.99592,24.84852 1.95771,4.98712 3.55724,9.36764 3.55451,9.73448 -0.006,0.75613 -4.45625,3.99999 -5.0146,3.65491 -0.19996,-0.12358 -0.51144,-1.52142 -0.69217,-3.1063 -0.60897,-5.34019 -0.73872,-5.69331 -1.86961,-5.08808 -1.22935,0.65793 -2.41866,3.3712 -2.41866,5.5179 0,1.55629 0.0231,1.57261 0.98957,0.698 0.92316,-0.83544 1.01147,-0.83851 1.31573,-0.0456 0.17939,0.46747 0.0716,1.40869 -0.23957,2.09159 -0.31115,0.6829 -0.57786,1.6248 -0.59268,2.09311 -0.0172,0.5458 -8.20645,6.50564 -22.81144,16.60148 -12.53147,8.6625 -22.98181,15.82499 -23.222975,15.91664 -0.24116,0.0916 -0.910595,-0.92085 -1.487635,-2.25 z m 44.89177,-37.7538 C 132.47925,168.0649 133,167.29467 133,166.9512 c 0,-0.34346 0.59172,-1.32771 1.31495,-2.18721 1.27918,-1.52022 1.29375,-1.61307 0.53575,-3.41336 -0.42855,-1.01785 -1.16366,-3.53813 -1.63356,-5.60063 -2.03627,-8.9376 -3.40031,-7.4546 -1.77916,1.93432 1.14111,6.60879 1.03807,8.25156 -0.6822,10.87702 -0.97297,1.48494 -0.43872,1.53483 1.08699,0.1015 z M 85.912945,105.25248 c 0.199465,-2.04493 -1.458005,-8.06949 -2.157245,-7.841115 -0.8822,0.288125 -1.81945,3.981555 -1.496075,5.895585 0.333495,1.97396 1.96993,4.11457 2.909855,3.80638 0.319285,-0.10469 0.653845,-0.94207 0.743465,-1.86085 z m 18.952525,0.62252 c 0.6254,-2.23632 0.42282,-12.179555 -0.29753,-14.603575 -0.86061,-2.89601 -1.34162,-2.00065 -1.73447,3.228575 -0.16528,2.2 -0.45762,5.125 -0.64966,6.5 -0.33026,2.36464 -0.30056,2.45992 0.54854,1.75981 0.83932,-0.69205 0.87479,-0.63587 0.54542,0.86376 -0.65117,2.96472 0.80913,5.03547 1.5877,2.25143 z M 82,91.148935 c 0,-0.88058 0.478145,-4.26494 1.062545,-7.520785 0.5844,-3.25585 0.927335,-6.054935 0.76208,-6.22019 -1.0305,-1.0305 -3.577865,3.78155 -4.231295,7.993055 -0.36757,2.369065 -0.32571,2.85328 0.228285,2.64069 C 80.3367,87.84405 80.5,88.3794 80.5,90.26569 c 0,1.87494 0.183965,2.48431 0.75,2.48431 0.51052,0 0.75,-0.51123 0.75,-1.601065 z M 80,77.33871 c 0,-0.77621 0.99787,-3.46152 2.217485,-5.96736 2.1695,-4.45748 3.468805,-8.10173 3.041055,-8.529475 -0.40476,-0.404765 -5.260045,7.65859 -6.05928,10.062875 -0.49586,1.49166 -0.67685,3.05793 -0.47667,4.125 C 79.111275,79.10161 80,79.31656 80,77.33871 Z M 98.71745,26.762375 C 99.422855,26.494182 100,25.923932 100,25.495154 c 0,-0.649514 -0.438005,-0.723908 -2.625,-0.445846 -2.596865,0.330173 -3.875,0.911325 -3.875,1.761914 0,0.591998 3.621065,0.558097 5.21745,-0.04885 z M 69,14.837157 c 0,-0.95497 -2.527565,-2.685847 -4.02853,-2.758735 -2.470325,-0.119962 -2.280005,0.908327 0.385685,2.083803 C 67.927875,15.295823 69,15.494462 69,14.837157 Z"
       id="path2837"
       transform="scale(0.26458333)"
       sodipodi:nodetypes="sssssssscccsssssssssssssssscsssssssscssssssscssssssssssssscssssssscssssssssssssssssssssssssssssssssssssssssssssssss" />
    <path
       style="display:inline;fill:#ffffff;stroke:#ffffff;stroke-width:0.735;stroke-miterlimit:4;stroke-dasharray:none;stroke-opacity:1"
       d="m 80.963726,16.668398 c 0,-0.29458 -3.691656,-7.1568479 -5.60903,-10.4263947 L 73.935493,3.8219487 74.665377,3.5266542 c 1.062534,-0.4298775 3.31602,-0.5182537 6.49434,-0.254692 2.136051,0.1771316 2.816451,0.2926192 2.892565,0.490969 0.168311,0.4386124 -0.263772,0.7448745 -1.05089,0.7448745 -0.957589,0 -1.82084,0.3019647 -2.041397,0.7140792 -0.250428,0.4679288 -0.249489,0.4687609 0.642407,0.5692905 0.52859,0.05958 1.072726,0.2827776 1.546796,0.6344773 1.489755,1.1052086 2.217305,1.4647379 3.161211,1.5621576 0.84301,0.087006 0.989437,0.1660632 1.369477,0.7393887 0.298724,0.4506547 0.444992,0.9580514 0.490818,1.702626 0.05844,0.949493 0.0038,1.161903 -0.521451,2.026628 -0.758375,1.248557 -2.304215,2.489431 -4.299041,3.450919 -1.955368,0.942469 -2.386486,1.079948 -2.386486,0.761026 z"
       id="path2876"
       transform="scale(0.26458333)" />
  </g>
  <g
     inkscape:label="Layer 1"
     inkscape:groupmode="layer"
     id="layer1"
     transform="translate(-85.828525,-90.323225)">
    <g
       transform="matrix(-0.06864335,-0.09901139,0.09901139,-0.06864335,108.6028,146.12358)"
       fill-rule="evenodd"
       id="g61">
      <path
         d="m 0,129.734 c 5.056,1.287 3.347,9.338 10.379,8.649 2.95,-0.709 -0.364,-2.23 0,-5.189 4.51,2.985 8.768,6.223 8.649,13.838 C 12.094,144.742 7.204,140.403 0,138.383 Z"
         id="path43" />
      <path
         d="m 19.028,131.46 c 3.663,16.518 24.55,15.811 34.596,25.947 -11.769,-1.308 -20.868,-9.217 -29.407,-8.649 0.714,-8.21 -5.903,-9.088 -5.189,-17.298 z"
         id="path45" />
      <path
         d="m 247.36,153.95 c 9.951,-0.126 16.131,18.447 20.758,29.405 -8.991,-7.729 -11.192,-22.252 -20.758,-29.405 z"
         id="path47" />
      <path
         d="m 385.74,205.84 c 4.146,3.703 -5.014,8.726 -10.379,8.649 1.757,-4.586 7.999,-4.686 10.379,-8.649 z"
         id="path49" />
      <path
         d="m 321.74,243.9 c 4.889,3.89 -2.845,9.726 -3.46,13.838 -4.889,-3.89 2.842,-9.726 3.46,-13.838 z"
         id="path51" />
      <path
         d="m 0,153.95 c 10.402,3.682 40.146,8.392 53.624,13.838 40.282,16.275 58.092,66.777 124.55,51.894 -6.811,-5.875 -15.101,-10.27 -22.488,-15.567 13.222,1.081 20.92,12.012 34.596,17.297 7.584,2.931 18.474,2.089 27.677,6.92 11.564,6.071 21.198,19.362 32.866,27.677 24.197,17.243 40.023,31.271 64.002,6.919 -3.854,7.102 -9.293,12.617 -19.027,13.838 18.444,3.007 35.974,-11.953 36.325,-25.946 0.427,-16.97 -25.394,-39.572 -36.325,-57.084 -19.65,-31.474 -23.18,-54.689 -36.326,-79.57 5.988,-3.042 6.72,13.99 13.838,15.568 7.606,-5.078 5.466,-19.906 15.568,-22.487 -1.614,8.764 -4.848,15.91 -6.918,24.217 5.624,3.309 9.881,3.427 13.838,1.73 6.081,-24.971 9.578,-51.964 32.865,-55.354 -13.657,11.844 -36.839,46.024 -15.568,65.732 14.236,-11.135 18.784,-31.958 34.597,-41.515 3.048,6.002 -1.768,7.836 8.648,5.189 -5.946,5.585 -16.236,6.826 -20.757,13.838 2.43,2.873 9.672,-4.067 17.297,-1.73 -15.773,4.983 -27.891,13.624 -31.135,31.137 1.87,12.262 21.477,13.787 25.946,32.865 1.311,5.597 -2.26,12.064 -1.729,17.299 2.02,19.947 29.403,38.392 39.785,15.568 2.611,5.559 -0.23,6.872 5.189,6.919 8.24,-0.327 15.966,-9.178 17.298,-20.758 5.025,-43.669 -5.317,-129.16 -20.758,-152.22 C 381.861,41.777 370.484,34.865 358.072,32.867 299.827,23.487 240.402,53.523 185.092,53.624 116.643,53.749 58.112,15.278 0.002,5.189 V 0 c 28.95,8.619 55.573,15.987 83.03,24.217 25.389,7.61 52.703,19.662 83.03,22.488 34.634,3.226 63.573,-4.378 93.409,-10.379 44.027,-8.854 116.44,-25.423 136.65,13.838 10.15,19.708 10.938,52.111 13.839,74.381 3.635,27.895 10.597,61.064 5.189,83.03 -1.816,7.374 -10.973,14.042 -17.298,25.946 -5.971,11.24 -8.695,21.203 -15.568,25.947 -4.525,3.125 -12.553,0.71 -20.757,5.189 -8.051,4.396 -10.497,15.109 -22.488,19.028 -8.403,2.746 -20.753,1.121 -31.136,3.459 -12.255,2.761 -19.113,9.001 -27.677,8.649 -13.187,-0.541 -39.07,-11.738 -53.624,-22.488 -7.122,-5.26 -9.862,-15.02 -17.298,-20.757 C 181.945,231.443 126.511,234.907 96.863,221.411 74.723,211.331 64.072,185.845 46.699,178.167 33.102,172.16 11.332,173.103 -0.004,169.52 v -15.568 z m 364.99,102.06 c 3.907,-6.804 8.095,-2.571 12.109,-8.649 2.249,4.296 -5.075,7.179 0,8.649 4.095,-6.283 10.517,-10.24 12.108,-19.028 -11.298,-0.811 -22.458,-1.761 -32.867,-3.46 -2.915,8.062 -3.552,24.269 8.65,22.488 z"
         id="path53" />
      <path
         d="m 219.68,140.11 c 1.396,-5.323 10.558,10.831 10.379,1.729 6.086,5.444 12.56,10.504 13.838,20.758 -9.095,-6.473 -15.122,-16.014 -24.217,-22.487 z"
         id="path55" />
      <path
         d="m 164.33,162.6 c 1.46,-2.458 8.919,3.65 10.379,6.919 2.568,-0.755 -0.683,-2.213 0,-5.189 7.596,6.242 14.36,13.316 22.487,19.027 C 187.175,182.4 172.132,171.533 164.33,162.6 Z"
         id="path57" />
      <path
         d="m 207.58,138.38 c -6.535,-3.267 -16.759,-2.845 -19.027,-10.379 7.358,-3.752 17.359,2.874 19.027,10.379 z"
         id="path59" />
    </g>
  </g>
</svg>
