<?xml version="1.0" encoding="UTF-8" standalone="no"?>
<!-- Created with Inkscape (http://www.inkscape.org/) -->

<svg
   width="43.677898mm"
   height="81.586243mm"
   viewBox="0 0 43.677898 81.586243"
   version="1.1"
   id="svg1020"
   inkscape:version="1.1.1 (3bf5ae0d25, 2021-09-20)"
   sodipodi:docname="scissors-hand.svg"
   xmlns:inkscape="http://www.inkscape.org/namespaces/inkscape"
   xmlns:sodipodi="http://sodipodi.sourceforge.net/DTD/sodipodi-0.dtd"
   xmlns="http://www.w3.org/2000/svg"
   xmlns:svg="http://www.w3.org/2000/svg">
  <sodipodi:namedview
     id="namedview1022"
     pagecolor="#d75264"
     bordercolor="#999999"
     borderopacity="1"
     inkscape:pageshadow="0"
     inkscape:pageopacity="0"
     inkscape:pagecheckerboard="true"
     inkscape:document-units="mm"
     showgrid="false"
     inkscape:object-nodes="false"
     inkscape:zoom="1.4681257"
     inkscape:cx="48.020411"
     inkscape:cy="152.91606"
     inkscape:window-width="1920"
     inkscape:window-height="1009"
     inkscape:window-x="-8"
     inkscape:window-y="-8"
     inkscape:window-maximized="1"
     inkscape:current-layer="layer2" />
  <defs
     id="defs1017" />
  <g
     inkscape:groupmode="layer"
     id="layer2"
     inkscape:label="Filler"
     transform="translate(-62.142847,-77.069743)">
    <path
       style="fill:#ffffff;stroke:none;stroke-width:0.264583px;stroke-linecap:butt;stroke-linejoin:miter;stroke-opacity:1"
       d="m 62.477358,155.65305 7.897945,-24.99468 2.883495,-21.89654 3.694478,-7.8395 2.162622,-8.470268 5.496663,-11.443872 2.256505,-3.302127 0.874788,-0.189606 1.986931,1.319781 c 0,0 0.02025,3.199377 -0.62305,5.309488 -0.925467,2.27128 -2.063878,5.655986 -3.166497,7.849407 l -1.990459,9.112087 -0.105724,1.89316 0.766025,1.02779 5.353456,-6.167823 6.422593,-8.19267 c 0,0 5.385021,-6.564214 6.500071,-6.946515 0.92389,-0.19115 2.95741,0.665316 2.76625,2.226379 0.19116,1.847788 -10.498111,15.749519 -10.498111,15.749519 l -2.342841,3.9648 -0.495599,2.52306 6.285435,-1.78051 1.553136,1.32544 c 0,0 0.29217,3.54892 0.29217,5.556 0.28672,1.56106 1.23043,3.03196 1.23043,3.03196 0,0 -0.20415,5.25645 -0.71388,6.08477 -5.131654,6.48652 -9.157413,17.95531 -10.2406,19.61195 -0.828319,0.63717 -3.813585,5.32753 -3.813585,5.32753 -0.987611,1.78407 -1.114263,3.24913 -0.57267,4.49161 l -9.036582,7.35322 -1.799429,0.46909 -12.537167,-2.01635 z"
       id="path4783"
       sodipodi:nodetypes="ccccccccccccccccccccccccccccccccc" />
  </g>
  <g
     inkscape:label="Layer 1"
     inkscape:groupmode="layer"
     id="layer1"
     style="display:inline;opacity:1"
     sodipodi:insensitive="true"
     transform="translate(-62.142847,-77.069743)">
    <g
       transform="matrix(0.06838584,-0.19259459,0.19259459,0.06838584,56.583884,154.37415)"
       fill-rule="evenodd"
       id="g83">
      <path
         d="m 361.405,18.798 c 0.183,3.935 -2.72,8.736 0.351,11.859 0.581,-1.918 2.404,-2.862 1.882,-1.278 3.681,-0.369 -0.205,-4.866 1.708,-7.206 -2.92,-0.673 -1.599,-2.539 -3.941,-3.375 z"
         id="path63" />
      <path
         d="m 323.558,19.741 c -1.958,1.333 -1.575,8.389 0.848,10.972 2.115,-4.334 -1.078,-7.171 -0.848,-10.972 z"
         id="path65" />
      <path
         d="m 373.98,89.99 c -3.714,1.095 -4.415,7.683 -4.585,10.26 3.952,-1.163 2.957,-7.273 4.585,-10.26 z"
         id="path67" />
      <path
         d="m 321.97,72.5 c -2.411,1.459 -2.76,8.722 -4.691,12.531 4.131,-1.946 5.219,-9.416 4.691,-12.531 z"
         id="path69" />
      <path
         d="m 270.18,127.44 c -4.752,9.811 -19.64,1.719 -24.672,-8 5.153,-4.7 10.842,-7.498 16.442,-10.608 2.885,6.549 11.457,11.943 8.23,18.608 z m -21.122,-6.01 c 4.796,2.948 9.505,7.987 15.086,8.457 11.746,-11.772 -8.793,-23.322 -15.086,-8.457 z"
         id="path71" />
      <path
         d="m 253.65,111.17 c -2.67,-1.188 -6.125,1.818 -5.647,3.832 2.115,-0.45 3.98,-1.786 5.647,-3.832 z"
         id="path73" />
      <path
         d="m 2.984,27.804 c 19.307,-0.023 39.398,-2.352 60.289,-3.524 19.921,-1.12 40.249,-0.095 60.179,-1.253 17.961,-1.042 38.129,-5.02 57.842,-9.561 20.324,-4.681 39.488,-12.878 57.559,-13.218 13.051,-0.246 29.157,4.603 43.064,4.315 9.181,-0.19 19.653,-2.939 30.252,-4.035 21.304,-2.203 44.943,3.055 65.787,5.389 12.365,1.385 29.646,4.323 29.889,13.256 0.524,19.289 -27.008,14.056 -36.328,16.955 -13.509,1.351 -27.446,-2.572 -41.397,-1.047 -7.37,0.806 -14.535,4.626 -21.66,5.351 -9.644,0.983 -20.19,-3.831 -27.589,5.527 42.685,20.521 87.223,26.455 127.475,49.3 5.767,34.513 -41.071,12.854 -62.277,7.074 -26.268,-7.161 -48.3,-16.484 -64.968,-13.095 -0.35,10.063 16.708,15.225 17.493,24.967 -10.56,23.538 -31.963,8.575 -42.513,32.15 -10.699,-0.138 -23.185,6.185 -32.632,6.199 -7.419,0.01 -15.125,-4.914 -25.168,-7.113 -23.599,-5.165 -59.929,-1.638 -81.196,-7.028 -22.981,-5.826 -35.052,-17.105 -52.047,-7.019 l -5.325,-2.983 c 8.888,-5.595 19.42,-5.348 29.083,-8.189 0.795,-1.107 -2.106,-4.701 1.102,-4.046 -0.22,1.557 0.171,2.94 1.171,4.154 0.967,-2.802 -1.314,-8.549 1.813,-9.479 0.1,3.21 -0.55,6.631 1.843,9.196 21.318,-4.805 47.895,-5.07 65.761,-13.287 -18.073,0.189 -38.065,2.406 -58.541,-14.155 28.437,15.536 61.903,14.136 83.4,-1.064 -5.337,-3.071 -11.74,-3.682 -13.7,-8.847 l 4.436,2.487 c -1.045,-6.191 -9.188,-14.342 -6.843,-18.997 -0.98,21.186 32.324,21.716 50.648,36.556 3.521,2.852 4.986,8.622 8.552,11.79 12.459,11.079 38.325,27.914 43.629,11.63 1.475,-4.527 -5.874,-17.871 -9.398,-22.763 C 255.812,93.882 245.354,80.87 236.692,74.84 221.175,64.04 201.021,63 197.47,47.026 c 5.059,3.557 6.6,8.104 13.593,11.116 3.937,-3.393 -0.896,-8.159 2.702,-8.98 0.786,2.865 0.175,8.934 4.612,8.417 3.356,-4.005 6.206,-9.805 10.124,-11.819 -2.581,5.461 -8.058,11.736 -6.682,16.081 14.856,5.141 28.032,15.589 34.783,25.328 31.917,-10.33 73.244,4.919 112.577,17.624 10.837,3.501 33.131,11.804 36.853,0.833 2.115,-6.233 -8.018,-11.988 -14.763,-15.274 C 356.887,73.608 312.162,64.025 275.72,48.906 c -1.908,-0.621 -8.7,3.843 -6.816,-0.324 10.694,-11.2 25.805,-10.954 39.771,-12.692 5.622,-0.7 11.034,-2.603 17.008,-3.294 26.229,-3.041 50.338,4.846 68.879,-2.207 6.501,-2.474 12.802,-8.383 8.456,-15.085 C 369.166,7.42 334.164,3.734 299.101,7.199 280.875,9 265.181,8.141 248.117,6.61 215.236,3.657 181.48,18.997 151.607,24.817 135.213,28.012 118.639,26.337 101.404,26.998 68.287,28.264 31.807,30.771 0,33.128 0.995,31.353 1.99,29.578 2.984,27.804 Z m 261.605,63.842 c 0.395,11.847 9.998,21.099 12.129,32.457 6.438,0.748 12.617,0.576 16.336,-8.335 -5.655,-8.494 -16.405,-22.274 -28.465,-24.122 z m -43.467,23.451 c -2.333,-0.235 0.908,10.869 4.329,4.76 -2.22,-1.369 -3.948,-2.875 -4.329,-4.76 z m 34.5,21.673 c -11.813,-7.808 -30.909,-17.961 -31.703,-3.777 -8.923,-9.287 -27.699,-17.935 -34.863,-4.381 7.407,-3.651 15.946,-0.771 21.513,7.394 -0.996,1.774 -1.99,3.55 -2.985,5.324 4.788,2.848 9.016,3.707 13.418,5.189 8.938,-5.838 28.133,3.156 34.62,-9.749 z m -64.013,-4.395 c 4.305,3.021 6.208,6.721 12.316,9.237 0.995,-1.775 1.99,-3.551 2.984,-5.325 -2.4,-4.755 -11.471,-9.038 -15.3,-3.912 z"
         id="path75" />
      <path
         d="m 320.291,21.408 c -1.362,-2.508 -1.234,5.898 -0.82,7.705 3.498,-0.554 0.371,-5.536 0.82,-7.705 z"
         id="path77" />
      <path
         d="m 239.77,96.394 c -2.115,0.449 -3.981,1.787 -5.646,3.832 -0.551,-3.857 6.066,-4.896 7.354,-11.038 -5.153,2.885 -9.686,10.019 -12.503,13.983 3.877,-1.264 7.735,-2.605 10.795,-6.777 z"
         id="path79" />
      <path
         d="m 61.931,91.17 c 1.902,1.954 2.553,4.263 1.951,6.924 -16.353,-0.565 -31.533,3.027 -47.544,3.672 15.331,5.78 32.779,-3.897 50.486,1.477 -0.191,-3.683 -1.925,-6.93 -2.231,-10.58 1.717,-3.636 5.314,-0.588 7.032,-4.223 -20.932,-0.899 -40.87,1.712 -60.396,5.797 14.697,1.758 33.589,-4.559 50.702,-3.067 z"
         id="path81" />
    </g>
  </g>
</svg>
